<svg width="310" height="314" viewBox="0 0 310 314" fill="none" xmlns="http://www.w3.org/2000/svg">
<path d="M171 313.773L297.5 260.5L200 210.5L214 179L96 269.5L141.5 275.5L171 313.773Z" fill="url(#paint0_linear_2417_4464)"/>
<path d="M96.0001 269.999L39.0001 237.628L39 68.6282L96 101L96.0001 269.999Z" fill="url(#paint1_linear_2417_4464)"/>
<path d="M159 64.5256L96.2211 101L39 68.4744L101.779 32L159 64.5256Z" fill="#E5F6B6"/>
<path d="M159 64.8464V223.874C159 223.874 96.6316 269.635 96 270.001V101L159 64.8464Z" fill="url(#paint2_linear_2417_4464)"/>
<path d="M171 313.999L114 281.627V154.128L171 186.5V313.999Z" fill="url(#paint3_linear_2417_4464)"/>
<path d="M234 150L234 267.529C234 267.529 171.632 313.29 171 313.656L171 186.154L234 150Z" fill="url(#paint4_linear_2417_4464)"/>
<path d="M234 150.526L171.221 187L114 154.474L176.779 118L234 150.526Z" fill="#EEF7FF"/>
<g filter="url(#filter0_i_2417_4464)">
<path fill-rule="evenodd" clip-rule="evenodd" d="M148.056 158.298L140 153.96L166.026 137.643L160.655 134.544L168.505 130L181.311 137.643L148.056 158.298ZM173.875 151.688C171.327 151.344 165.406 152.101 162.308 153.96C158.542 156.22 154.665 162.695 164.58 168.006C173.834 172.963 183.032 170.347 186.268 168.006C188.334 166.512 190.812 163.255 188.953 160.983C191.845 161.396 195.563 161.19 199.281 158.298C202.999 155.406 204.652 149.416 196.389 145.698C188.127 141.98 182.55 143.633 179.865 144.872C179.726 144.936 179.584 145.001 179.438 145.067C176.908 146.221 173.484 147.782 173.875 151.688ZM192.258 151.895C192.258 153.606 190.039 154.58 187.301 154.58C184.563 154.58 182.344 153.606 182.344 151.895C182.344 150.184 184.563 148.796 187.301 148.796C190.039 148.796 192.258 150.184 192.258 151.895ZM179.452 160.57C179.452 162.509 177.368 163.668 174.288 163.668C171.208 163.668 168.298 161.809 168.298 160.57C168.298 158.631 170.795 157.059 173.875 157.059C176.955 157.059 179.452 158.631 179.452 160.57Z" fill="#BAD0E8"/>
</g>
<g filter="url(#filter1_i_2417_4464)">
<path d="M67 70.4821L74.8949 74.7332L107.486 54.49L94.9356 47L87.2432 51.4535L92.5064 54.49L67 70.4821Z" fill="#AED47F"/>
<path d="M111.667 56.7548L98.8314 64.1992L105.506 67.5364L110.383 64.9693L118.084 69.3333L82.1456 79.6015L91.1303 84.4789L127.839 73.954L134 69.8467L111.667 56.7548Z" fill="#AED47F"/>
</g>
<defs>
<filter id="filter0_i_2417_4464" x="140" y="130" width="62.3398" height="42.8258" filterUnits="userSpaceOnUse" color-interpolation-filters="sRGB">
<feFlood flood-opacity="0" result="BackgroundImageFix"/>
<feBlend mode="normal" in="SourceGraphic" in2="BackgroundImageFix" result="shape"/>
<feColorMatrix in="SourceAlpha" type="matrix" values="0 0 0 0 0 0 0 0 0 0 0 0 0 0 0 0 0 0 127 0" result="hardAlpha"/>
<feOffset dy="2"/>
<feGaussianBlur stdDeviation="1"/>
<feComposite in2="hardAlpha" operator="arithmetic" k2="-1" k3="1"/>
<feColorMatrix type="matrix" values="0 0 0 0 0.39691 0 0 0 0 0.527646 0 0 0 0 0.670833 0 0 0 0.22 0"/>
<feBlend mode="normal" in2="shape" result="effect1_innerShadow_2417_4464"/>
</filter>
<filter id="filter1_i_2417_4464" x="67" y="47" width="67" height="39.4789" filterUnits="userSpaceOnUse" color-interpolation-filters="sRGB">
<feFlood flood-opacity="0" result="BackgroundImageFix"/>
<feBlend mode="normal" in="SourceGraphic" in2="BackgroundImageFix" result="shape"/>
<feColorMatrix in="SourceAlpha" type="matrix" values="0 0 0 0 0 0 0 0 0 0 0 0 0 0 0 0 0 0 127 0" result="hardAlpha"/>
<feOffset dy="2"/>
<feGaussianBlur stdDeviation="1"/>
<feComposite in2="hardAlpha" operator="arithmetic" k2="-1" k3="1"/>
<feColorMatrix type="matrix" values="0 0 0 0 0.39691 0 0 0 0 0.527646 0 0 0 0 0.670833 0 0 0 0.22 0"/>
<feBlend mode="normal" in2="shape" result="effect1_innerShadow_2417_4464"/>
</filter>
<linearGradient id="paint0_linear_2417_4464" x1="158" y1="274" x2="317.622" y2="251.363" gradientUnits="userSpaceOnUse">
<stop stop-color="#B0C7E1"/>
<stop offset="1" stop-color="white" stop-opacity="0"/>
</linearGradient>
<linearGradient id="paint1_linear_2417_4464" x1="78.5497" y1="25.2268" x2="62.6546" y2="269.686" gradientUnits="userSpaceOnUse">
<stop stop-color="#C9E29E"/>
<stop offset="1" stop-color="#ABCC78"/>
</linearGradient>
<linearGradient id="paint2_linear_2417_4464" x1="77.5" y1="172.253" x2="158.983" y2="172.253" gradientUnits="userSpaceOnUse">
<stop stop-color="#95BC67"/>
<stop offset="0.9829" stop-color="#A2C579"/>
</linearGradient>
<linearGradient id="paint3_linear_2417_4464" x1="153.55" y1="108.732" x2="142.357" y2="313.992" gradientUnits="userSpaceOnUse">
<stop stop-color="#D1E3F5"/>
<stop offset="1" stop-color="#C5DAEE"/>
</linearGradient>
<linearGradient id="paint4_linear_2417_4464" x1="44.8737" y1="231.392" x2="233.983" y2="231.392" gradientUnits="userSpaceOnUse">
<stop stop-color="#8CA8D1"/>
<stop offset="0.9829" stop-color="#C8DCEF"/>
</linearGradient>
</defs>
</svg>
