
<svg width="301" height="225" viewBox="0 0 301 225" fill="none" xmlns="http://www.w3.org/2000/svg">
<rect x="1" width="300" height="225" rx="16" fill="url(#paint0_linear_2011_804)"/>
<g filter="url(#filter0_dd_2011_804)">
<rect x="40" y="68.197" width="155.901" height="125.997" rx="17" fill="white"/>
</g>
<rect x="52.3604" y="77.3672" width="56.22" height="17.1451" rx="8.57255" fill="#E8EFFF"/>
<rect x="58.7402" y="83.7472" width="42.2647" height="3.98723" rx="1.99362" fill="#C5CEE0"/>
<g filter="url(#filter1_ddd_2011_804)">
<rect x="52.3604" y="105.279" width="131.18" height="77.3523" rx="12" fill="white"/>
<rect x="53.8604" y="106.779" width="128.18" height="74.3523" rx="10.5" stroke="#EEF0FD" stroke-width="3"/>
</g>
<rect x="154.832" y="77.3672" width="28.7081" height="13.5566" rx="6.7783" fill="#E8EFFF"/>
<rect x="56.7466" y="110.063" width="120.414" height="17.1451" rx="8.57255" fill="#DBF3B2"/>
<rect x="56.7466" y="157.511" width="120.414" height="17.1451" rx="8.57255" fill="#FFEAB8"/>
<rect x="159.617" y="82.551" width="19.1387" height="3.58851" rx="1.79426" fill="#C5CEE0"/>
<rect x="97.0176" y="163.492" width="42.2647" height="5.58213" rx="2.79106" fill="#E3DAC4" style="mix-blend-mode:multiply"/>
<g filter="url(#filter2_dd_2011_804)">
<rect x="80.7397" y="31" width="155.901" height="125.997" rx="17" fill="white"/>
</g>
<rect x="93.1001" y="40.1702" width="56.22" height="17.1451" rx="8.57255" fill="#E8EFFF"/>
<rect x="99.48" y="46.5502" width="42.2647" height="3.98723" rx="1.99362" fill="#B7BACE"/>
<g filter="url(#filter3_ddd_2011_804)">
<rect x="93.1001" y="68.0817" width="131.18" height="77.3523" rx="12" fill="white"/>
<rect x="94.6001" y="69.5817" width="128.18" height="74.3523" rx="10.5" stroke="#EEF0FD" stroke-width="3"/>
</g>
<rect x="195.572" y="40.1702" width="28.7081" height="13.5566" rx="6.7783" fill="#ECEDF4"/>
<rect x="97.4863" y="72.8657" width="120.414" height="17.1451" rx="8.57255" fill="#E0E7F9"/>
<rect x="97.4863" y="120.314" width="120.414" height="17.1451" rx="8.57255" fill="#FFEAB8"/>
<rect x="200.357" y="45.354" width="19.1387" height="3.58851" rx="1.79426" fill="#B7BACE"/>
<rect x="137.757" y="126.295" width="42.2647" height="5.58213" rx="2.79106" fill="#E3C88D" fill-opacity="0.82" style="mix-blend-mode:multiply"/>
<path fill-rule="evenodd" clip-rule="evenodd" d="M219.617 120.327L206.769 133.176C204.816 135.128 201.65 135.128 199.698 133.176L195.453 128.931C193.501 126.979 193.501 123.813 195.453 121.86L220.435 96.879C220.542 96.7711 220.654 96.6691 220.769 96.5731C221.686 95.469 223.069 94.7659 224.617 94.7659L230.619 94.7659C233.381 94.7659 235.619 97.0044 235.619 99.7659L235.619 152.647C235.619 155.408 233.381 157.647 230.619 157.647H224.617C221.856 157.647 219.617 155.408 219.617 152.647L219.617 120.327Z" fill="#959FB6" fill-opacity="0.26"/>
<path fill-rule="evenodd" clip-rule="evenodd" d="M208.004 124.854L225.817 107.041L225.817 188.959C225.817 191.72 228.055 193.959 230.817 193.959H236.819C239.581 193.959 241.819 191.72 241.819 188.959L241.819 106.525L260.402 125.108C262.354 127.061 265.52 127.061 267.473 125.108L271.717 120.864C273.67 118.911 273.67 115.745 271.717 113.792L241.772 83.8474C241.298 83.3732 240.752 83.0141 240.169 82.7702C239.283 81.9695 238.108 81.4819 236.819 81.4819L230.817 81.4819C229.272 81.4819 227.891 82.1822 226.974 83.2826C226.857 83.38 226.744 83.4835 226.634 83.5932L196.689 113.538C194.736 115.491 194.736 118.657 196.689 120.609L200.933 124.854C202.886 126.806 206.052 126.806 208.004 124.854Z" fill="url(#paint1_linear_2011_804)"/>
<defs>
<filter id="filter0_dd_2011_804" x="0" y="44.197" width="203.901" height="173.997" filterUnits="userSpaceOnUse" color-interpolation-filters="sRGB">
<feFlood flood-opacity="0" result="BackgroundImageFix"/>
<feColorMatrix in="SourceAlpha" type="matrix" values="0 0 0 0 0 0 0 0 0 0 0 0 0 0 0 0 0 0 127 0" result="hardAlpha"/>
<feOffset dx="-2"/>
<feGaussianBlur stdDeviation="3"/>
<feColorMatrix type="matrix" values="0 0 0 0 0 0 0 0 0 0 0 0 0 0 0 0 0 0 0.04 0"/>
<feBlend mode="normal" in2="BackgroundImageFix" result="effect1_dropShadow_2011_804"/>
<feColorMatrix in="SourceAlpha" type="matrix" values="0 0 0 0 0 0 0 0 0 0 0 0 0 0 0 0 0 0 127 0" result="hardAlpha"/>
<feOffset dx="-16"/>
<feGaussianBlur stdDeviation="12"/>
<feColorMatrix type="matrix" values="0 0 0 0 0 0 0 0 0 0 0 0 0 0 0 0 0 0 0.02 0"/>
<feBlend mode="normal" in2="effect1_dropShadow_2011_804" result="effect2_dropShadow_2011_804"/>
<feBlend mode="normal" in="SourceGraphic" in2="effect2_dropShadow_2011_804" result="shape"/>
</filter>
<filter id="filter1_ddd_2011_804" x="32.3604" y="95.2787" width="171.18" height="117.352" filterUnits="userSpaceOnUse" color-interpolation-filters="sRGB">
<feFlood flood-opacity="0" result="BackgroundImageFix"/>
<feColorMatrix in="SourceAlpha" type="matrix" values="0 0 0 0 0 0 0 0 0 0 0 0 0 0 0 0 0 0 127 0" result="hardAlpha"/>
<feOffset/>
<feGaussianBlur stdDeviation="0.5"/>
<feColorMatrix type="matrix" values="0 0 0 0 0 0 0 0 0 0 0 0 0 0 0 0 0 0 0.04 0"/>
<feBlend mode="normal" in2="BackgroundImageFix" result="effect1_dropShadow_2011_804"/>
<feColorMatrix in="SourceAlpha" type="matrix" values="0 0 0 0 0 0 0 0 0 0 0 0 0 0 0 0 0 0 127 0" result="hardAlpha"/>
<feOffset dy="2"/>
<feGaussianBlur stdDeviation="3"/>
<feColorMatrix type="matrix" values="0 0 0 0 0 0 0 0 0 0 0 0 0 0 0 0 0 0 0.04 0"/>
<feBlend mode="normal" in2="effect1_dropShadow_2011_804" result="effect2_dropShadow_2011_804"/>
<feColorMatrix in="SourceAlpha" type="matrix" values="0 0 0 0 0 0 0 0 0 0 0 0 0 0 0 0 0 0 127 0" result="hardAlpha"/>
<feOffset dy="10"/>
<feGaussianBlur stdDeviation="10"/>
<feColorMatrix type="matrix" values="0 0 0 0 0 0 0 0 0 0 0 0 0 0 0 0 0 0 0.04 0"/>
<feBlend mode="normal" in2="effect2_dropShadow_2011_804" result="effect3_dropShadow_2011_804"/>
<feBlend mode="normal" in="SourceGraphic" in2="effect3_dropShadow_2011_804" result="shape"/>
</filter>
<filter id="filter2_dd_2011_804" x="40.7397" y="7" width="203.901" height="173.997" filterUnits="userSpaceOnUse" color-interpolation-filters="sRGB">
<feFlood flood-opacity="0" result="BackgroundImageFix"/>
<feColorMatrix in="SourceAlpha" type="matrix" values="0 0 0 0 0 0 0 0 0 0 0 0 0 0 0 0 0 0 127 0" result="hardAlpha"/>
<feOffset dx="-2"/>
<feGaussianBlur stdDeviation="3"/>
<feColorMatrix type="matrix" values="0 0 0 0 0 0 0 0 0 0 0 0 0 0 0 0 0 0 0.04 0"/>
<feBlend mode="normal" in2="BackgroundImageFix" result="effect1_dropShadow_2011_804"/>
<feColorMatrix in="SourceAlpha" type="matrix" values="0 0 0 0 0 0 0 0 0 0 0 0 0 0 0 0 0 0 127 0" result="hardAlpha"/>
<feOffset dx="-16"/>
<feGaussianBlur stdDeviation="12"/>
<feColorMatrix type="matrix" values="0 0 0 0 0 0 0 0 0 0 0 0 0 0 0 0 0 0 0.03 0"/>
<feBlend mode="normal" in2="effect1_dropShadow_2011_804" result="effect2_dropShadow_2011_804"/>
<feBlend mode="normal" in="SourceGraphic" in2="effect2_dropShadow_2011_804" result="shape"/>
</filter>
<filter id="filter3_ddd_2011_804" x="73.1001" y="58.0817" width="171.18" height="117.352" filterUnits="userSpaceOnUse" color-interpolation-filters="sRGB">
<feFlood flood-opacity="0" result="BackgroundImageFix"/>
<feColorMatrix in="SourceAlpha" type="matrix" values="0 0 0 0 0 0 0 0 0 0 0 0 0 0 0 0 0 0 127 0" result="hardAlpha"/>
<feOffset/>
<feGaussianBlur stdDeviation="0.5"/>
<feColorMatrix type="matrix" values="0 0 0 0 0 0 0 0 0 0 0 0 0 0 0 0 0 0 0.04 0"/>
<feBlend mode="normal" in2="BackgroundImageFix" result="effect1_dropShadow_2011_804"/>
<feColorMatrix in="SourceAlpha" type="matrix" values="0 0 0 0 0 0 0 0 0 0 0 0 0 0 0 0 0 0 127 0" result="hardAlpha"/>
<feOffset dy="2"/>
<feGaussianBlur stdDeviation="3"/>
<feColorMatrix type="matrix" values="0 0 0 0 0 0 0 0 0 0 0 0 0 0 0 0 0 0 0.04 0"/>
<feBlend mode="normal" in2="effect1_dropShadow_2011_804" result="effect2_dropShadow_2011_804"/>
<feColorMatrix in="SourceAlpha" type="matrix" values="0 0 0 0 0 0 0 0 0 0 0 0 0 0 0 0 0 0 127 0" result="hardAlpha"/>
<feOffset dy="10"/>
<feGaussianBlur stdDeviation="10"/>
<feColorMatrix type="matrix" values="0 0 0 0 0 0 0 0 0 0 0 0 0 0 0 0 0 0 0.04 0"/>
<feBlend mode="normal" in2="effect2_dropShadow_2011_804" result="effect3_dropShadow_2011_804"/>
<feBlend mode="normal" in="SourceGraphic" in2="effect3_dropShadow_2011_804" result="shape"/>
</filter>
<linearGradient id="paint0_linear_2011_804" x1="151" y1="0" x2="151" y2="225" gradientUnits="userSpaceOnUse">
<stop stop-color="#D3EBFF"/>
<stop offset="1" stop-color="#E6F3FF"/>
</linearGradient>
<linearGradient id="paint1_linear_2011_804" x1="233.958" y1="81.4819" x2="201.263" y2="93.7117" gradientUnits="userSpaceOnUse">
<stop stop-color="#B6D485"/>
<stop offset="1" stop-color="#9AC06E"/>
</linearGradient>
</defs>
</svg>
