<svg width="339" height="293" viewBox="0 0 339 293" fill="none" xmlns="http://www.w3.org/2000/svg">
<path opacity="0.69" d="M123.423 213.639C51.8744 213.639 41.0143 210.152 28.6145 225.475C22.6464 232.85 21.3453 243.685 46.5603 251.196C71.7752 258.708 145.173 258.708 145.173 258.708C165.847 269.157 151.305 301.273 219.227 290.347C300.778 272.365 354.447 237.295 334.625 217.053C312.884 201.838 226.373 213.639 123.423 213.639Z" fill="#C7DFFB"/>
<g filter="url(#filter0_dd_45_318)">
<path d="M86 27.1597C86 16.5781 94.5781 8 105.16 8H217.657C228.239 8 236.817 16.5781 236.817 27.1597V199.984C236.817 210.566 228.239 219.144 217.657 219.144H105.16C94.5781 219.144 86 210.566 86 199.984V27.1597Z" fill="white"/>
</g>
<path d="M97.9682 25.1791C97.9682 20.5951 101.684 16.8792 106.268 16.8792H144.1C148.684 16.8792 152.4 20.5951 152.4 25.1791V25.1791C152.4 29.763 148.684 33.479 144.1 33.479H106.268C101.684 33.479 97.9682 29.763 97.9682 25.1791V25.1791Z" fill="#DCEAFF"/>
<path d="M104.145 24.9859C104.145 23.9198 105.009 23.0557 106.075 23.0557H143.135C144.201 23.0557 145.065 23.9198 145.065 24.9859C145.065 26.0519 144.201 26.9161 143.135 26.9161H106.075C105.009 26.9161 104.145 26.0519 104.145 24.9859Z" fill="#507BB4" fill-opacity="0.5"/>
<g filter="url(#filter1_ddd_45_318)">
<path d="M97.6556 57.1722C97.6556 49.7028 103.711 43.6477 111.18 43.6477H211.64C219.109 43.6477 225.164 49.7028 225.164 57.1722V80.1671C225.164 87.6364 219.109 93.6915 211.64 93.6915H111.18C103.711 93.6915 97.6556 87.6364 97.6556 80.1671V57.1722Z" fill="white"/>
</g>
<g filter="url(#filter2_ddd_45_318)">
<path fill-rule="evenodd" clip-rule="evenodd" d="M211.64 45.9018H111.18C104.956 45.9018 99.9097 50.9477 99.9097 57.1722V80.1671C99.9097 86.3915 104.956 91.4374 111.18 91.4374H211.64C217.864 91.4374 222.91 86.3915 222.91 80.1671V57.1722C222.91 50.9477 217.864 45.9018 211.64 45.9018ZM111.18 43.6477C103.711 43.6477 97.6556 49.7028 97.6556 57.1722V80.1671C97.6556 87.6364 103.711 93.6915 111.18 93.6915H211.64C219.109 93.6915 225.164 87.6364 225.164 80.1671V57.1722C225.164 49.7028 219.109 43.6477 211.64 43.6477H111.18Z" fill="#EEF0FD"/>
</g>
<g filter="url(#filter3_ddd_45_318)">
<path d="M97.6556 113.386C97.6556 105.916 103.711 99.8613 111.18 99.8613H211.64C219.109 99.8613 225.164 105.916 225.164 113.386V136.381C225.164 143.85 219.109 149.905 211.64 149.905H111.18C103.711 149.905 97.6556 143.85 97.6556 136.381V113.386Z" fill="white"/>
</g>
<g filter="url(#filter4_ddd_45_318)">
<path fill-rule="evenodd" clip-rule="evenodd" d="M211.64 102.115H111.18C104.956 102.115 99.9097 107.161 99.9097 113.386V136.381C99.9097 142.605 104.956 147.651 111.18 147.651H211.64C217.864 147.651 222.91 142.605 222.91 136.381V113.386C222.91 107.161 217.864 102.115 211.64 102.115ZM111.18 99.8613C103.711 99.8613 97.6556 105.916 97.6556 113.386V136.381C97.6556 143.85 103.711 149.905 111.18 149.905H211.64C219.109 149.905 225.164 143.85 225.164 136.381V113.386C225.164 105.916 219.109 99.8613 211.64 99.8613H111.18Z" fill="#EEF0FD"/>
</g>
<g filter="url(#filter5_ddd_45_318)">
<path d="M97.6556 169.599C97.6556 162.13 103.711 156.075 111.18 156.075H211.64C219.109 156.075 225.164 162.13 225.164 169.599V192.594C225.164 200.063 219.109 206.119 211.64 206.119H111.18C103.711 206.119 97.6556 200.063 97.6556 192.594V169.599Z" fill="white"/>
</g>
<g filter="url(#filter6_ddd_45_318)">
<path fill-rule="evenodd" clip-rule="evenodd" d="M211.64 158.329H111.18C104.956 158.329 99.9097 163.375 99.9097 169.599V192.594C99.9097 198.819 104.956 203.864 111.18 203.864H211.64C217.864 203.864 222.91 198.819 222.91 192.594V169.599C222.91 163.375 217.864 158.329 211.64 158.329ZM111.18 156.075C103.711 156.075 97.6556 162.13 97.6556 169.599V192.594C97.6556 200.063 103.711 206.119 111.18 206.119H211.64C219.109 206.119 225.164 200.063 225.164 192.594V169.599C225.164 162.13 219.109 156.075 211.64 156.075H111.18Z" fill="#EEF0FD"/>
</g>
<path d="M197.181 23.4419C197.181 19.8174 200.119 16.8792 203.743 16.8792H218.413C222.038 16.8792 224.976 19.8174 224.976 23.4419V23.4419C224.976 27.0664 222.038 30.0046 218.413 30.0046H203.743C200.119 30.0046 197.181 27.0664 197.181 23.4419V23.4419Z" fill="#DCEAFF"/>
<path d="M102.214 56.8341C102.214 52.2502 105.93 48.5342 110.514 48.5342H210.499C215.083 48.5342 218.799 52.2502 218.799 56.8341V56.8341C218.799 61.418 215.083 65.134 210.499 65.134H110.514C105.93 65.134 102.214 61.418 102.214 56.8341V56.8341Z" fill="#E1EBFF"/>
<path d="M102.214 113.048C102.214 108.464 105.93 104.748 110.514 104.748H210.499C215.083 104.748 218.799 108.464 218.799 113.048V113.048C218.799 117.632 215.083 121.348 210.499 121.348H110.514C105.93 121.348 102.214 117.632 102.214 113.048V113.048Z" fill="#E1EBFF"/>
<path d="M102.214 169.262C102.214 164.678 105.93 160.962 110.514 160.962H210.499C215.083 160.962 218.799 164.678 218.799 169.262V169.262C218.799 173.845 215.083 177.561 210.499 177.561H110.514C105.93 177.561 102.214 173.845 102.214 169.262V169.262Z" fill="#E1EBFF"/>
<path d="M181.974 79.295C181.974 74.7517 185.657 71.0686 190.201 71.0686H210.767C215.31 71.0686 218.993 74.7517 218.993 79.295V79.295C218.993 83.8383 215.31 87.5214 210.767 87.5214H190.201C185.657 87.5214 181.974 83.8383 181.974 79.295V79.295Z" fill="#FFECAF"/>
<path d="M181.974 135.509C181.974 130.966 185.657 127.282 190.201 127.282H210.767C215.31 127.282 218.993 130.966 218.993 135.509V135.509C218.993 140.052 215.31 143.735 210.767 143.735H190.201C185.657 143.735 181.974 140.052 181.974 135.509V135.509Z" fill="#FFECAF"/>
<path d="M181.974 191.722C181.974 187.179 185.657 183.496 190.201 183.496H210.767C215.31 183.496 218.993 187.179 218.993 191.722V191.722C218.993 196.266 215.31 199.949 210.767 199.949H190.201C185.657 199.949 181.974 196.266 181.974 191.722V191.722Z" fill="#F8E5A7"/>
<path d="M201.812 23.6347C201.812 22.6752 202.59 21.8975 203.549 21.8975H218.605C219.564 21.8975 220.342 22.6752 220.342 23.6347V23.6347C220.342 24.5941 219.564 25.3718 218.605 25.3718H203.549C202.59 25.3718 201.812 24.5941 201.812 23.6347V23.6347Z" fill="#507BB4" fill-opacity="0.5"/>
<path d="M191.572 79.6379C191.572 78.3128 192.646 77.2385 193.971 77.2385H207.682C209.007 77.2385 210.081 78.3128 210.081 79.6379V79.6379C210.081 80.963 209.007 82.0372 207.682 82.0372H193.971C192.646 82.0372 191.572 80.963 191.572 79.6379V79.6379Z" fill="#B7BACE" style="mix-blend-mode:multiply"/>
<path d="M191.572 135.852C191.572 134.527 192.646 133.453 193.971 133.453H207.682C209.007 133.453 210.081 134.527 210.081 135.852V135.852C210.081 137.177 209.007 138.251 207.682 138.251H193.971C192.646 138.251 191.572 137.177 191.572 135.852V135.852Z" fill="#B7BACE" style="mix-blend-mode:multiply"/>
<path d="M191.572 192.065C191.572 190.74 192.646 189.666 193.971 189.666H207.682C209.007 189.666 210.081 190.74 210.081 192.065V192.065C210.081 193.391 209.007 194.465 207.682 194.465H193.971C192.646 194.465 191.572 193.391 191.572 192.065V192.065Z" fill="#B7BACE" style="mix-blend-mode:multiply"/>
<path d="M111.365 56.5462C111.365 55.4802 112.229 54.616 113.295 54.616H150.355C151.421 54.616 152.285 55.4802 152.285 56.5462V56.5462C152.285 57.6122 151.421 58.4764 150.355 58.4764H113.295C112.229 58.4764 111.365 57.6122 111.365 56.5462V56.5462Z" fill="#507BB4" fill-opacity="0.5"/>
<path d="M111.365 112.76C111.365 111.694 112.229 110.83 113.295 110.83H150.355C151.421 110.83 152.285 111.694 152.285 112.76V112.76C152.285 113.826 151.421 114.69 150.355 114.69H113.295C112.229 114.69 111.365 113.826 111.365 112.76V112.76Z" fill="#507BB4" fill-opacity="0.5"/>
<path d="M111.365 168.973C111.365 167.907 112.229 167.043 113.295 167.043H150.355C151.421 167.043 152.285 167.907 152.285 168.973V168.973C152.285 170.039 151.421 170.904 150.355 170.904H113.295C112.229 170.904 111.365 170.039 111.365 168.973V168.973Z" fill="#507BB4" fill-opacity="0.5"/>
<path d="M147.5 219C154.5 219 171.404 219 179.5 219L236.5 204.992L236.5 162L197 162C182.5 162 182 162 182 170C172.5 168.5 164.225 168 161 168C145.5 168 147.5 175.451 147.5 180C147.497 193.141 147.501 215.569 147.5 219Z" fill="#B7BACE" fill-opacity="0.44" style="mix-blend-mode:multiply"/>
<path d="M240.481 257.028L265 256.166L246.049 213L164 219H92.5C92.5 219 86.5316 218.29 85.5631 221.51C84.5947 224.729 87.5 226.109 87.5 226.109H146.657L166.5 277L240.481 257.028Z" fill="#1750BE" fill-opacity="0.15" style="mix-blend-mode:multiply"/>
<path d="M199.424 192.909C206.561 192.909 209.871 188.362 210.862 186.666L196.908 181.116L174.489 184.354V212.796H176.09L177.234 192.909H199.424Z" fill="#385981" fill-opacity="0.2" style="mix-blend-mode:multiply"/>
<path d="M266.131 197.543C275.693 195.511 281.361 195.541 300.541 183.976C315.393 175.06 312.762 163.516 312.762 163.516H196.782L266.131 197.543Z" fill="#FFECBA"/>
<path d="M312.942 163.516C312.942 163.516 312.942 205.226 312.942 226.749C300.379 244.571 280.152 250.215 265.142 256.209C265.142 250.526 264.835 190.015 264.835 190.015C284.072 187.244 301.039 175.673 312.942 163.516Z" fill="#FFDF95"/>
<path d="M264.834 256.209L196.781 212.395V163.516L264.834 190.35V256.209Z" fill="url(#paint0_linear_45_318)"/>
<path d="M168.035 276.743L162.755 225.703V171.729L169.795 212.488L168.035 276.743Z" fill="url(#paint1_linear_45_318)"/>
<path d="M248.821 205.732L247.088 269.345C247.088 269.345 207.841 281.657 167.527 276.765C167.796 253.789 167.94 247.167 169.275 212.581C195.186 214.152 240.13 207.637 248.821 205.732Z" fill="#FFDF95"/>
<path d="M163.01 171.383L169.275 212.581C169.275 212.581 187.451 213.701 208.428 211.616C229.404 209.531 248.821 205.732 248.821 205.732L163.01 171.383Z" fill="#FFECBA"/>
<path d="M156.998 115.578C156.999 108.502 151.392 109.008 143.296 109.008H86V155H148.28C153.884 155 156.999 152.473 156.999 147.924C157.002 134.784 156.997 119.009 156.998 115.578Z" fill="#B7BACE" fill-opacity="0.27" style="mix-blend-mode:multiply"/>
<path d="M130.997 58.5782C130.999 51.5025 124.014 52.008 113.928 52.0079H86V98H120.137C127.118 98 130.999 95.4729 130.999 90.9243C131.002 77.7837 130.997 62.009 130.997 58.5782Z" fill="#B7BACE" fill-opacity="0.42" style="mix-blend-mode:multiply"/>
<path d="M43.2351 147H142.513C144.697 147 146.468 145.377 146.468 143.375V106.625C146.468 104.623 144.697 103 142.513 103L43.2351 103C41.0506 103 54.8077 125 54.8077 125C54.8077 125 41.0506 147 43.2351 147Z" fill="url(#paint2_linear_45_318)"/>
<path d="M74.0468 125.922H68.8983V130.974H65.7859V125.922H60.6373V123.035H65.7859V117.983H68.8983V123.035H74.0468V125.922Z" fill="white"/>
<path fill-rule="evenodd" clip-rule="evenodd" d="M117.073 119.744C118.001 119.744 118.753 118.956 118.753 117.984C118.753 117.012 118.001 116.224 117.073 116.224C116.145 116.224 115.393 117.012 115.393 117.984C115.393 118.956 116.145 119.744 117.073 119.744ZM117.073 122.593C119.503 122.593 121.473 120.529 121.473 117.984C121.473 115.438 119.503 113.374 117.073 113.374C114.643 113.374 112.673 115.438 112.673 117.984C112.673 120.529 114.643 122.593 117.073 122.593Z" fill="white"/>
<path fill-rule="evenodd" clip-rule="evenodd" d="M131.938 114.548L116.98 135.344L114.734 133.729L129.693 112.933L131.938 114.548Z" fill="white"/>
<path fill-rule="evenodd" clip-rule="evenodd" d="M129.853 131.896C130.825 131.896 131.613 131.108 131.613 130.136C131.613 129.164 130.825 128.376 129.853 128.376C128.881 128.376 128.093 129.164 128.093 130.136C128.093 131.108 128.881 131.896 129.853 131.896ZM129.853 134.745C132.399 134.745 134.463 132.682 134.463 130.136C134.463 127.59 132.399 125.526 129.853 125.526C127.307 125.526 125.244 127.59 125.244 130.136C125.244 132.682 127.307 134.745 129.853 134.745Z" fill="white"/>
<path d="M81.5795 135.694V115.833L83.3432 117.636H77V114.306H85.602V135.694H81.5795Z" fill="white"/>
<path d="M98.9338 136C97.2217 136 95.6746 135.572 94.2925 134.717C92.931 133.861 91.8583 132.619 91.0744 130.989C90.2906 129.339 89.8986 127.343 89.8986 125C89.8986 122.657 90.2906 120.671 91.0744 119.042C91.8583 117.392 92.931 116.139 94.2925 115.283C95.6746 114.428 97.2217 114 98.9338 114C100.667 114 102.214 114.428 103.575 115.283C104.937 116.139 106.009 117.392 106.793 119.042C107.598 120.671 108 122.657 108 125C108 127.343 107.598 129.339 106.793 130.989C106.009 132.619 104.937 133.861 103.575 134.717C102.214 135.572 100.667 136 98.9338 136ZM98.9338 132.547C99.9446 132.547 100.821 132.282 101.564 131.753C102.307 131.203 102.884 130.368 103.297 129.247C103.73 128.127 103.947 126.711 103.947 125C103.947 123.269 103.73 121.853 103.297 120.753C102.884 119.632 102.307 118.807 101.564 118.278C100.821 117.728 99.9446 117.453 98.9338 117.453C97.9643 117.453 97.0979 117.728 96.3347 118.278C95.592 118.807 95.0041 119.632 94.5709 120.753C94.1584 121.853 93.9521 123.269 93.9521 125C93.9521 126.711 94.1584 128.127 94.5709 129.247C95.0041 130.368 95.592 131.203 96.3347 131.753C97.0979 132.282 97.9643 132.547 98.9338 132.547Z" fill="white"/>
<path d="M0.272525 91H117.816C120.348 91 122.4 89.1193 122.4 86.7984V44.2016C122.4 41.8807 120.348 40 117.816 40L0.272525 40C-2.25959 40 13.6862 65.5 13.6862 65.5C13.6862 65.5 -2.25959 91 0.272525 91Z" fill="url(#paint3_linear_45_318)"/>
<path d="M35.7131 66.5688H29.7454V72.4243H26.1379V66.5688H20.1702V63.2227H26.1379V57.3672H29.7454V63.2227H35.7131V66.5688Z" fill="white"/>
<path fill-rule="evenodd" clip-rule="evenodd" d="M89.3862 59.4073C90.4616 59.4073 91.3334 58.4939 91.3334 57.3673C91.3334 56.2406 90.4616 55.3273 89.3862 55.3273C88.3107 55.3273 87.4389 56.2406 87.4389 57.3673C87.4389 58.4939 88.3107 59.4073 89.3862 59.4073ZM89.3862 62.7101C92.2028 62.7101 94.4862 60.3181 94.4862 57.3673C94.4862 54.4165 92.2028 52.0244 89.3862 52.0244C86.5695 52.0244 84.2862 54.4165 84.2862 57.3673C84.2862 60.3181 86.5695 62.7101 89.3862 62.7101Z" fill="white"/>
<path fill-rule="evenodd" clip-rule="evenodd" d="M106.617 53.3852L89.279 77.4898L86.6761 75.6175L104.014 51.5129L106.617 53.3852Z" fill="white"/>
<path fill-rule="evenodd" clip-rule="evenodd" d="M104.201 73.4927C105.327 73.4927 106.241 72.5794 106.241 71.4527C106.241 70.3261 105.327 69.4127 104.201 69.4127C103.074 69.4127 102.161 70.3261 102.161 71.4527C102.161 72.5794 103.074 73.4927 104.201 73.4927ZM104.201 76.7956C107.151 76.7956 109.543 74.4035 109.543 71.4527C109.543 68.5019 107.151 66.1099 104.201 66.1099C101.25 66.1099 98.8577 68.5019 98.8577 71.4527C98.8577 74.4035 101.25 76.7956 104.201 76.7956Z" fill="white"/>
<path d="M36.9592 78.2041V75.0598L46.9813 65.5184C47.8225 64.7232 48.4474 64.0245 48.856 63.4221C49.2646 62.8198 49.5289 62.2656 49.6491 61.7596C49.7933 61.2295 49.8654 60.7356 49.8654 60.2778C49.8654 59.1213 49.4688 58.2298 48.6757 57.6033C47.8826 56.9528 46.717 56.6275 45.1788 56.6275C43.9531 56.6275 42.8355 56.8443 41.8261 57.278C40.8407 57.7117 39.9875 58.3743 39.2665 59.2658L35.9859 56.7359C36.9713 55.4107 38.2931 54.3867 39.9515 53.6639C41.6338 52.9169 43.5085 52.5435 45.5754 52.5435C47.4019 52.5435 48.9882 52.8446 50.3341 53.447C51.704 54.0253 52.7495 54.8565 53.4705 55.9408C54.2155 57.025 54.5881 58.3141 54.5881 59.808C54.5881 60.6272 54.4799 61.4464 54.2636 62.2656C54.0473 63.0607 53.6387 63.904 53.0379 64.7955C52.437 65.687 51.5598 66.6869 50.4062 67.7953L41.79 75.9995L40.8167 74.2285H55.5614V78.2041H36.9592Z" fill="white"/>
<path d="M68.7932 78.5656C66.7984 78.5656 64.9958 78.0596 63.3856 77.0476C61.7993 76.0356 60.5496 74.5659 59.6363 72.6383C58.723 70.6866 58.2664 68.3254 58.2664 65.5545C58.2664 62.7836 58.723 60.4344 59.6363 58.5069C60.5496 56.5552 61.7993 55.0734 63.3856 54.0614C64.9958 53.0494 66.7984 52.5435 68.7932 52.5435C70.812 52.5435 72.6145 53.0494 74.2008 54.0614C75.787 55.0734 77.0368 56.5552 77.9501 58.5069C78.8874 60.4344 79.356 62.7836 79.356 65.5545C79.356 68.3254 78.8874 70.6866 77.9501 72.6383C77.0368 74.5659 75.787 76.0356 74.2008 77.0476C72.6145 78.0596 70.812 78.5656 68.7932 78.5656ZM68.7932 74.4815C69.9708 74.4815 70.9923 74.1683 71.8575 73.5418C72.7227 72.8913 73.3956 71.9034 73.8763 70.5782C74.381 69.253 74.6334 67.5784 74.6334 65.5545C74.6334 63.5065 74.381 61.8319 73.8763 60.5308C73.3956 59.2056 72.7227 58.2298 71.8575 57.6033C70.9923 56.9528 69.9708 56.6275 68.7932 56.6275C67.6636 56.6275 66.6542 56.9528 65.7649 57.6033C64.8997 58.2298 64.2147 59.2056 63.71 60.5308C63.2293 61.8319 62.989 63.5065 62.989 65.5545C62.989 67.5784 63.2293 69.253 63.71 70.5782C64.2147 71.9034 64.8997 72.8913 65.7649 73.5418C66.6542 74.1683 67.6636 74.4815 68.7932 74.4815Z" fill="white"/>
<defs>
<filter id="filter0_dd_45_318" x="70" y="0" width="182.817" height="243.144" filterUnits="userSpaceOnUse" color-interpolation-filters="sRGB">
<feFlood flood-opacity="0" result="BackgroundImageFix"/>
<feColorMatrix in="SourceAlpha" type="matrix" values="0 0 0 0 0 0 0 0 0 0 0 0 0 0 0 0 0 0 127 0" result="hardAlpha"/>
<feOffset dy="8"/>
<feGaussianBlur stdDeviation="8"/>
<feColorMatrix type="matrix" values="0 0 0 0 0 0 0 0 0 0 0 0 0 0 0 0 0 0 0.08 0"/>
<feBlend mode="normal" in2="BackgroundImageFix" result="effect1_dropShadow_45_318"/>
<feColorMatrix in="SourceAlpha" type="matrix" values="0 0 0 0 0 0 0 0 0 0 0 0 0 0 0 0 0 0 127 0" result="hardAlpha"/>
<feOffset/>
<feGaussianBlur stdDeviation="2"/>
<feColorMatrix type="matrix" values="0 0 0 0 0 0 0 0 0 0 0 0 0 0 0 0 0 0 0.04 0"/>
<feBlend mode="normal" in2="effect1_dropShadow_45_318" result="effect2_dropShadow_45_318"/>
<feBlend mode="normal" in="SourceGraphic" in2="effect2_dropShadow_45_318" result="shape"/>
</filter>
<filter id="filter1_ddd_45_318" x="77.6556" y="33.6477" width="167.509" height="90.0437" filterUnits="userSpaceOnUse" color-interpolation-filters="sRGB">
<feFlood flood-opacity="0" result="BackgroundImageFix"/>
<feColorMatrix in="SourceAlpha" type="matrix" values="0 0 0 0 0 0 0 0 0 0 0 0 0 0 0 0 0 0 127 0" result="hardAlpha"/>
<feOffset/>
<feGaussianBlur stdDeviation="0.5"/>
<feColorMatrix type="matrix" values="0 0 0 0 0 0 0 0 0 0 0 0 0 0 0 0 0 0 0.04 0"/>
<feBlend mode="normal" in2="BackgroundImageFix" result="effect1_dropShadow_45_318"/>
<feColorMatrix in="SourceAlpha" type="matrix" values="0 0 0 0 0 0 0 0 0 0 0 0 0 0 0 0 0 0 127 0" result="hardAlpha"/>
<feOffset dy="2"/>
<feGaussianBlur stdDeviation="3"/>
<feColorMatrix type="matrix" values="0 0 0 0 0 0 0 0 0 0 0 0 0 0 0 0 0 0 0.04 0"/>
<feBlend mode="normal" in2="effect1_dropShadow_45_318" result="effect2_dropShadow_45_318"/>
<feColorMatrix in="SourceAlpha" type="matrix" values="0 0 0 0 0 0 0 0 0 0 0 0 0 0 0 0 0 0 127 0" result="hardAlpha"/>
<feOffset dy="10"/>
<feGaussianBlur stdDeviation="10"/>
<feColorMatrix type="matrix" values="0 0 0 0 0 0 0 0 0 0 0 0 0 0 0 0 0 0 0.04 0"/>
<feBlend mode="normal" in2="effect2_dropShadow_45_318" result="effect3_dropShadow_45_318"/>
<feBlend mode="normal" in="SourceGraphic" in2="effect3_dropShadow_45_318" result="shape"/>
</filter>
<filter id="filter2_ddd_45_318" x="77.6556" y="33.6477" width="167.509" height="90.0437" filterUnits="userSpaceOnUse" color-interpolation-filters="sRGB">
<feFlood flood-opacity="0" result="BackgroundImageFix"/>
<feColorMatrix in="SourceAlpha" type="matrix" values="0 0 0 0 0 0 0 0 0 0 0 0 0 0 0 0 0 0 127 0" result="hardAlpha"/>
<feOffset/>
<feGaussianBlur stdDeviation="0.5"/>
<feColorMatrix type="matrix" values="0 0 0 0 0 0 0 0 0 0 0 0 0 0 0 0 0 0 0.04 0"/>
<feBlend mode="normal" in2="BackgroundImageFix" result="effect1_dropShadow_45_318"/>
<feColorMatrix in="SourceAlpha" type="matrix" values="0 0 0 0 0 0 0 0 0 0 0 0 0 0 0 0 0 0 127 0" result="hardAlpha"/>
<feOffset dy="2"/>
<feGaussianBlur stdDeviation="3"/>
<feColorMatrix type="matrix" values="0 0 0 0 0 0 0 0 0 0 0 0 0 0 0 0 0 0 0.04 0"/>
<feBlend mode="normal" in2="effect1_dropShadow_45_318" result="effect2_dropShadow_45_318"/>
<feColorMatrix in="SourceAlpha" type="matrix" values="0 0 0 0 0 0 0 0 0 0 0 0 0 0 0 0 0 0 127 0" result="hardAlpha"/>
<feOffset dy="10"/>
<feGaussianBlur stdDeviation="10"/>
<feColorMatrix type="matrix" values="0 0 0 0 0 0 0 0 0 0 0 0 0 0 0 0 0 0 0.04 0"/>
<feBlend mode="normal" in2="effect2_dropShadow_45_318" result="effect3_dropShadow_45_318"/>
<feBlend mode="normal" in="SourceGraphic" in2="effect3_dropShadow_45_318" result="shape"/>
</filter>
<filter id="filter3_ddd_45_318" x="77.6556" y="89.8613" width="167.509" height="90.0437" filterUnits="userSpaceOnUse" color-interpolation-filters="sRGB">
<feFlood flood-opacity="0" result="BackgroundImageFix"/>
<feColorMatrix in="SourceAlpha" type="matrix" values="0 0 0 0 0 0 0 0 0 0 0 0 0 0 0 0 0 0 127 0" result="hardAlpha"/>
<feOffset/>
<feGaussianBlur stdDeviation="0.5"/>
<feColorMatrix type="matrix" values="0 0 0 0 0 0 0 0 0 0 0 0 0 0 0 0 0 0 0.04 0"/>
<feBlend mode="normal" in2="BackgroundImageFix" result="effect1_dropShadow_45_318"/>
<feColorMatrix in="SourceAlpha" type="matrix" values="0 0 0 0 0 0 0 0 0 0 0 0 0 0 0 0 0 0 127 0" result="hardAlpha"/>
<feOffset dy="2"/>
<feGaussianBlur stdDeviation="3"/>
<feColorMatrix type="matrix" values="0 0 0 0 0 0 0 0 0 0 0 0 0 0 0 0 0 0 0.04 0"/>
<feBlend mode="normal" in2="effect1_dropShadow_45_318" result="effect2_dropShadow_45_318"/>
<feColorMatrix in="SourceAlpha" type="matrix" values="0 0 0 0 0 0 0 0 0 0 0 0 0 0 0 0 0 0 127 0" result="hardAlpha"/>
<feOffset dy="10"/>
<feGaussianBlur stdDeviation="10"/>
<feColorMatrix type="matrix" values="0 0 0 0 0 0 0 0 0 0 0 0 0 0 0 0 0 0 0.04 0"/>
<feBlend mode="normal" in2="effect2_dropShadow_45_318" result="effect3_dropShadow_45_318"/>
<feBlend mode="normal" in="SourceGraphic" in2="effect3_dropShadow_45_318" result="shape"/>
</filter>
<filter id="filter4_ddd_45_318" x="77.6556" y="89.8613" width="167.509" height="90.0437" filterUnits="userSpaceOnUse" color-interpolation-filters="sRGB">
<feFlood flood-opacity="0" result="BackgroundImageFix"/>
<feColorMatrix in="SourceAlpha" type="matrix" values="0 0 0 0 0 0 0 0 0 0 0 0 0 0 0 0 0 0 127 0" result="hardAlpha"/>
<feOffset/>
<feGaussianBlur stdDeviation="0.5"/>
<feColorMatrix type="matrix" values="0 0 0 0 0 0 0 0 0 0 0 0 0 0 0 0 0 0 0.04 0"/>
<feBlend mode="normal" in2="BackgroundImageFix" result="effect1_dropShadow_45_318"/>
<feColorMatrix in="SourceAlpha" type="matrix" values="0 0 0 0 0 0 0 0 0 0 0 0 0 0 0 0 0 0 127 0" result="hardAlpha"/>
<feOffset dy="2"/>
<feGaussianBlur stdDeviation="3"/>
<feColorMatrix type="matrix" values="0 0 0 0 0 0 0 0 0 0 0 0 0 0 0 0 0 0 0.04 0"/>
<feBlend mode="normal" in2="effect1_dropShadow_45_318" result="effect2_dropShadow_45_318"/>
<feColorMatrix in="SourceAlpha" type="matrix" values="0 0 0 0 0 0 0 0 0 0 0 0 0 0 0 0 0 0 127 0" result="hardAlpha"/>
<feOffset dy="10"/>
<feGaussianBlur stdDeviation="10"/>
<feColorMatrix type="matrix" values="0 0 0 0 0 0 0 0 0 0 0 0 0 0 0 0 0 0 0.04 0"/>
<feBlend mode="normal" in2="effect2_dropShadow_45_318" result="effect3_dropShadow_45_318"/>
<feBlend mode="normal" in="SourceGraphic" in2="effect3_dropShadow_45_318" result="shape"/>
</filter>
<filter id="filter5_ddd_45_318" x="77.6556" y="146.075" width="167.509" height="90.0437" filterUnits="userSpaceOnUse" color-interpolation-filters="sRGB">
<feFlood flood-opacity="0" result="BackgroundImageFix"/>
<feColorMatrix in="SourceAlpha" type="matrix" values="0 0 0 0 0 0 0 0 0 0 0 0 0 0 0 0 0 0 127 0" result="hardAlpha"/>
<feOffset/>
<feGaussianBlur stdDeviation="0.5"/>
<feColorMatrix type="matrix" values="0 0 0 0 0 0 0 0 0 0 0 0 0 0 0 0 0 0 0.04 0"/>
<feBlend mode="normal" in2="BackgroundImageFix" result="effect1_dropShadow_45_318"/>
<feColorMatrix in="SourceAlpha" type="matrix" values="0 0 0 0 0 0 0 0 0 0 0 0 0 0 0 0 0 0 127 0" result="hardAlpha"/>
<feOffset dy="2"/>
<feGaussianBlur stdDeviation="3"/>
<feColorMatrix type="matrix" values="0 0 0 0 0 0 0 0 0 0 0 0 0 0 0 0 0 0 0.04 0"/>
<feBlend mode="normal" in2="effect1_dropShadow_45_318" result="effect2_dropShadow_45_318"/>
<feColorMatrix in="SourceAlpha" type="matrix" values="0 0 0 0 0 0 0 0 0 0 0 0 0 0 0 0 0 0 127 0" result="hardAlpha"/>
<feOffset dy="10"/>
<feGaussianBlur stdDeviation="10"/>
<feColorMatrix type="matrix" values="0 0 0 0 0 0 0 0 0 0 0 0 0 0 0 0 0 0 0.04 0"/>
<feBlend mode="normal" in2="effect2_dropShadow_45_318" result="effect3_dropShadow_45_318"/>
<feBlend mode="normal" in="SourceGraphic" in2="effect3_dropShadow_45_318" result="shape"/>
</filter>
<filter id="filter6_ddd_45_318" x="77.6556" y="146.075" width="167.509" height="90.0437" filterUnits="userSpaceOnUse" color-interpolation-filters="sRGB">
<feFlood flood-opacity="0" result="BackgroundImageFix"/>
<feColorMatrix in="SourceAlpha" type="matrix" values="0 0 0 0 0 0 0 0 0 0 0 0 0 0 0 0 0 0 127 0" result="hardAlpha"/>
<feOffset/>
<feGaussianBlur stdDeviation="0.5"/>
<feColorMatrix type="matrix" values="0 0 0 0 0 0 0 0 0 0 0 0 0 0 0 0 0 0 0.04 0"/>
<feBlend mode="normal" in2="BackgroundImageFix" result="effect1_dropShadow_45_318"/>
<feColorMatrix in="SourceAlpha" type="matrix" values="0 0 0 0 0 0 0 0 0 0 0 0 0 0 0 0 0 0 127 0" result="hardAlpha"/>
<feOffset dy="2"/>
<feGaussianBlur stdDeviation="3"/>
<feColorMatrix type="matrix" values="0 0 0 0 0 0 0 0 0 0 0 0 0 0 0 0 0 0 0.04 0"/>
<feBlend mode="normal" in2="effect1_dropShadow_45_318" result="effect2_dropShadow_45_318"/>
<feColorMatrix in="SourceAlpha" type="matrix" values="0 0 0 0 0 0 0 0 0 0 0 0 0 0 0 0 0 0 127 0" result="hardAlpha"/>
<feOffset dy="10"/>
<feGaussianBlur stdDeviation="10"/>
<feColorMatrix type="matrix" values="0 0 0 0 0 0 0 0 0 0 0 0 0 0 0 0 0 0 0.04 0"/>
<feBlend mode="normal" in2="effect2_dropShadow_45_318" result="effect3_dropShadow_45_318"/>
<feBlend mode="normal" in="SourceGraphic" in2="effect3_dropShadow_45_318" result="shape"/>
</filter>
<linearGradient id="paint0_linear_45_318" x1="265" y1="195.5" x2="203" y2="215.5" gradientUnits="userSpaceOnUse">
<stop stop-color="#F9D47D"/>
<stop offset="1" stop-color="#F2C55B"/>
</linearGradient>
<linearGradient id="paint1_linear_45_318" x1="169.813" y1="207.964" x2="162.737" y2="208.173" gradientUnits="userSpaceOnUse">
<stop stop-color="#F9D47D"/>
<stop offset="1" stop-color="#F2C55B"/>
</linearGradient>
<linearGradient id="paint2_linear_45_318" x1="146.129" y1="147" x2="49.3849" y2="115.819" gradientUnits="userSpaceOnUse">
<stop stop-color="#9E91F1"/>
<stop offset="1" stop-color="#4C7EF2"/>
</linearGradient>
<linearGradient id="paint3_linear_45_318" x1="122" y1="91" x2="8" y2="53.5" gradientUnits="userSpaceOnUse">
<stop stop-color="#9E91F1"/>
<stop offset="1" stop-color="#4C7EF2"/>
</linearGradient>
</defs>
</svg>
