<svg width="422" height="350" viewBox="0 0 422 350" fill="none" xmlns="http://www.w3.org/2000/svg">
<path d="M134 326H301.5" stroke="#B2B5CC"/>
<g filter="url(#filter0_f_1601_734)">
<circle cx="228" cy="164" r="124" fill="#549BFA" fill-opacity="0.3"/>
</g>
<rect width="70.34" height="40.5676" transform="matrix(-1 0 0 1 250.708 227.297)" fill="#1A3260"/>
<path d="M212.606 295.71C212.548 299.392 212.49 303.22 212.403 307.077H176.991C176.933 302.843 176.875 298.783 176.846 294.985C176.73 284.662 176.73 276.194 176.73 270.917C176.73 267.176 176.759 265.059 176.759 265.059L215.876 267.866C215.876 267.866 212.867 267.814 212.838 272.917C212.809 278.543 212.722 286.662 212.606 295.71Z" fill="#243C69"/>
<path d="M215.538 267.865C212.156 269.556 212.746 283.738 212.602 295.518C201.555 296.617 189.443 296.655 177.101 294.571C176.986 281.087 176.986 270.026 176.986 263.133L215.538 267.865Z" fill="#1A3260"/>
<path d="M257.233 287.561C257.204 293.331 257.117 299.943 257.001 307.076H221.59C221.503 302.9 221.445 298.783 221.387 294.868C221.271 286.43 221.213 278.832 221.184 273.352C221.155 267.987 217.567 267.865 217.567 267.865L257.262 265.058C257.262 265.058 257.291 268.886 257.291 275.353C257.262 278.716 257.262 282.863 257.233 287.561Z" fill="#243C69"/>
<path d="M257.471 263.47C257.471 268.202 257.442 278.351 257.413 284.847C250.143 287.774 237.262 292.344 221.287 294.91C221.17 283.243 221.963 269.556 217.567 267.927L257.471 263.47Z" fill="#1A3260"/>
<path d="M237.554 74.5733C237.554 74.5733 243.234 69.0927 243.234 63.6701C243.205 58.2476 239.525 59.8425 237.554 54.7969C235.584 49.7513 229.73 46.6775 226.484 47.2865C223.268 47.8954 216.487 35.3395 207.272 37.5723C198.057 39.7761 198.868 51.6071 194.898 53.318C190.928 55.0288 192.029 62.0463 194.116 63.6701C196.202 65.265 197.1 71.7025 198.259 71.5575C199.477 71.4125 237.554 74.5733 237.554 74.5733Z" fill="#243C69"/>
<path d="M236.194 74.4284C236.194 74.4284 239.758 69.6438 242.424 73.6165C245.09 77.5602 241.323 89.2172 234.803 86.3755L236.194 74.4284Z" fill="#DBA17A"/>
<path d="M236.252 82.7801C236.484 82.7801 236.715 82.6351 236.773 82.3742C237.788 78.7785 241.497 77.3286 241.555 77.2996C241.845 77.1836 241.99 76.8646 241.874 76.6036C241.758 76.3137 241.439 76.1687 241.178 76.2847C241.004 76.3427 236.889 77.9375 235.73 82.0842C235.643 82.3742 235.817 82.6931 236.107 82.7511C236.165 82.7511 236.194 82.7801 236.252 82.7801Z" fill="#D29165"/>
<path d="M240.019 80.9528C240.135 80.9528 240.222 80.9238 240.309 80.8658C240.57 80.6918 240.628 80.3728 240.483 80.1118C240.454 80.0829 239.788 79.0679 238.426 78.459C238.136 78.343 237.817 78.459 237.701 78.749C237.585 79.0389 237.701 79.3579 237.991 79.4739C239.063 79.9379 239.585 80.7208 239.585 80.7208C239.643 80.8658 239.817 80.9528 240.019 80.9528Z" fill="#D29165"/>
<path d="M199.334 74.4284C199.334 74.4284 195.769 69.6438 193.103 73.6165C190.437 77.5602 194.205 89.2172 200.725 86.3755L199.334 74.4284Z" fill="#DBA17A"/>
<path d="M199.305 82.7801C199.073 82.7801 198.841 82.6351 198.783 82.3742C197.769 78.7785 194.06 77.3286 194.002 77.2996C193.712 77.1836 193.567 76.8646 193.683 76.6036C193.799 76.3137 194.118 76.1687 194.379 76.2847C194.553 76.3427 198.668 77.9375 199.827 82.0842C199.914 82.3742 199.74 82.6931 199.45 82.7511C199.392 82.7511 199.334 82.7801 199.305 82.7801Z" fill="#D29165"/>
<path d="M195.538 80.9528C195.422 80.9528 195.335 80.9238 195.248 80.8658C194.987 80.6918 194.929 80.3728 195.074 80.1118C195.103 80.0829 195.77 79.0679 197.132 78.459C197.421 78.343 197.74 78.459 197.856 78.749C197.972 79.0389 197.856 79.3579 197.566 79.4739C196.494 79.9379 195.973 80.7208 195.973 80.7208C195.886 80.8658 195.712 80.9528 195.538 80.9528Z" fill="#D29165"/>
<path d="M208.955 96.2637L208.436 110.328C208.436 110.328 212.403 113.778 217.069 114.155C221.734 114.561 226.697 110.328 226.697 110.328L225.878 97.0756L208.955 96.2637Z" fill="#E4BC94"/>
<path d="M196.754 66.4831C196.957 70.9778 197.392 76.6323 198.261 81.127C198.464 82.2579 198.725 83.3018 198.985 84.2587C201.42 92.813 207.534 107.457 224.602 101.338C232.137 98.6415 235.643 90.2322 237.208 81.7069C238.251 75.9074 238.425 70.0499 238.338 65.8452C238.251 61.5536 235.933 57.6679 232.195 55.551C222.11 49.8385 211.475 51.9553 204.491 54.6521C199.623 56.508 196.493 61.2926 196.754 66.4831Z" fill="#F5C799"/>
<path d="M237.196 81.4192C237.196 81.4192 235.437 91.2572 233.857 94.8838C232.278 98.5103 227.95 99.2123 226.342 102.254C224.032 106.641 220.523 110.092 214.703 107.986C209.878 106.231 210.112 103.775 207.393 101.844C202.772 98.5688 200.462 94.9715 200.287 92.0176C200.111 89.0345 198.249 80.9715 198.249 80.9715L200.487 80.0762C200.487 80.0762 201.69 83.4484 203.796 86.6948C205.872 82.1031 215.961 85.4372 215.961 85.4372L217.891 86.0514L219.85 85.4372C219.85 85.4372 230.027 82.2493 232.044 87.0458C233.273 85.174 234.49 82.7758 234.957 80.5238L237.196 81.4192ZM217.862 87.6014C206.311 85.6127 208.387 92.3686 208.445 92.6318C209.235 93.363 210.024 94.0064 210.814 94.4159C215.288 96.8433 215.756 96.4631 217.54 96.5508C219.324 96.6386 221.809 96.1121 224.324 94.7083C225.114 94.2696 226.284 93.4215 227.57 92.2516C227.57 92.2516 229.383 86.0514 217.862 87.6014Z" fill="#243C69"/>
<path d="M226.428 78.1685C225.644 78.1685 225.008 77.1688 225.008 75.9357C225.008 74.7025 225.644 73.7029 226.428 73.7029C227.212 73.7029 227.848 74.7025 227.848 75.9357C227.848 77.1688 227.212 78.1685 226.428 78.1685Z" fill="#243C69"/>
<path d="M209.505 78.1685C208.721 78.1685 208.085 77.1688 208.085 75.9357C208.085 74.7025 208.721 73.7029 209.505 73.7029C210.289 73.7029 210.925 74.7025 210.925 75.9357C210.925 77.1688 210.289 78.1685 209.505 78.1685Z" fill="#243C69"/>
<path d="M203.912 68.5707C203.912 68.5707 209.795 66.2509 214.315 68.1937L213.852 70.7165C213.852 70.7165 207.215 70.1656 203.854 71.4995C203.564 70.5426 203.506 69.5566 203.912 68.5707Z" fill="#243C69"/>
<path d="M231.876 68.5708C231.876 68.5708 225.965 66.222 221.386 68.1938L221.85 70.7456C221.85 70.7456 228.544 70.1656 231.934 71.5575C232.195 70.5716 232.253 69.5857 231.876 68.5708Z" fill="#243C69"/>
<path d="M217.286 85.3314C218.213 85.3314 219.141 84.9834 219.285 84.9254C219.575 84.8094 219.691 84.4904 219.575 84.2005C219.459 83.9105 219.141 83.7945 218.851 83.9105C218.358 84.1135 217.17 84.4324 216.648 84.1135C216.561 84.0555 216.417 83.9395 216.388 83.5915C216.185 81.6777 216.706 75.2112 216.706 75.1532C216.735 74.8632 216.504 74.5733 216.214 74.5733C215.924 74.5443 215.634 74.7762 215.634 75.0662C215.605 75.3272 215.084 81.6777 215.315 83.7075C215.402 84.4614 215.808 84.8674 216.127 85.0414C216.446 85.2734 216.88 85.3314 217.286 85.3314Z" fill="#DBA17A"/>
<path d="M224.602 89.072C224.197 91.1889 222.806 95.0455 218.111 95.0455C213.417 95.0455 212.113 91.5078 211.649 89.072H224.602Z" fill="white"/>
<path d="M196.755 66.4833C196.958 70.978 197.392 76.6325 198.262 81.1271L200.725 80.9532C200.725 80.9532 200.116 77.1545 199.856 74.6607C199.595 72.1959 199.102 67.5563 201.218 66.9763C203.333 66.3963 202.087 61.1188 205.014 58.828C207.941 56.5372 214.461 54.5073 218.778 57.1751C223.096 59.8429 228.023 58.364 230.022 58.828C232.022 59.2919 234.717 62.0467 233.992 64.5985C233.268 67.1503 235.47 68.7162 235.992 71.3839C236.513 74.0517 234.833 81.2141 234.833 81.2141L237.18 81.6781C238.223 75.8786 238.397 70.0211 238.31 65.8164C238.223 61.5247 235.905 57.6391 232.166 55.5222C222.082 49.8097 211.447 51.9265 204.463 54.6233C199.624 56.5082 196.494 61.2928 196.755 66.4833Z" fill="#243C69"/>
<path d="M234.475 112.751C234.061 114.347 239.508 115.816 238.831 118.173C238.643 118.876 238.417 119.599 238.191 120.359C237.514 122.792 236.798 125.454 236.196 128.153C236.046 128.876 235.895 129.598 235.745 130.32C235.218 132.982 234.804 135.624 234.653 138.076C234.615 138.818 234.578 139.54 234.578 140.243C234.578 142.125 234.804 143.836 235.255 145.319C235.556 146.25 235.782 147.163 236.008 148.056C236.196 148.798 236.347 149.52 236.497 150.242C237.062 153.018 237.363 155.603 237.438 158.017C237.476 158.759 237.476 159.481 237.438 160.185C237.401 162.941 237.099 165.526 236.648 167.96C236.497 168.701 236.347 169.423 236.196 170.127C235.594 172.807 234.879 175.354 234.201 177.864C234.013 178.586 233.825 179.308 233.637 180.031C233.336 181.19 233.072 182.331 232.809 183.49C232.545 184.726 232.395 186.152 232.32 187.749C232.282 188.452 232.244 189.174 232.244 189.935C232.207 192.311 232.357 194.953 232.583 197.729C232.658 198.451 232.696 199.173 232.771 199.915C232.997 202.481 233.336 205.124 233.712 207.728C233.825 208.469 233.938 209.192 234.051 209.914C234.465 212.632 234.879 215.275 235.331 217.727C235.481 218.468 235.594 219.21 235.745 219.913C236.271 222.612 236.761 225.027 237.175 226.928C227.314 227.308 217.491 227.403 207.63 227.175C207.404 225.141 206.764 221.852 206.162 217.974C206.049 217.271 205.936 216.529 205.823 215.788C205.447 213.317 205.108 210.693 204.882 208.032C204.807 207.31 204.769 206.568 204.732 205.846C204.581 203.185 204.581 200.561 204.807 198.09C204.882 197.349 204.957 196.607 205.07 195.885C205.183 195.162 205.334 194.44 205.484 193.756C205.974 191.817 206.124 189.954 206.124 188.11C206.124 187.387 206.086 186.646 206.011 185.924C205.785 183.395 205.258 180.867 204.619 178.168C204.468 177.445 204.28 176.723 204.092 175.982C203.527 173.586 202.925 171.058 202.473 168.283C202.36 167.579 202.247 166.838 202.135 166.097C201.796 163.72 201.57 161.154 201.57 158.36C201.57 157.637 201.57 156.915 201.57 156.154C201.608 153.74 201.833 151.155 202.21 148.38C202.247 148.132 202.285 147.885 202.323 147.638C202.398 147.144 202.473 146.669 202.511 146.174C202.774 143.646 202.699 141.023 202.398 138.418C202.323 137.696 202.21 136.955 202.097 136.232C201.683 133.628 201.118 131.043 200.441 128.571C200.253 127.83 200.027 127.108 199.839 126.385C199.048 123.667 198.183 121.12 197.355 118.838C197.091 118.097 196.828 117.375 196.602 116.671C196.075 115.132 199.644 114.227 199.305 113.067C204.378 111.168 205.839 109.885 208.436 108.953C210.465 112.128 212.034 112.82 217.566 113.067C219.757 113.163 226.359 111.685 226.359 108.637C228.805 109.473 230.417 111.168 234.475 112.751Z" fill="#E5F1FF"/>
<path d="M226.897 219.109L217.767 226.884L209.312 218.859L216.602 122.423L219.717 122.473L226.897 219.109Z" fill="#FF9933"/>
<path d="M220.735 125.127H215.369C214.815 125.127 214.027 123.327 214.027 122.787L212.695 114.907C212.695 114.366 213.148 113.973 213.701 113.973L222.524 113.633C223.077 113.633 223.516 114.563 223.516 115.103L222.076 123.223C222.026 123.714 221.289 125.127 220.735 125.127Z" fill="#FF9933"/>
<path fill-rule="evenodd" clip-rule="evenodd" d="M202.666 277.122C191.538 276.281 180.381 274.454 169.254 271.642C169.138 262.884 169.022 245.633 169.428 215.823C169.428 214.634 169.428 213.445 169.456 212.256C169.456 210.662 169.485 209.038 169.514 207.414V206.428C169.514 206.094 169.522 205.768 169.529 205.442C169.536 205.116 169.543 204.79 169.543 204.456C169.659 196.221 169.804 188.014 170.007 180.243V179.895C170.007 178.996 170.036 178.097 170.065 177.198V176.966C170.674 154.783 171.688 136.457 173.311 130.947C173.484 130.309 173.687 129.845 173.89 129.555C176.643 125.757 185.8 120.682 194.32 116.158C194.552 116.042 194.776 115.919 195.001 115.796C195.226 115.673 195.45 115.549 195.682 115.433C196.899 114.795 198.116 114.157 199.275 113.549L210.326 167.08L208.78 277.499C207.244 277.441 205.709 277.354 204.173 277.238C203.926 277.224 203.673 277.202 203.419 277.18C203.166 277.158 202.912 277.137 202.666 277.122ZM231.528 277.122L224.889 167.08L234.107 112.824C234.501 113.038 234.9 113.257 235.304 113.478C236.535 114.152 237.811 114.851 239.121 115.549C239.384 115.707 239.658 115.855 239.936 116.005C240.117 116.102 240.3 116.2 240.483 116.303C248.162 120.508 255.57 123.846 258.236 127.529C261.018 131.357 263.202 170.993 264.013 208.719C264.1 212.198 264.158 215.649 264.216 219.1C264.738 247.75 264.825 263.319 264.738 271.671C255.696 273.961 246.626 275.585 237.585 276.571C237.339 276.6 237.092 276.622 236.846 276.644C236.6 276.665 236.353 276.687 236.107 276.716L235.739 276.751C234.33 276.884 232.941 277.016 231.528 277.122Z" fill="#216DC7"/>
<path d="M226.5 198V186.5L225.5 183.5H263L264 197L226.5 198Z" fill="url(#paint0_linear_1601_734)" style="mix-blend-mode:multiply"/>
<path d="M222.783 194.529C220.615 191.397 219.614 191.474 214.321 188.956C212.815 188.24 210.304 189.459 210.304 189.459C206.924 190.503 205.712 190.302 200.714 192.393C200.714 192.393 200.341 197.38 202.838 208.984C204.689 209.391 211.577 210.374 222.604 207.729C222.604 207.729 226.798 207.735 237.631 207.575L237.447 194.335L222.783 194.529Z" fill="#F5C799"/>
<path d="M201.641 205.211C204.47 205.354 210.173 204.085 210.173 204.085C211.07 204.024 211.811 203.319 211.829 202.509C211.847 201.699 211.134 201.091 210.237 201.151C210.237 201.151 203.3 200.764 201.715 201C199.162 201.379 199.566 205.106 201.641 205.211Z" fill="#F5C799"/>
<path d="M200.919 201.091C203.775 201.241 210.211 200.1 210.211 200.1C211.099 200.055 211.808 199.356 211.794 198.54C211.781 197.724 211.05 197.1 210.162 197.145C210.162 197.145 202.735 196.647 200.739 196.64C198.743 196.633 198.779 200.978 200.919 201.091V201.091Z" fill="#F5C799"/>
<path d="M201.536 208.642C204.624 209.769 209.666 208.853 210.729 207.643C210.973 207.402 211.125 207.095 211.13 206.78C211.134 206.465 210.992 206.2 210.761 206.027C210.529 205.852 210.208 205.777 209.851 205.82C206.614 206.054 205.474 205.604 202.303 205.332C200.732 205.197 200.153 208.138 201.536 208.642Z" fill="#F5C799"/>
<path d="M200.811 196.553C203.654 197.247 209.904 196.981 209.904 196.981C210.817 197.083 211.644 196.434 211.751 195.532C211.858 194.63 211.205 193.816 210.293 193.715C210.293 193.715 203.087 192.326 201.459 192.29C198.838 192.233 198.726 196.045 200.811 196.553Z" fill="#F5C799"/>
<path d="M200.714 192.393L200.714 192.394C200.324 192.52 200.02 192.753 199.8 193.048C198.959 194.173 199.333 196.193 200.811 196.553C200.826 196.557 200.842 196.561 200.858 196.564C200.86 196.59 200.863 196.616 200.864 196.642C200.821 196.641 200.779 196.641 200.739 196.641C198.743 196.633 198.779 200.978 200.919 201.091C201.036 201.097 201.159 201.101 201.288 201.103C199.216 201.813 199.69 205.112 201.64 205.211C201.781 205.218 201.928 205.221 202.081 205.222C202.088 205.259 202.095 205.295 202.102 205.332C200.685 205.451 200.214 208.16 201.536 208.643C201.941 208.79 202.379 208.903 202.837 208.984C203.32 209.09 204.147 209.235 205.3 209.346C204.899 209.119 204.364 208.793 204.113 208.374C203.657 207.614 203.652 206.511 203.863 205.592C203.92 205.345 203.838 205.087 203.649 204.918C202.786 204.148 202.66 202.569 203.267 201.568C203.42 201.315 203.398 200.999 203.216 200.767C202.37 199.685 202.391 197.937 203.039 196.952C203.183 196.732 203.185 196.446 203.047 196.222C202.599 195.493 202.584 193.841 202.719 193.083C202.79 192.685 202.867 192.363 202.349 192.489C201.828 192.614 200.81 192.727 200.714 192.393V192.393Z" fill="#F5C799"/>
<path d="M202.399 195.629C202.548 195.881 202.695 195.978 202.752 195.929C202.815 195.877 202.786 195.698 202.743 195.445C202.732 195.38 202.719 195.312 202.709 195.238C202.696 195.166 202.688 195.088 202.675 195.007C202.657 194.843 202.641 194.665 202.634 194.477C202.629 194.289 202.634 194.111 202.643 193.946C202.65 193.865 202.653 193.786 202.662 193.712C202.667 193.638 202.676 193.569 202.683 193.504C202.71 193.248 202.727 193.067 202.662 193.02C202.602 192.976 202.461 193.084 202.328 193.347C202.296 193.412 202.262 193.486 202.235 193.57C202.204 193.652 202.182 193.744 202.158 193.842C202.118 194.039 202.095 194.263 202.1 194.498C202.109 194.733 202.146 194.955 202.199 195.148C202.228 195.243 202.256 195.334 202.292 195.414C202.325 195.495 202.363 195.567 202.399 195.629V195.629Z" fill="#DBA17A"/>
<path d="M202.618 200.2C202.662 200.261 202.713 200.31 202.755 200.352C202.798 200.395 202.84 200.426 202.878 200.449C202.952 200.494 203.006 200.505 203.033 200.481C203.092 200.429 203.029 200.26 202.948 200.011C202.938 199.98 202.927 199.948 202.916 199.914C202.905 199.88 202.896 199.844 202.886 199.808C202.862 199.736 202.846 199.657 202.824 199.576C202.789 199.411 202.757 199.23 202.74 199.038C202.725 198.845 202.726 198.661 202.734 198.493C202.742 198.409 202.745 198.328 202.756 198.253C202.761 198.216 202.763 198.179 202.768 198.144C202.774 198.108 202.779 198.074 202.784 198.042C202.822 197.783 202.856 197.605 202.79 197.564C202.759 197.545 202.708 197.566 202.642 197.623C202.609 197.652 202.572 197.69 202.538 197.739C202.503 197.788 202.461 197.844 202.428 197.913C202.41 197.947 202.392 197.983 202.375 198.021C202.357 198.059 202.343 198.1 202.327 198.143C202.293 198.227 202.271 198.321 202.248 198.421C202.208 198.621 202.19 198.848 202.208 199.084C202.229 199.32 202.285 199.54 202.357 199.731C202.397 199.825 202.434 199.914 202.481 199.991C202.504 200.03 202.524 200.068 202.548 200.103C202.572 200.137 202.596 200.17 202.618 200.2Z" fill="#DBA17A"/>
<path d="M203.568 204.662C203.624 204.607 203.552 204.44 203.455 204.192C203.442 204.161 203.43 204.129 203.416 204.095C203.403 204.062 203.392 204.025 203.379 203.989C203.35 203.918 203.328 203.838 203.301 203.757C203.253 203.593 203.208 203.412 203.175 203.218C203.145 203.024 203.13 202.837 203.124 202.665C203.124 202.58 203.119 202.497 203.124 202.42C203.125 202.381 203.124 202.344 203.126 202.308C203.128 202.272 203.13 202.237 203.132 202.203C203.146 201.936 203.161 201.754 203.09 201.721C203.028 201.691 202.884 201.825 202.765 202.112C202.751 202.148 202.737 202.186 202.722 202.226C202.708 202.266 202.698 202.308 202.687 202.352C202.661 202.44 202.648 202.537 202.633 202.639C202.611 202.843 202.612 203.072 202.649 203.308C202.689 203.543 202.76 203.759 202.845 203.946C202.891 204.037 202.934 204.124 202.986 204.199C203.012 204.237 203.034 204.274 203.06 204.307C203.086 204.339 203.112 204.371 203.137 204.4C203.34 204.631 203.518 204.711 203.568 204.662V204.662Z" fill="#DBA17A"/>
<path d="M204.067 208.169C204.032 208.066 203.995 207.946 203.956 207.815C203.919 207.682 203.882 207.537 203.85 207.383C203.82 207.229 203.8 207.081 203.783 206.944C203.769 206.807 203.757 206.681 203.75 206.573C203.732 206.357 203.713 206.206 203.64 206.183C203.573 206.16 203.46 206.279 203.376 206.518C203.334 206.636 203.304 206.784 203.292 206.951C203.282 207.117 203.291 207.303 203.328 207.493C203.366 207.682 203.429 207.856 203.501 208.005C203.576 208.154 203.66 208.278 203.744 208.37C203.913 208.557 204.062 208.62 204.115 208.572C204.173 208.522 204.133 208.375 204.067 208.169V208.169Z" fill="#DBA17A"/>
<path d="M202.78 196.717C202.786 196.628 202.352 196.531 201.811 196.498C201.271 196.466 200.829 196.511 200.823 196.599C200.818 196.687 201.252 196.785 201.792 196.817C202.333 196.85 202.775 196.805 202.78 196.717Z" fill="#DBA17A"/>
<path d="M203.175 201.042C203.17 200.954 202.729 200.907 202.19 200.937C201.651 200.967 201.218 201.063 201.223 201.152C201.228 201.24 201.669 201.287 202.208 201.256C202.747 201.226 203.18 201.13 203.175 201.042V201.042Z" fill="#DBA17A"/>
<path d="M202.902 205.175C202.48 205.171 202.138 205.239 202.137 205.327C202.136 205.416 202.477 205.491 202.899 205.495C203.32 205.499 203.663 205.431 203.663 205.343C203.664 205.254 203.323 205.179 202.902 205.175Z" fill="#DBA17A"/>
<path d="M223.433 192.565L225.429 192.99L225.125 210.62L220.837 210.533L223.433 192.565Z" fill="white"/>
<path d="M149.827 136.171C149.827 136.171 125.951 123.67 120.728 107.037C119.205 102.217 143.1 61.3992 143.1 61.3992L151.535 63.5291C151.535 63.5291 146.93 78.4358 144.208 86.8659C141.981 93.7891 138.83 101.959 137.761 104.669C137.523 105.252 137.415 105.574 137.415 105.574C137.83 105.717 138.241 105.887 138.652 106.057C150.005 110.623 163.876 120.672 163.876 120.672L149.827 136.171Z" fill="#FFD4AA"/>
<path d="M130.79 108.85C130.405 108.988 129.936 108.797 129.702 108.432C129.469 108.066 129.609 107.663 129.991 107.549C131.915 106.884 134.785 106.269 137.769 105.732C137.554 106.246 137.459 106.532 137.459 106.532C137.871 106.684 138.281 106.86 138.69 107.037C135.614 107.577 132.71 108.21 130.79 108.85Z" fill="#EDC094"/>
<path d="M199 113.5C199 113.5 195.62 148.902 175.457 153.996C167.382 149.513 138.287 130.36 121.758 116.488C106.244 105.069 137.076 58.68 137.076 58.68L154.937 68.0286C154.937 68.0286 144.058 87.7774 141.575 98.4821C140.796 101.84 141.245 103.212 144.967 105.817C149.505 108.992 156.863 116.57 169.441 118.741C177.326 120.102 187.099 116.641 199 113.5Z" fill="#216DC7"/>
<path d="M152.425 35.8668C153.109 36.4937 152.533 39.4659 151.805 42.2065C151.921 42.2589 152.011 42.2775 152.127 42.3299C153.561 38.7611 156.21 32.7234 157.569 34.2614C158.446 35.2713 156.344 40.5056 154.973 43.6295C155.146 43.7221 155.318 43.8147 155.521 43.9135C157.218 40.2272 160.75 33.1975 162.164 35.0042C163.108 36.1994 160.092 42.4195 158.44 45.5714C158.582 45.6578 158.754 45.7504 158.897 45.8369C160.474 42.7839 163.73 37.0426 165.144 38.8494C166.427 40.4862 160.888 49.0213 160.888 49.0213L159.252 52.4913C159.252 52.4913 160.499 53.291 162.846 51.5693C165.193 49.8476 167.712 49.964 165.558 52.7267C163.138 55.8356 159.925 57.7801 158.312 59.9958C156.699 62.2115 152.645 62.2378 152.645 62.2378L144.764 60.2481C144.764 60.2481 144.989 47.5321 148.77 42.2416C149.755 38.7811 151.221 34.7613 152.425 35.8668Z" fill="#FFD4AA"/>
<path d="M263.093 175.179C260.427 170.8 258.329 164.729 255.634 160.757L255.605 160.728C254.475 159.075 253.374 157.509 252.301 156.059C252.272 156.03 252.272 156.001 252.243 155.972C251.925 155.508 251.577 155.073 251.258 154.667C251.2 154.58 251.171 154.522 251.142 154.435C251.055 154.145 251.142 153.826 251.403 153.623C251.722 153.362 252.186 153.449 252.446 153.768C255.692 158.089 258.486 155.568 262.427 161.86C262.427 166.23 263.093 170.778 263.093 175.179Z" fill="#0B5AA8"/>
<path fill-rule="evenodd" clip-rule="evenodd" d="M240.77 138.752C240.77 138.752 240.771 138.753 248.654 132.333C256.538 125.913 256.539 125.914 256.54 125.915L256.542 125.918L256.571 125.954C256.59 125.977 256.616 126.009 256.65 126.051C256.717 126.134 256.814 126.254 256.939 126.409C257.188 126.718 257.547 127.167 258.001 127.74C258.908 128.885 260.195 130.528 261.737 132.545C264.812 136.569 268.933 142.126 273.072 148.215C277.186 154.266 281.449 161.033 284.724 167.445C287.758 173.387 290.838 180.68 290.838 187.227C290.838 196.095 285.21 201.825 279.603 205.036C274.211 208.124 267.515 209.784 261.244 210.767C248.515 212.76 233.624 212.506 224.162 212.162L224.901 191.845C234.291 192.187 247.468 192.346 258.096 190.681C263.502 189.835 267.307 188.648 269.495 187.395C269.975 187.12 270.28 186.906 270.469 186.755C270.283 185.213 269.265 181.888 266.61 176.688C263.882 171.345 260.142 165.364 256.252 159.642C252.387 153.958 248.504 148.717 245.577 144.887C244.117 142.977 242.903 141.428 242.059 140.363C241.638 139.831 241.309 139.421 241.089 139.147C240.979 139.01 240.896 138.908 240.842 138.841C240.816 138.808 240.796 138.784 240.784 138.769L240.77 138.752ZM270.736 186.485C270.745 186.485 270.723 186.524 270.644 186.601C270.688 186.523 270.727 186.484 270.736 186.485Z" fill="#216DC7"/>
<ellipse rx="6.24698" ry="6.69102" transform="matrix(-1 0 0 1 241.247 154.691)" fill="#216DC7"/>
<path fill-rule="evenodd" clip-rule="evenodd" d="M244.807 154.755C244.582 154.871 244.385 155.045 244.287 155.276C244.259 155.349 244.203 155.32 244.203 155.262C244.189 155.218 244.189 155.146 244.175 155.045C244.02 154.09 243.402 153.121 242.63 152.643C242.462 152.528 242.321 152.47 242.223 152.412C242.139 152.368 242.125 152.267 242.265 152.282C242.588 152.311 243.473 152.6 244.119 153.019C244.751 153.439 245.312 154.003 245.705 154.669C245.719 154.698 245.691 154.741 245.663 154.727C245.551 154.698 245.214 154.553 244.807 154.755ZM242.967 157.924C242.771 157.779 242.518 157.692 242.265 157.721C242.195 157.721 242.181 157.678 242.237 157.634C242.279 157.606 242.321 157.562 242.405 157.49C243.122 156.868 243.627 155.841 243.641 154.9C243.641 154.698 243.627 154.524 243.627 154.423C243.627 154.321 243.697 154.264 243.754 154.394C243.88 154.698 244.091 155.638 244.062 156.434C244.034 157.215 243.824 157.996 243.473 158.676C243.459 158.705 243.416 158.691 243.402 158.662C243.388 158.546 243.346 158.184 242.967 157.924ZM239.414 157.851C239.429 157.606 239.386 157.331 239.246 157.128C239.204 157.07 239.246 157.041 239.302 157.056C239.344 157.07 239.4 157.099 239.499 157.143C240.383 157.475 241.493 157.417 242.279 156.969C242.462 156.868 242.588 156.781 242.672 156.723C242.757 156.665 242.841 156.709 242.757 156.824C242.56 157.099 241.886 157.75 241.212 158.112C240.538 158.474 239.794 158.676 239.035 158.705C239.007 158.705 238.993 158.662 239.007 158.633C239.092 158.531 239.386 158.314 239.414 157.851ZM237.687 154.625C237.912 154.51 238.109 154.336 238.207 154.104C238.235 154.032 238.291 154.061 238.291 154.119C238.305 154.162 238.305 154.235 238.319 154.336C238.474 155.291 239.092 156.26 239.864 156.737C240.032 156.853 240.173 156.911 240.271 156.969C240.355 157.012 240.369 157.114 240.229 157.099C239.906 157.07 239.021 156.781 238.375 156.361C237.743 155.942 237.182 155.378 236.789 154.712C236.775 154.683 236.803 154.64 236.831 154.654C236.957 154.683 237.28 154.828 237.687 154.625ZM239.527 151.457C239.723 151.602 239.976 151.688 240.229 151.66C240.299 151.66 240.313 151.703 240.257 151.746C240.215 151.775 240.173 151.819 240.089 151.891C239.372 152.513 238.867 153.54 238.853 154.481C238.853 154.683 238.867 154.857 238.867 154.958C238.867 155.059 238.797 155.117 238.74 154.987C238.614 154.683 238.403 153.743 238.432 152.947C238.46 152.166 238.67 151.385 239.021 150.705C239.035 150.676 239.077 150.69 239.092 150.719C239.12 150.835 239.162 151.197 239.527 151.457ZM243.094 151.529C243.079 151.775 243.122 152.05 243.262 152.253C243.304 152.311 243.262 152.339 243.206 152.325C243.164 152.311 243.108 152.282 243.009 152.238C242.125 151.905 241.015 151.963 240.229 152.412C240.046 152.513 239.92 152.6 239.836 152.658C239.751 152.716 239.667 152.672 239.751 152.557C239.948 152.282 240.622 151.631 241.296 151.269C241.97 150.907 242.714 150.705 243.473 150.676C243.501 150.676 243.515 150.719 243.501 150.748C243.402 150.835 243.122 151.066 243.094 151.529Z" fill="white"/>
<path d="M273.803 179.349L271.91 176.292C269.581 176.583 267.833 178.184 267.833 179.349H267.542L268.707 181.242C269.144 182.116 271.182 183.863 272.201 183.863C275.696 192.89 277.297 198.422 278.025 208.468H280.355C279.19 198.277 278.316 193.618 274.094 182.989C274.531 182.407 274.094 180.077 273.803 179.349Z" fill="#CFCFCF"/>
<path d="M172.323 181.242L173.779 178.912C173.488 177.748 171.449 176.437 169.265 176.292L167.373 179.495C167.081 180.223 166.208 183.426 166.645 184.008C162.422 194.491 161.112 199.15 160.966 208.614H162.859C163.296 198.859 164.169 194.782 168.101 184.736C170.139 184.591 171.886 182.116 172.323 181.242Z" fill="#CFCFCF"/>
<path d="M250.508 179.641L249.197 176.583C246.868 176.583 244.684 177.748 244.393 178.913L245.266 180.951C245.557 181.97 247.45 184.154 248.469 184.154C251.381 194.346 252.109 199.15 252.255 208.468H254.293C254.148 198.714 253.42 193.909 250.362 183.135C250.944 182.698 250.653 180.368 250.508 179.641Z" fill="#CFCFCF"/>
<path d="M193.289 183.717C194.308 183.572 195.618 181.97 195.909 180.951L197.074 178.33C196.346 177.311 194.162 176.292 191.978 176.583L190.668 179.495C190.377 180.223 190.377 182.261 190.813 182.844C187.756 193.472 186.882 198.859 187.465 208.468H189.357C189.066 199.587 189.503 194.2 193.289 183.717Z" fill="#CFCFCF"/>
<path d="M246.285 169.595C245.849 168.284 244.393 167.556 243.082 167.993C241.626 168.43 240.753 169.74 241.189 170.905L243.81 177.311C244.829 176.146 246.722 175.273 248.615 175.127L246.285 169.595Z" fill="#E9E9E9"/>
<path d="M200.131 170.905C200.568 169.595 199.695 168.284 198.239 167.993C196.783 167.556 195.327 168.284 195.036 169.595L192.56 175.127C194.599 175.127 196.491 175.855 197.656 176.874L200.131 170.905Z" fill="#E9E9E9"/>
<path d="M271.182 174.981L268.125 169.885C267.688 168.721 266.086 168.138 264.63 168.575C263.174 169.157 262.592 170.468 263.029 171.778L266.814 177.893C267.542 176.437 269.144 175.418 271.182 174.981Z" fill="#E9E9E9"/>
<path d="M174.652 177.456L178.146 171.778C178.583 170.613 177.855 169.157 176.545 168.575C175.089 167.993 173.633 168.575 173.051 169.885L169.993 174.836C172.031 175.127 173.779 176.146 174.652 177.456Z" fill="#E9E9E9"/>
<path fill-rule="evenodd" clip-rule="evenodd" d="M221.534 241.373H187.319H186.009H176.108L177.127 252.292H173.051H133.158L102 216.039H221.534V241.373ZM253.857 241.373H221.534V216.039H339.467L308.309 252.293H268.416H264.485L265.504 241.373H255.167H253.857Z" fill="#A2A6C2"/>
<path d="M145.185 235.373L154.726 252.446H282.273L289.806 235.373H145.185Z" fill="#767996"/>
<path d="M161.694 241.373L169.848 326.547H179.02L171.595 241.373H161.694Z" fill="#CBCDDC"/>
<path d="M196.201 241.373L203.626 326.547H205.082L197.511 241.373H196.201Z" fill="#FEFCD3"/>
<path d="M257.933 326.547H267.397L275.696 241.373H265.359L257.933 326.547Z" fill="#8B8EA5"/>
<path d="M264.048 241.373L256.332 326.547H257.933L265.358 241.373H264.048Z" fill="#CFCFCF"/>
<path d="M173.779 178.912L174.652 177.456C173.779 176.146 172.032 175.127 169.993 174.836L169.12 176.146C171.449 176.292 173.342 177.602 173.779 178.912Z" fill="#8F95B7"/>
<path d="M196.929 178.33L197.511 176.874C196.346 175.855 194.453 175.127 192.415 175.127L191.833 176.583C194.017 176.292 196.201 177.311 196.929 178.33Z" fill="#8F95B7"/>
<path d="M271.91 176.292L271.182 174.981C269.144 175.418 267.542 176.583 266.815 177.893L267.688 179.349H267.979C267.834 178.039 269.726 176.583 271.91 176.292Z" fill="#8F95B7"/>
<path d="M249.197 176.583L248.615 175.127C246.576 175.273 244.684 176.001 243.81 177.311L244.538 179.058C244.684 177.748 246.868 176.437 249.197 176.583Z" fill="#8F95B7"/>
<path fill-rule="evenodd" clip-rule="evenodd" d="M187.319 208.468H189.357H221.534V209.633V216.039H102V208.468H145.533H160.966H162.859H187.319ZM297.681 208.468H339.467V216.039H221.534V209.633V208.468H252.255H254.293H278.171H280.501H297.681Z" fill="#CBCDDC"/>
<path fill-rule="evenodd" clip-rule="evenodd" d="M178.322 326.547L166.062 241.373H221.229V241.373H221.465H273.803L261.308 326.547H221.465H221.229L178.322 326.547Z" fill="#B2B5CC"/>
<circle cx="223" cy="284" r="24" fill="#8B8EA5"/>
<circle cx="220" cy="283" r="24" fill="#CBCDDC"/>
<mask id="mask0_1601_734" style="mask-type:alpha" maskUnits="userSpaceOnUse" x="197" y="260" width="45" height="46">
<ellipse cx="219.789" cy="283" rx="21.8688" ry="22.08" fill="#D9D9D9"/>
</mask>
<g mask="url(#mask0_1601_734)">
<path d="M198.669 260.92H242.189V305.08H198.669V260.92Z" fill="#FF9933"/>
<path d="M187.149 275.64H252.429V290.36H187.149V275.64Z" fill="white"/>
<path d="M187.149 290.36H252.429V305.08H187.149V290.36Z" fill="#128807"/>
<path d="M219.789 277.112C222.995 277.112 225.592 279.747 225.592 283C225.592 286.253 222.995 288.888 219.789 288.888C216.583 288.888 213.986 286.253 213.986 283C213.986 279.747 216.583 277.112 219.789 277.112ZM215.002 283.633C215.016 283.766 214.929 283.898 214.784 283.927C214.828 284.207 214.9 284.472 215.002 284.737C215.132 284.693 215.277 284.752 215.321 284.884C215.379 285.017 215.321 285.164 215.19 285.223C215.248 285.355 215.321 285.473 215.379 285.591L217.947 283.883L218.89 283.471C218.861 283.427 218.846 283.368 218.832 283.324L217.874 283.707L214.886 284.34L217.787 283.368L218.802 283.221C218.788 283.162 218.788 283.118 218.788 283.059L217.773 283.177L214.726 283L217.773 282.823L218.788 282.941C218.788 282.882 218.802 282.838 218.802 282.779L217.787 282.632L214.886 281.661L217.874 282.294L218.832 282.676C218.846 282.617 218.875 282.573 218.89 282.529L217.947 282.117L215.393 280.424C215.321 280.542 215.263 280.66 215.205 280.792C215.335 280.851 215.393 280.998 215.335 281.131C215.277 281.263 215.132 281.322 215.016 281.278C214.929 281.543 214.857 281.808 214.799 282.087C214.929 282.102 215.031 282.235 215.016 282.382C215.002 282.514 214.871 282.617 214.741 282.603C214.726 282.735 214.726 282.882 214.726 283.015C214.726 283.147 214.726 283.294 214.741 283.427C214.871 283.397 214.987 283.501 215.002 283.633ZM215.916 279.659C216.017 279.747 216.046 279.909 215.959 280.012C215.872 280.13 215.727 280.144 215.611 280.056C215.538 280.174 215.466 280.292 215.393 280.409L218.121 281.808L218.948 282.426C218.977 282.382 219.006 282.338 219.049 282.294L218.237 281.646L216.206 279.335L218.483 281.396L219.122 282.22C219.165 282.19 219.209 282.146 219.252 282.117L218.643 281.278L217.265 278.51C217.149 278.584 217.033 278.658 216.917 278.731C217.004 278.849 216.975 278.996 216.873 279.085C216.757 279.173 216.612 279.143 216.525 279.04C216.293 279.261 216.104 279.453 215.916 279.659ZM219.383 277.863C219.397 277.995 219.296 278.128 219.165 278.142C219.035 278.157 218.904 278.069 218.875 277.922C218.599 277.966 218.338 278.039 218.077 278.142C218.121 278.275 218.063 278.422 217.932 278.466C217.802 278.525 217.656 278.466 217.598 278.334C217.468 278.393 217.352 278.466 217.236 278.525L218.919 281.131L219.325 282.087C219.368 282.058 219.426 282.043 219.47 282.029L219.093 281.057L218.469 278.025L219.426 280.969L219.571 281.999C219.629 281.984 219.673 281.984 219.731 281.984L219.615 280.954L219.789 277.863L219.963 280.954L219.847 281.984C219.905 281.984 219.949 281.999 220.007 281.999L220.152 280.969L221.109 278.025L220.485 281.057L220.108 282.029C220.166 282.043 220.21 282.073 220.253 282.087L220.659 281.131L222.328 278.54C222.212 278.466 222.096 278.407 221.965 278.349C221.907 278.481 221.762 278.54 221.631 278.481C221.501 278.422 221.443 278.275 221.486 278.157C221.225 278.069 220.964 277.995 220.688 277.936C220.674 278.069 220.543 278.172 220.398 278.157C220.268 278.142 220.166 278.01 220.181 277.878C220.05 277.863 219.905 277.863 219.774 277.863C219.644 277.863 219.513 277.848 219.383 277.863ZM223.082 279.07C222.995 279.173 222.835 279.202 222.734 279.114C222.618 279.026 222.603 278.878 222.69 278.761C222.574 278.687 222.458 278.614 222.342 278.54L220.964 281.307L220.355 282.146C220.398 282.176 220.442 282.205 220.485 282.249L221.124 281.425L223.401 279.364L221.37 281.675L220.558 282.323C220.587 282.367 220.63 282.411 220.659 282.455L221.486 281.837L224.213 280.439C224.141 280.321 224.068 280.203 223.996 280.086C223.88 280.174 223.735 280.144 223.648 280.041C223.561 279.924 223.59 279.776 223.691 279.688C223.474 279.453 223.285 279.261 223.082 279.07ZM221.791 282.632L220.775 282.779C220.79 282.838 220.79 282.882 220.79 282.941L221.805 282.823L224.852 283L221.805 283.177L220.79 283.059C220.79 283.118 220.775 283.162 220.775 283.221L221.791 283.368L224.692 284.34L221.704 283.707L220.746 283.324C220.732 283.383 220.703 283.427 220.688 283.471L221.631 283.883L224.184 285.576C224.257 285.458 224.315 285.341 224.373 285.208C224.242 285.149 224.184 285.002 224.242 284.87C224.301 284.737 224.446 284.678 224.562 284.722C224.649 284.457 224.721 284.192 224.779 283.913C224.649 283.898 224.547 283.766 224.562 283.618C224.576 283.486 224.707 283.383 224.837 283.398C224.852 283.265 224.852 283.118 224.852 282.985C224.852 282.853 224.852 282.706 224.837 282.573C224.707 282.588 224.576 282.485 224.562 282.352C224.547 282.22 224.634 282.087 224.779 282.058C224.736 281.778 224.663 281.513 224.562 281.248C224.431 281.293 224.286 281.234 224.242 281.101C224.184 280.969 224.242 280.822 224.373 280.763C224.315 280.63 224.242 280.512 224.184 280.395L221.631 282.087L220.688 282.5C220.717 282.544 220.732 282.603 220.746 282.647L221.704 282.264L224.692 281.631L221.791 282.632ZM223.662 286.342C223.561 286.253 223.532 286.091 223.619 285.988C223.706 285.87 223.851 285.856 223.967 285.944C224.039 285.826 224.112 285.709 224.184 285.591L221.457 284.192L220.63 283.574C220.601 283.618 220.572 283.662 220.529 283.707L221.341 284.354L223.372 286.665L221.095 284.605L220.456 283.78C220.413 283.81 220.369 283.854 220.326 283.883L220.935 284.722L222.313 287.49C222.429 287.416 222.545 287.342 222.661 287.269C222.574 287.151 222.603 287.004 222.705 286.916C222.821 286.827 222.966 286.857 223.053 286.96C223.285 286.739 223.474 286.548 223.662 286.342ZM220.195 288.137C220.181 288.005 220.282 287.872 220.413 287.858C220.543 287.843 220.674 287.931 220.703 288.078C220.978 288.034 221.24 287.961 221.501 287.858C221.457 287.725 221.515 287.578 221.646 287.534C221.776 287.475 221.921 287.534 221.979 287.666C222.11 287.607 222.226 287.534 222.342 287.475L220.674 284.884L220.268 283.927C220.224 283.957 220.166 283.972 220.123 283.986L220.5 284.958L221.124 287.99L220.166 285.046L220.021 284.016C219.963 284.03 219.92 284.03 219.861 284.03L219.978 285.061L219.803 288.152L219.629 285.061L219.745 284.03C219.687 284.03 219.644 284.016 219.586 284.016L219.441 285.046L218.483 287.99L219.107 284.958L219.484 283.986C219.426 283.972 219.383 283.942 219.339 283.927L218.933 284.884L217.265 287.475C217.381 287.549 217.497 287.607 217.627 287.666C217.685 287.534 217.831 287.475 217.961 287.534C218.092 287.593 218.15 287.74 218.106 287.858C218.367 287.946 218.628 288.02 218.904 288.078C218.919 287.946 219.049 287.843 219.194 287.858C219.325 287.872 219.426 288.005 219.412 288.137C219.542 288.152 219.687 288.152 219.818 288.152C219.949 288.152 220.065 288.152 220.195 288.137ZM216.496 286.93C216.583 286.827 216.743 286.798 216.844 286.886C216.96 286.974 216.975 287.122 216.888 287.239C217.004 287.313 217.12 287.387 217.236 287.46L218.614 284.693L219.223 283.854C219.18 283.824 219.136 283.795 219.093 283.751L218.454 284.575L216.177 286.636L218.208 284.325L219.02 283.677C218.991 283.633 218.948 283.589 218.919 283.545L218.092 284.163L215.364 285.561C215.437 285.679 215.509 285.797 215.582 285.915C215.698 285.826 215.843 285.856 215.93 285.959C216.017 286.077 215.988 286.224 215.887 286.312C216.104 286.548 216.293 286.739 216.496 286.93Z" fill="#000083"/>
</g>
<defs>
<filter id="filter0_f_1601_734" x="-46" y="-110" width="548" height="548" filterUnits="userSpaceOnUse" color-interpolation-filters="sRGB">
<feFlood flood-opacity="0" result="BackgroundImageFix"/>
<feBlend mode="normal" in="SourceGraphic" in2="BackgroundImageFix" result="shape"/>
<feGaussianBlur stdDeviation="75" result="effect1_foregroundBlur_1601_734"/>
</filter>
<linearGradient id="paint0_linear_1601_734" x1="238" y1="196" x2="238" y2="184" gradientUnits="userSpaceOnUse">
<stop stop-color="#D9D9D9"/>
<stop offset="1" stop-color="#D9D9D9" stop-opacity="0"/>
</linearGradient>
</defs>
</svg>
