<svg width="590" height="210" viewBox="0 0 590 210" fill="none" xmlns="http://www.w3.org/2000/svg">
<path d="M12 84.4245L52.263 101.82L102.494 84.4245L65.5537 70.7429L20.4044 79.1473L12 84.4245Z" fill="#DFE1EC"/>
<path d="M53.146 34.7357L92.5306 43.7705L51.7887 54.6717L13.7636 43.5336L53.146 34.7357Z" fill="#CC2024"/>
<path d="M80.2172 47.0932L43.6677 36.7343L33.3088 39.0797L71.2264 49.4386L80.2172 47.0932Z" fill="#FFD778"/>
<path d="M34.2861 49.2432L76.3081 40.057L66.1447 37.5161L25.8816 46.8978L34.2861 49.2432Z" fill="#DFB249"/>
<path d="M15.6349 50.3435L52.0576 61.1088V100.425L15.6349 83.791V50.3435Z" fill="url(#paint0_linear_1794_4825)"/>
<path d="M90.6048 50.9506L52.0575 61.1186V100.425L90.6048 84.1409V50.9506Z" fill="url(#paint1_linear_1794_4825)"/>
<path d="M28.0793 54.5929L36.5779 57.1728V93.4437L28.0793 89.6681V54.5929Z" fill="#FFDE8E"/>
<path d="M68.8462 56.425L77.857 54.2894V89.6633L68.7513 93.4437L68.8462 56.425Z" fill="#FFD778"/>
<path fill-rule="evenodd" clip-rule="evenodd" d="M52.3611 61.2704L52.3611 100.425L51.754 100.425L51.754 61.2704L52.3611 61.2704Z" fill="#FF5C62"/>
<path fill-rule="evenodd" clip-rule="evenodd" d="M15.6349 50.3435L52.1425 61.1186L52.1425 61.7952L15.6349 50.9506L15.6349 50.3435Z" fill="#FF5C62" style="mix-blend-mode:lighten"/>
<path fill-rule="evenodd" clip-rule="evenodd" d="M90.6048 51.5576L52.0575 61.7256L52.0575 61.1186L90.6048 50.9506L90.6048 51.5576Z" fill="#FF4D52" style="mix-blend-mode:lighten"/>
<path d="M13.7636 43.3796L51.9453 54.6071V66.5142L13.7636 53.1522V43.3796Z" fill="url(#paint2_linear_1794_4825)"/>
<path d="M13.7636 43.3796L51.9453 54.6071V66.5142L13.7636 53.1522V43.3796Z" fill="white" fill-opacity="0.1"/>
<path d="M92.5306 43.7705L52.0722 54.6071V66.5142L92.5306 53.934V43.7705Z" fill="url(#paint3_linear_1794_4825)"/>
<path d="M92.5306 43.7705L52.0722 54.6071V66.5142L92.5306 53.934V43.7705Z" fill="white" fill-opacity="0.1"/>
<path fill-rule="evenodd" clip-rule="evenodd" d="M52.463 54.3249L52.4631 66.8338L51.6812 66.8338L51.6812 54.3249L52.463 54.3249Z" fill="#FF666C"/>
<path fill-rule="evenodd" clip-rule="evenodd" d="M13.7637 43.3797L51.8767 54.325L51.6752 55.0804L13.7637 44.1351L13.7637 43.3797Z" fill="#FF666C"/>
<path d="M25.6862 46.8978L34.3157 49.2432V60.3839L25.8816 57.4522L25.6862 46.8978Z" fill="#FFEAB8"/>
<path fill-rule="evenodd" clip-rule="evenodd" d="M92.5306 44.3569L51.9114 55.4031L51.6813 54.6559L92.5307 43.7705L92.5306 44.3569Z" fill="#FF666C"/>
<path d="M71.2264 49.4386L80.3321 47.0932V57.843L71.2264 60.5256V49.4386Z" fill="#FFDE8E"/>
<g filter="url(#filter0_f_1794_4825)">
<ellipse cx="43.5775" cy="43.5238" rx="2.12465" ry="1.97289" fill="white"/>
</g>
<path d="M79.9626 34.2381C78.7935 29.2992 72.4162 24.6239 65.1629 26.3754C59.1039 28.9162 57.5402 36.9297 53.9159 39.4758C62.2311 38.8843 59.2207 43.6344 66.641 42.9621C78.539 41.8747 81.1317 39.177 79.9626 34.2381Z" fill="#FFDE8E"/>
<path d="M79.305 32.2867C80.7983 34.541 81.1301 39.7338 74.9579 41.4355C71.2661 42.453 66.1392 43.5494 63.9656 42.6635C64.5765 40.4478 65.4741 37.5891 68.4855 34.9752C72.451 31.5367 77.8117 30.0324 79.305 32.2867Z" fill="#FFCE5B"/>
<path d="M48.9404 38.8842C48.9928 34.9596 55.6447 31.4753 59.0376 33.259C62.5652 35.1121 65.3189 39.5184 64.4038 41.9893C63.4886 44.4601 61.2922 44.7895 58.3804 45.3661C55.4685 45.9426 53.4385 46.7168 52.4734 45.3661C51.5084 44.0154 45.8177 37.8712 45.8177 37.8712L48.9404 38.8842Z" fill="#FFD470"/>
<path d="M60.1711 35.4308C57.5653 32.2991 56.3675 32.8408 56.3675 32.8408C56.3675 32.8408 58.9705 32.4505 61.6447 35.1862C63.3137 36.8937 64.1794 38.3489 64.5614 40.9022C64.9434 43.4556 62.0445 44.3594 62.4265 44.177C62.4265 44.177 60.6674 44.9588 54.4376 46.1913C54.4376 46.1913 66.0893 42.5436 60.1711 35.4308Z" fill="#CEAB94" fill-opacity="0.34" style="mix-blend-mode:multiply"/>
<path d="M27.6361 38.6888C28.8484 33.7279 32.327 31.8149 40.3405 32.6298C51.8721 33.8025 57.3535 44.9385 54.9455 46.0975C49.7337 48.6154 44.9177 52.1506 37.4215 50.283C29.9254 48.4153 26.4239 43.6497 27.6361 38.6888Z" fill="#FFDE8E"/>
<path d="M36.4315 42.7933C33.2221 50.2748 37.7996 51.1977 43.4677 50.8068C47.9521 50.4163 52.3419 47.527 54.8039 46.1159C53.2403 43.966 50.8949 41.816 49.1358 40.6433C44.7382 37.7115 38.0993 38.9055 36.4315 42.7933Z" fill="#FFCE5B"/>
<path d="M40.0136 39.5342C37.5573 40.1623 36.602 42.0989 36.4315 42.9887C37.2275 42.8317 39.1266 42.3921 40.3547 41.8896C41.5828 41.3871 44.5054 39.9006 45.8131 39.2202C44.9034 39.0631 42.4698 38.9061 40.0136 39.5342Z" fill="#CC2024"/>
<path fill-rule="evenodd" clip-rule="evenodd" d="M45.8131 39.2202C44.9456 39.0704 42.6921 38.9207 40.3547 39.4519L43.8586 40.2195C44.6198 39.8364 45.3277 39.4727 45.8131 39.2202Z" fill="#FFE6AA"/>
<path d="M43.6631 33.2317C47.2856 34.7096 50.8949 39.6816 50.8949 42.027C52.8494 43.3952 54.0698 45.3974 54.8039 46.1315C55.5857 45.9361 55.3902 45.7406 55.5857 45.3497C56.1144 42.2006 51.2858 37.3972 48.7449 35.5771C47.3255 34.5604 44.1454 33.4711 43.6631 33.2317Z" fill="#CEAB94" fill-opacity="0.34" style="mix-blend-mode:multiply"/>
<path d="M72.1991 32.4343C76.4993 31.1115 78.2774 31.1979 79.0116 31.9386C80.1022 33.039 80.5849 35.1662 79.9 37.4946C79.5671 38.6265 78.3558 39.9638 77.744 40.1931C77.4468 40.2284 78.4258 40.828 77.5867 37.283C76.7476 33.7379 73.3528 32.9634 72.1991 32.4343Z" fill="#CEAB94" fill-opacity="0.34" style="mix-blend-mode:multiply"/>
<path d="M12 170.244L52.263 187.639L102.494 170.244L65.5537 156.562L20.4044 164.967L12 170.244Z" fill="#DFE1EC"/>
<path d="M53.146 120.555L92.5306 129.59L51.7887 140.491L13.7636 129.353L53.146 120.555Z" fill="#CC2024"/>
<path d="M80.2172 132.913L43.6677 122.554L33.3088 124.899L71.2264 135.258L80.2172 132.913Z" fill="#FFD778"/>
<path d="M34.2861 135.063L76.3081 125.877L66.1447 123.336L25.8816 132.717L34.2861 135.063Z" fill="#DFB249"/>
<path d="M15.6349 136.163L52.0576 146.928V186.244L15.6349 169.611V136.163Z" fill="url(#paint4_linear_1794_4825)"/>
<path d="M90.6048 136.77L52.0575 146.938V186.244L90.6048 169.961V136.77Z" fill="url(#paint5_linear_1794_4825)"/>
<path d="M28.0793 140.412L36.5779 142.992V179.263L28.0793 175.488V140.412Z" fill="#FFDE8E"/>
<path d="M68.8462 142.245L77.857 140.109V175.483L68.7513 179.263L68.8462 142.245Z" fill="#FFD778"/>
<path fill-rule="evenodd" clip-rule="evenodd" d="M52.3611 147.09L52.3611 186.244L51.754 186.244L51.754 147.09L52.3611 147.09Z" fill="#FF5C62"/>
<path fill-rule="evenodd" clip-rule="evenodd" d="M15.6349 136.163L52.1425 146.938L52.1425 147.615L15.6349 136.77L15.6349 136.163Z" fill="#FF5C62" style="mix-blend-mode:lighten"/>
<path fill-rule="evenodd" clip-rule="evenodd" d="M90.6048 137.377L52.0575 147.545L52.0575 146.938L90.6048 136.77L90.6048 137.377Z" fill="#FF4D52" style="mix-blend-mode:lighten"/>
<path d="M13.7636 129.199L51.9453 140.427V152.334L13.7636 138.972V129.199Z" fill="url(#paint6_linear_1794_4825)"/>
<path d="M13.7636 129.199L51.9453 140.427V152.334L13.7636 138.972V129.199Z" fill="white" fill-opacity="0.1"/>
<path d="M92.5306 129.59L52.0722 140.427V152.334L92.5306 139.754V129.59Z" fill="url(#paint7_linear_1794_4825)"/>
<path d="M92.5306 129.59L52.0722 140.427V152.334L92.5306 139.754V129.59Z" fill="white" fill-opacity="0.1"/>
<path fill-rule="evenodd" clip-rule="evenodd" d="M52.463 140.145L52.4631 152.653L51.6812 152.653L51.6812 140.145L52.463 140.145Z" fill="#FF666C"/>
<path fill-rule="evenodd" clip-rule="evenodd" d="M13.7637 129.199L51.8767 140.145L51.6752 140.9L13.7637 129.955L13.7637 129.199Z" fill="#FF666C"/>
<path d="M25.6862 132.717L34.3157 135.063V146.204L25.8816 143.272L25.6862 132.717Z" fill="#FFEAB8"/>
<path fill-rule="evenodd" clip-rule="evenodd" d="M92.5306 130.176L51.9114 141.223L51.6813 140.476L92.5307 129.59L92.5306 130.176Z" fill="#FF666C"/>
<path d="M71.2264 135.258L80.3321 132.913V143.663L71.2264 146.345V135.258Z" fill="#FFDE8E"/>
<g filter="url(#filter1_f_1794_4825)">
<ellipse cx="43.5775" cy="129.343" rx="2.12465" ry="1.97289" fill="white"/>
</g>
<path d="M79.9626 120.058C78.7935 115.119 72.4162 110.444 65.1629 112.195C59.1039 114.736 57.5402 122.749 53.9159 125.295C62.2311 124.704 59.2207 129.454 66.641 128.782C78.539 127.694 81.1317 124.997 79.9626 120.058Z" fill="#FFDE8E"/>
<path d="M79.305 118.106C80.7983 120.361 81.1301 125.553 74.9579 127.255C71.2661 128.273 66.1392 129.369 63.9656 128.483C64.5765 126.267 65.4741 123.409 68.4855 120.795C72.451 117.356 77.8117 115.852 79.305 118.106Z" fill="#FFCE5B"/>
<path d="M48.9404 124.704C48.9928 120.779 55.6447 117.295 59.0376 119.079C62.5652 120.932 65.3189 125.338 64.4038 127.809C63.4886 130.28 61.2922 130.609 58.3804 131.186C55.4685 131.762 53.4385 132.536 52.4734 131.186C51.5084 129.835 45.8177 123.691 45.8177 123.691L48.9404 124.704Z" fill="#FFD470"/>
<path d="M60.1711 121.25C57.5653 118.119 56.3675 118.66 56.3675 118.66C56.3675 118.66 58.9705 118.27 61.6447 121.006C63.3137 122.713 64.1794 124.168 64.5614 126.722C64.9434 129.275 62.0445 130.179 62.4265 129.997C62.4265 129.997 60.6674 130.778 54.4376 132.011C54.4376 132.011 66.0893 128.363 60.1711 121.25Z" fill="#CEAB94" fill-opacity="0.34" style="mix-blend-mode:multiply"/>
<path d="M27.6361 124.508C28.8484 119.547 32.327 117.634 40.3405 118.449C51.8721 119.622 57.3535 130.758 54.9455 131.917C49.7337 134.435 44.9177 137.97 37.4215 136.103C29.9254 134.235 26.4239 129.469 27.6361 124.508Z" fill="#FFDE8E"/>
<path d="M36.4315 128.613C33.2221 136.094 37.7996 137.017 43.4677 136.626C47.9521 136.236 52.3419 133.347 54.8039 131.936C53.2403 129.786 50.8949 127.636 49.1358 126.463C44.7382 123.531 38.0993 124.725 36.4315 128.613Z" fill="#FFCE5B"/>
<path d="M40.0136 125.354C37.5573 125.982 36.602 127.919 36.4315 128.808C37.2275 128.651 39.1266 128.212 40.3547 127.709C41.5828 127.207 44.5054 125.72 45.8131 125.04C44.9034 124.883 42.4698 124.726 40.0136 125.354Z" fill="#CC2024"/>
<path fill-rule="evenodd" clip-rule="evenodd" d="M45.8131 125.04C44.9456 124.89 42.6921 124.74 40.3547 125.271L43.8586 126.039C44.6198 125.656 45.3277 125.292 45.8131 125.04Z" fill="#FFE6AA"/>
<path d="M43.6631 119.051C47.2856 120.529 50.8949 125.501 50.8949 127.847C52.8494 129.215 54.0698 131.217 54.8039 131.951C55.5857 131.756 55.3902 131.56 55.5857 131.169C56.1144 128.02 51.2858 123.217 48.7449 121.397C47.3255 120.38 44.1454 119.291 43.6631 119.051Z" fill="#CEAB94" fill-opacity="0.34" style="mix-blend-mode:multiply"/>
<path d="M72.1991 118.254C76.4993 116.931 78.2774 117.017 79.0116 117.758C80.1022 118.859 80.5849 120.986 79.9 123.314C79.5671 124.446 78.3558 125.783 77.744 126.013C77.4468 126.048 78.4258 126.648 77.5867 123.103C76.7476 119.557 73.3528 118.783 72.1991 118.254Z" fill="#CEAB94" fill-opacity="0.34" style="mix-blend-mode:multiply"/>
<path d="M110.494 84.4245L150.757 101.82L200.988 84.4245L164.048 70.7429L118.898 79.1473L110.494 84.4245Z" fill="#DFE1EC"/>
<path d="M151.64 34.7357L191.025 43.7705L150.283 54.6717L112.258 43.5336L151.64 34.7357Z" fill="#CC2024"/>
<path d="M178.711 47.0932L142.162 36.7343L131.803 39.0797L169.72 49.4386L178.711 47.0932Z" fill="#FFD778"/>
<path d="M132.78 49.2432L174.802 40.057L164.639 37.5161L124.376 46.8978L132.78 49.2432Z" fill="#DFB249"/>
<path d="M114.129 50.3435L150.552 61.1088V100.425L114.129 83.791V50.3435Z" fill="url(#paint8_linear_1794_4825)"/>
<path d="M189.099 50.9506L150.552 61.1186V100.425L189.099 84.1409V50.9506Z" fill="url(#paint9_linear_1794_4825)"/>
<path d="M126.573 54.5929L135.072 57.1728V93.4437L126.573 89.6681V54.5929Z" fill="#FFDE8E"/>
<path d="M167.34 56.425L176.351 54.2894V89.6633L167.245 93.4437L167.34 56.425Z" fill="#FFD778"/>
<path fill-rule="evenodd" clip-rule="evenodd" d="M150.855 61.2704L150.855 100.425L150.248 100.425L150.248 61.2704L150.855 61.2704Z" fill="#FF5C62"/>
<path fill-rule="evenodd" clip-rule="evenodd" d="M114.129 50.3435L150.637 61.1186L150.637 61.7952L114.129 50.9506L114.129 50.3435Z" fill="#FF5C62" style="mix-blend-mode:lighten"/>
<path fill-rule="evenodd" clip-rule="evenodd" d="M189.099 51.5576L150.552 61.7256L150.552 61.1186L189.099 50.9506L189.099 51.5576Z" fill="#FF4D52" style="mix-blend-mode:lighten"/>
<path d="M112.258 43.3796L150.439 54.6071V66.5142L112.258 53.1522V43.3796Z" fill="url(#paint10_linear_1794_4825)"/>
<path d="M112.258 43.3796L150.439 54.6071V66.5142L112.258 53.1522V43.3796Z" fill="white" fill-opacity="0.1"/>
<path d="M191.025 43.7705L150.566 54.6071V66.5142L191.025 53.934V43.7705Z" fill="url(#paint11_linear_1794_4825)"/>
<path d="M191.025 43.7705L150.566 54.6071V66.5142L191.025 53.934V43.7705Z" fill="white" fill-opacity="0.1"/>
<path fill-rule="evenodd" clip-rule="evenodd" d="M150.957 54.3249L150.957 66.8338L150.175 66.8338L150.175 54.3249L150.957 54.3249Z" fill="#FF666C"/>
<path fill-rule="evenodd" clip-rule="evenodd" d="M112.258 43.3797L150.371 54.325L150.169 55.0804L112.258 44.1351L112.258 43.3797Z" fill="#FF666C"/>
<path d="M124.18 46.8978L132.81 49.2432V60.3839L124.376 57.4522L124.18 46.8978Z" fill="#FFEAB8"/>
<path fill-rule="evenodd" clip-rule="evenodd" d="M191.025 44.3569L150.405 55.4031L150.175 54.6559L191.025 43.7705L191.025 44.3569Z" fill="#FF666C"/>
<path d="M169.72 49.4386L178.826 47.0932V57.843L169.72 60.5256V49.4386Z" fill="#FFDE8E"/>
<g filter="url(#filter2_f_1794_4825)">
<ellipse cx="142.071" cy="43.5238" rx="2.12465" ry="1.97289" fill="white"/>
</g>
<path d="M178.457 34.2381C177.287 29.2992 170.91 24.6239 163.657 26.3754C157.598 28.9162 156.034 36.9297 152.41 39.4758C160.725 38.8843 157.715 43.6344 165.135 42.9621C177.033 41.8747 179.626 39.177 178.457 34.2381Z" fill="#FFDE8E"/>
<path d="M177.799 32.2867C179.292 34.541 179.624 39.7338 173.452 41.4355C169.76 42.453 164.633 43.5494 162.46 42.6635C163.071 40.4478 163.968 37.5891 166.98 34.9752C170.945 31.5367 176.306 30.0324 177.799 32.2867Z" fill="#FFCE5B"/>
<path d="M147.434 38.8842C147.487 34.9596 154.139 31.4753 157.532 33.259C161.059 35.1121 163.813 39.5184 162.898 41.9893C161.983 44.4601 159.786 44.7895 156.874 45.3661C153.962 45.9426 151.932 46.7168 150.967 45.3661C150.002 44.0154 144.312 37.8712 144.312 37.8712L147.434 38.8842Z" fill="#FFD470"/>
<path d="M158.665 35.4308C156.059 32.2991 154.862 32.8408 154.862 32.8408C154.862 32.8408 157.465 32.4505 160.139 35.1862C161.808 36.8937 162.673 38.3489 163.055 40.9022C163.437 43.4556 160.539 44.3594 160.921 44.177C160.921 44.177 159.161 44.9588 152.932 46.1913C152.932 46.1913 164.583 42.5436 158.665 35.4308Z" fill="#CEAB94" fill-opacity="0.34" style="mix-blend-mode:multiply"/>
<path d="M126.13 38.6888C127.342 33.7279 130.821 31.8149 138.835 32.6298C150.366 33.8025 155.848 44.9385 153.44 46.0975C148.228 48.6154 143.412 52.1506 135.916 50.283C128.419 48.4153 124.918 43.6497 126.13 38.6888Z" fill="#FFDE8E"/>
<path d="M134.925 42.7933C131.716 50.2748 136.294 51.1977 141.962 50.8068C146.446 50.4163 150.836 47.527 153.298 46.1159C151.734 43.966 149.389 41.816 147.63 40.6433C143.232 37.7115 136.593 38.9055 134.925 42.7933Z" fill="#FFCE5B"/>
<path d="M138.508 39.5342C136.051 40.1623 135.096 42.0989 134.925 42.9887C135.721 42.8317 137.621 42.3921 138.849 41.8896C140.077 41.3871 142.999 39.9006 144.307 39.2202C143.397 39.0631 140.964 38.9061 138.508 39.5342Z" fill="#CC2024"/>
<path fill-rule="evenodd" clip-rule="evenodd" d="M144.307 39.2202C143.44 39.0704 141.186 38.9207 138.849 39.4519L142.353 40.2195C143.114 39.8364 143.822 39.4727 144.307 39.2202Z" fill="#FFE6AA"/>
<path d="M142.157 33.2317C145.78 34.7096 149.389 39.6816 149.389 42.027C151.343 43.3952 152.564 45.3974 153.298 46.1315C154.08 45.9361 153.884 45.7406 154.08 45.3497C154.608 42.2006 149.78 37.3972 147.239 35.5771C145.819 34.5604 142.639 33.4711 142.157 33.2317Z" fill="#CEAB94" fill-opacity="0.34" style="mix-blend-mode:multiply"/>
<path d="M170.693 32.4343C174.993 31.1115 176.771 31.1979 177.506 31.9386C178.596 33.039 179.079 35.1662 178.394 37.4946C178.061 38.6265 176.85 39.9638 176.238 40.1931C175.941 40.2284 176.92 40.828 176.081 37.283C175.242 33.7379 171.847 32.9634 170.693 32.4343Z" fill="#CEAB94" fill-opacity="0.34" style="mix-blend-mode:multiply"/>
<path d="M110.494 170.244L150.757 187.639L200.988 170.244L164.048 156.562L118.898 164.967L110.494 170.244Z" fill="#DFE1EC"/>
<path d="M151.64 120.555L191.025 129.59L150.283 140.491L112.258 129.353L151.64 120.555Z" fill="#CC2024"/>
<path d="M178.711 132.913L142.162 122.554L131.803 124.899L169.72 135.258L178.711 132.913Z" fill="#FFD778"/>
<path d="M132.78 135.063L174.802 125.877L164.639 123.336L124.376 132.717L132.78 135.063Z" fill="#DFB249"/>
<path d="M114.129 136.163L150.552 146.928V186.244L114.129 169.611V136.163Z" fill="url(#paint12_linear_1794_4825)"/>
<path d="M189.099 136.77L150.552 146.938V186.244L189.099 169.961V136.77Z" fill="url(#paint13_linear_1794_4825)"/>
<path d="M126.573 140.412L135.072 142.992V179.263L126.573 175.488V140.412Z" fill="#FFDE8E"/>
<path d="M167.34 142.245L176.351 140.109V175.483L167.245 179.263L167.34 142.245Z" fill="#FFD778"/>
<path fill-rule="evenodd" clip-rule="evenodd" d="M150.855 147.09L150.855 186.244L150.248 186.244L150.248 147.09L150.855 147.09Z" fill="#FF5C62"/>
<path fill-rule="evenodd" clip-rule="evenodd" d="M114.129 136.163L150.637 146.938L150.637 147.615L114.129 136.77L114.129 136.163Z" fill="#FF5C62" style="mix-blend-mode:lighten"/>
<path fill-rule="evenodd" clip-rule="evenodd" d="M189.099 137.377L150.552 147.545L150.552 146.938L189.099 136.77L189.099 137.377Z" fill="#FF4D52" style="mix-blend-mode:lighten"/>
<path d="M112.258 129.199L150.439 140.427V152.334L112.258 138.972V129.199Z" fill="url(#paint14_linear_1794_4825)"/>
<path d="M112.258 129.199L150.439 140.427V152.334L112.258 138.972V129.199Z" fill="white" fill-opacity="0.1"/>
<path d="M191.025 129.59L150.566 140.427V152.334L191.025 139.754V129.59Z" fill="url(#paint15_linear_1794_4825)"/>
<path d="M191.025 129.59L150.566 140.427V152.334L191.025 139.754V129.59Z" fill="white" fill-opacity="0.1"/>
<path fill-rule="evenodd" clip-rule="evenodd" d="M150.957 140.145L150.957 152.653L150.175 152.653L150.175 140.145L150.957 140.145Z" fill="#FF666C"/>
<path fill-rule="evenodd" clip-rule="evenodd" d="M112.258 129.199L150.371 140.145L150.169 140.9L112.258 129.955L112.258 129.199Z" fill="#FF666C"/>
<path d="M124.18 132.717L132.81 135.063V146.204L124.376 143.272L124.18 132.717Z" fill="#FFEAB8"/>
<path fill-rule="evenodd" clip-rule="evenodd" d="M191.025 130.176L150.405 141.223L150.175 140.476L191.025 129.59L191.025 130.176Z" fill="#FF666C"/>
<path d="M169.72 135.258L178.826 132.913V143.663L169.72 146.345V135.258Z" fill="#FFDE8E"/>
<g filter="url(#filter3_f_1794_4825)">
<ellipse cx="142.071" cy="129.343" rx="2.12465" ry="1.97289" fill="white"/>
</g>
<path d="M178.457 120.058C177.287 115.119 170.91 110.444 163.657 112.195C157.598 114.736 156.034 122.749 152.41 125.295C160.725 124.704 157.715 129.454 165.135 128.782C177.033 127.694 179.626 124.997 178.457 120.058Z" fill="#FFDE8E"/>
<path d="M177.799 118.106C179.292 120.361 179.624 125.553 173.452 127.255C169.76 128.273 164.633 129.369 162.46 128.483C163.071 126.267 163.968 123.409 166.98 120.795C170.945 117.356 176.306 115.852 177.799 118.106Z" fill="#FFCE5B"/>
<path d="M147.434 124.704C147.487 120.779 154.139 117.295 157.532 119.079C161.059 120.932 163.813 125.338 162.898 127.809C161.983 130.28 159.786 130.609 156.874 131.186C153.962 131.762 151.932 132.536 150.967 131.186C150.002 129.835 144.312 123.691 144.312 123.691L147.434 124.704Z" fill="#FFD470"/>
<path d="M158.665 121.25C156.059 118.119 154.862 118.66 154.862 118.66C154.862 118.66 157.465 118.27 160.139 121.006C161.808 122.713 162.673 124.168 163.055 126.722C163.437 129.275 160.539 130.179 160.921 129.997C160.921 129.997 159.161 130.778 152.932 132.011C152.932 132.011 164.583 128.363 158.665 121.25Z" fill="#CEAB94" fill-opacity="0.34" style="mix-blend-mode:multiply"/>
<path d="M126.13 124.508C127.342 119.547 130.821 117.634 138.835 118.449C150.366 119.622 155.848 130.758 153.44 131.917C148.228 134.435 143.412 137.97 135.916 136.103C128.419 134.235 124.918 129.469 126.13 124.508Z" fill="#FFDE8E"/>
<path d="M134.925 128.613C131.716 136.094 136.294 137.017 141.962 136.626C146.446 136.236 150.836 133.347 153.298 131.936C151.734 129.786 149.389 127.636 147.63 126.463C143.232 123.531 136.593 124.725 134.925 128.613Z" fill="#FFCE5B"/>
<path d="M138.508 125.354C136.051 125.982 135.096 127.919 134.925 128.808C135.721 128.651 137.621 128.212 138.849 127.709C140.077 127.207 142.999 125.72 144.307 125.04C143.397 124.883 140.964 124.726 138.508 125.354Z" fill="#CC2024"/>
<path fill-rule="evenodd" clip-rule="evenodd" d="M144.307 125.04C143.44 124.89 141.186 124.74 138.849 125.271L142.353 126.039C143.114 125.656 143.822 125.292 144.307 125.04Z" fill="#FFE6AA"/>
<path d="M142.157 119.051C145.78 120.529 149.389 125.501 149.389 127.847C151.343 129.215 152.564 131.217 153.298 131.951C154.08 131.756 153.884 131.56 154.08 131.169C154.608 128.02 149.78 123.217 147.239 121.397C145.819 120.38 142.639 119.291 142.157 119.051Z" fill="#CEAB94" fill-opacity="0.34" style="mix-blend-mode:multiply"/>
<path d="M170.693 118.254C174.993 116.931 176.771 117.017 177.506 117.758C178.596 118.859 179.079 120.986 178.394 123.314C178.061 124.446 176.85 125.783 176.238 126.013C175.941 126.048 176.92 126.648 176.081 123.103C175.242 119.557 171.847 118.783 170.693 118.254Z" fill="#CEAB94" fill-opacity="0.34" style="mix-blend-mode:multiply"/>
<path d="M208.988 84.4245L249.251 101.82L299.482 84.4245L262.542 70.7429L217.393 79.1473L208.988 84.4245Z" fill="#DFE1EC"/>
<path d="M250.134 34.7357L289.519 43.7705L248.777 54.6717L210.752 43.5336L250.134 34.7357Z" fill="#CC2024"/>
<path d="M277.205 47.0932L240.656 36.7343L230.297 39.0797L268.215 49.4386L277.205 47.0932Z" fill="#FFD778"/>
<path d="M231.274 49.2432L273.296 40.057L263.133 37.5161L222.87 46.8978L231.274 49.2432Z" fill="#DFB249"/>
<path d="M212.623 50.3435L249.046 61.1088V100.425L212.623 83.791V50.3435Z" fill="url(#paint16_linear_1794_4825)"/>
<path d="M287.593 50.9506L249.046 61.1186V100.425L287.593 84.1409V50.9506Z" fill="url(#paint17_linear_1794_4825)"/>
<path d="M225.067 54.5929L233.566 57.1728V93.4437L225.067 89.6681V54.5929Z" fill="#FFDE8E"/>
<path d="M265.834 56.425L274.845 54.2894V89.6633L265.739 93.4437L265.834 56.425Z" fill="#FFD778"/>
<path fill-rule="evenodd" clip-rule="evenodd" d="M249.349 61.2704L249.349 100.425L248.742 100.425L248.742 61.2704L249.349 61.2704Z" fill="#FF5C62"/>
<path fill-rule="evenodd" clip-rule="evenodd" d="M212.623 50.3435L249.131 61.1186L249.131 61.7952L212.623 50.9506L212.623 50.3435Z" fill="#FF5C62" style="mix-blend-mode:lighten"/>
<path fill-rule="evenodd" clip-rule="evenodd" d="M287.593 51.5576L249.046 61.7256L249.046 61.1186L287.593 50.9506L287.593 51.5576Z" fill="#FF4D52" style="mix-blend-mode:lighten"/>
<path d="M210.752 43.3796L248.933 54.6071V66.5142L210.752 53.1522V43.3796Z" fill="url(#paint18_linear_1794_4825)"/>
<path d="M210.752 43.3796L248.933 54.6071V66.5142L210.752 53.1522V43.3796Z" fill="white" fill-opacity="0.1"/>
<path d="M289.519 43.7705L249.06 54.6071V66.5142L289.519 53.934V43.7705Z" fill="url(#paint19_linear_1794_4825)"/>
<path d="M289.519 43.7705L249.06 54.6071V66.5142L289.519 53.934V43.7705Z" fill="white" fill-opacity="0.1"/>
<path fill-rule="evenodd" clip-rule="evenodd" d="M249.451 54.3249L249.451 66.8338L248.669 66.8338L248.669 54.3249L249.451 54.3249Z" fill="#FF666C"/>
<path fill-rule="evenodd" clip-rule="evenodd" d="M210.752 43.3797L248.865 54.325L248.663 55.0804L210.752 44.1351L210.752 43.3797Z" fill="#FF666C"/>
<path d="M222.674 46.8978L231.304 49.2432V60.3839L222.87 57.4522L222.674 46.8978Z" fill="#FFEAB8"/>
<path fill-rule="evenodd" clip-rule="evenodd" d="M289.519 44.3569L248.9 55.4031L248.669 54.6559L289.519 43.7705L289.519 44.3569Z" fill="#FF666C"/>
<path d="M268.215 49.4386L277.32 47.0932V57.843L268.215 60.5256V49.4386Z" fill="#FFDE8E"/>
<g filter="url(#filter4_f_1794_4825)">
<ellipse cx="240.566" cy="43.5238" rx="2.12465" ry="1.97289" fill="white"/>
</g>
<path d="M276.951 34.2381C275.782 29.2992 269.404 24.6239 262.151 26.3754C256.092 28.9162 254.528 36.9297 250.904 39.4758C259.219 38.8843 256.209 43.6344 263.629 42.9621C275.527 41.8747 278.12 39.177 276.951 34.2381Z" fill="#FFDE8E"/>
<path d="M276.293 32.2867C277.786 34.541 278.118 39.7338 271.946 41.4355C268.254 42.453 263.127 43.5494 260.954 42.6635C261.565 40.4478 262.462 37.5891 265.474 34.9752C269.439 31.5367 274.8 30.0324 276.293 32.2867Z" fill="#FFCE5B"/>
<path d="M245.929 38.8842C245.981 34.9596 252.633 31.4753 256.026 33.259C259.553 35.1121 262.307 39.5184 261.392 41.9893C260.477 44.4601 258.28 44.7895 255.369 45.3661C252.457 45.9426 250.427 46.7168 249.462 45.3661C248.497 44.0154 242.806 37.8712 242.806 37.8712L245.929 38.8842Z" fill="#FFD470"/>
<path d="M257.159 35.4308C254.554 32.2991 253.356 32.8408 253.356 32.8408C253.356 32.8408 255.959 32.4505 258.633 35.1862C260.302 36.8937 261.168 38.3489 261.55 40.9022C261.932 43.4556 259.033 44.3594 259.415 44.177C259.415 44.177 257.656 44.9588 251.426 46.1913C251.426 46.1913 263.078 42.5436 257.159 35.4308Z" fill="#CEAB94" fill-opacity="0.34" style="mix-blend-mode:multiply"/>
<path d="M224.624 38.6888C225.837 33.7279 229.315 31.8149 237.329 32.6298C248.86 33.8025 254.342 44.9385 251.934 46.0975C246.722 48.6154 241.906 52.1506 234.41 50.283C226.914 48.4153 223.412 43.6497 224.624 38.6888Z" fill="#FFDE8E"/>
<path d="M233.42 42.7933C230.21 50.2748 234.788 51.1977 240.456 50.8068C244.94 50.4163 249.33 47.527 251.792 46.1159C250.229 43.966 247.883 41.816 246.124 40.6433C241.726 37.7115 235.087 38.9055 233.42 42.7933Z" fill="#FFCE5B"/>
<path d="M237.002 39.5342C234.545 40.1623 233.59 42.0989 233.42 42.9887C234.216 42.8317 236.115 42.3921 237.343 41.8896C238.571 41.3871 241.494 39.9006 242.801 39.2202C241.892 39.0631 239.458 38.9061 237.002 39.5342Z" fill="#CC2024"/>
<path fill-rule="evenodd" clip-rule="evenodd" d="M242.801 39.2202C241.934 39.0704 239.68 38.9207 237.343 39.4519L240.847 40.2195C241.608 39.8364 242.316 39.4727 242.801 39.2202Z" fill="#FFE6AA"/>
<path d="M240.651 33.2317C244.274 34.7096 247.883 39.6816 247.883 42.027C249.838 43.3952 251.058 45.3974 251.792 46.1315C252.574 45.9361 252.378 45.7406 252.574 45.3497C253.103 42.2006 248.274 37.3972 245.733 35.5771C244.314 34.5604 241.134 33.4711 240.651 33.2317Z" fill="#CEAB94" fill-opacity="0.34" style="mix-blend-mode:multiply"/>
<path d="M269.187 32.4343C273.488 31.1115 275.266 31.1979 276 31.9386C277.09 33.039 277.573 35.1662 276.888 37.4946C276.555 38.6265 275.344 39.9638 274.732 40.1931C274.435 40.2284 275.414 40.828 274.575 37.283C273.736 33.7379 270.341 32.9634 269.187 32.4343Z" fill="#CEAB94" fill-opacity="0.34" style="mix-blend-mode:multiply"/>
<path d="M208.988 170.244L249.251 187.639L299.482 170.244L262.542 156.562L217.393 164.967L208.988 170.244Z" fill="#DFE1EC"/>
<path d="M250.134 120.555L289.519 129.59L248.777 140.491L210.752 129.353L250.134 120.555Z" fill="#CC2024"/>
<path d="M277.205 132.913L240.656 122.554L230.297 124.899L268.215 135.258L277.205 132.913Z" fill="#FFD778"/>
<path d="M231.274 135.063L273.296 125.877L263.133 123.336L222.87 132.717L231.274 135.063Z" fill="#DFB249"/>
<path d="M212.623 136.163L249.046 146.928V186.244L212.623 169.611V136.163Z" fill="url(#paint20_linear_1794_4825)"/>
<path d="M287.593 136.77L249.046 146.938V186.244L287.593 169.961V136.77Z" fill="url(#paint21_linear_1794_4825)"/>
<path d="M225.067 140.412L233.566 142.992V179.263L225.067 175.488V140.412Z" fill="#FFDE8E"/>
<path d="M265.834 142.245L274.845 140.109V175.483L265.739 179.263L265.834 142.245Z" fill="#FFD778"/>
<path fill-rule="evenodd" clip-rule="evenodd" d="M249.349 147.09L249.349 186.244L248.742 186.244L248.742 147.09L249.349 147.09Z" fill="#FF5C62"/>
<path fill-rule="evenodd" clip-rule="evenodd" d="M212.623 136.163L249.131 146.938L249.131 147.615L212.623 136.77L212.623 136.163Z" fill="#FF5C62" style="mix-blend-mode:lighten"/>
<path fill-rule="evenodd" clip-rule="evenodd" d="M287.593 137.377L249.046 147.545L249.046 146.938L287.593 136.77L287.593 137.377Z" fill="#FF4D52" style="mix-blend-mode:lighten"/>
<path d="M210.752 129.199L248.933 140.427V152.334L210.752 138.972V129.199Z" fill="url(#paint22_linear_1794_4825)"/>
<path d="M210.752 129.199L248.933 140.427V152.334L210.752 138.972V129.199Z" fill="white" fill-opacity="0.1"/>
<path d="M289.519 129.59L249.06 140.427V152.334L289.519 139.754V129.59Z" fill="url(#paint23_linear_1794_4825)"/>
<path d="M289.519 129.59L249.06 140.427V152.334L289.519 139.754V129.59Z" fill="white" fill-opacity="0.1"/>
<path fill-rule="evenodd" clip-rule="evenodd" d="M249.451 140.145L249.451 152.653L248.669 152.653L248.669 140.145L249.451 140.145Z" fill="#FF666C"/>
<path fill-rule="evenodd" clip-rule="evenodd" d="M210.752 129.199L248.865 140.145L248.663 140.9L210.752 129.955L210.752 129.199Z" fill="#FF666C"/>
<path d="M222.674 132.717L231.304 135.063V146.204L222.87 143.272L222.674 132.717Z" fill="#FFEAB8"/>
<path fill-rule="evenodd" clip-rule="evenodd" d="M289.519 130.176L248.9 141.223L248.669 140.476L289.519 129.59L289.519 130.176Z" fill="#FF666C"/>
<path d="M268.215 135.258L277.32 132.913V143.663L268.215 146.345V135.258Z" fill="#FFDE8E"/>
<g filter="url(#filter5_f_1794_4825)">
<ellipse cx="240.566" cy="129.343" rx="2.12465" ry="1.97289" fill="white"/>
</g>
<path d="M276.951 120.058C275.782 115.119 269.404 110.444 262.151 112.195C256.092 114.736 254.528 122.749 250.904 125.295C259.219 124.704 256.209 129.454 263.629 128.782C275.527 127.694 278.12 124.997 276.951 120.058Z" fill="#FFDE8E"/>
<path d="M276.293 118.106C277.786 120.361 278.118 125.553 271.946 127.255C268.254 128.273 263.127 129.369 260.954 128.483C261.565 126.267 262.462 123.409 265.474 120.795C269.439 117.356 274.8 115.852 276.293 118.106Z" fill="#FFCE5B"/>
<path d="M245.929 124.704C245.981 120.779 252.633 117.295 256.026 119.079C259.553 120.932 262.307 125.338 261.392 127.809C260.477 130.28 258.28 130.609 255.369 131.186C252.457 131.762 250.427 132.536 249.462 131.186C248.497 129.835 242.806 123.691 242.806 123.691L245.929 124.704Z" fill="#FFD470"/>
<path d="M257.159 121.25C254.554 118.119 253.356 118.66 253.356 118.66C253.356 118.66 255.959 118.27 258.633 121.006C260.302 122.713 261.168 124.168 261.55 126.722C261.932 129.275 259.033 130.179 259.415 129.997C259.415 129.997 257.656 130.778 251.426 132.011C251.426 132.011 263.078 128.363 257.159 121.25Z" fill="#CEAB94" fill-opacity="0.34" style="mix-blend-mode:multiply"/>
<path d="M224.624 124.508C225.837 119.547 229.315 117.634 237.329 118.449C248.86 119.622 254.342 130.758 251.934 131.917C246.722 134.435 241.906 137.97 234.41 136.103C226.914 134.235 223.412 129.469 224.624 124.508Z" fill="#FFDE8E"/>
<path d="M233.42 128.613C230.21 136.094 234.788 137.017 240.456 136.626C244.94 136.236 249.33 133.347 251.792 131.936C250.229 129.786 247.883 127.636 246.124 126.463C241.726 123.531 235.087 124.725 233.42 128.613Z" fill="#FFCE5B"/>
<path d="M237.002 125.354C234.545 125.982 233.59 127.919 233.42 128.808C234.216 128.651 236.115 128.212 237.343 127.709C238.571 127.207 241.494 125.72 242.801 125.04C241.892 124.883 239.458 124.726 237.002 125.354Z" fill="#CC2024"/>
<path fill-rule="evenodd" clip-rule="evenodd" d="M242.801 125.04C241.934 124.89 239.68 124.74 237.343 125.271L240.847 126.039C241.608 125.656 242.316 125.292 242.801 125.04Z" fill="#FFE6AA"/>
<path d="M240.651 119.051C244.274 120.529 247.883 125.501 247.883 127.847C249.838 129.215 251.058 131.217 251.792 131.951C252.574 131.756 252.378 131.56 252.574 131.169C253.103 128.02 248.274 123.217 245.733 121.397C244.314 120.38 241.134 119.291 240.651 119.051Z" fill="#CEAB94" fill-opacity="0.34" style="mix-blend-mode:multiply"/>
<path d="M269.187 118.254C273.488 116.931 275.266 117.017 276 117.758C277.09 118.859 277.573 120.986 276.888 123.314C276.555 124.446 275.344 125.783 274.732 126.013C274.435 126.048 275.414 126.648 274.575 123.103C273.736 119.557 270.341 118.783 269.187 118.254Z" fill="#CEAB94" fill-opacity="0.34" style="mix-blend-mode:multiply"/>
<path d="M307.482 84.4245L347.745 101.82L397.976 84.4245L361.036 70.7429L315.887 79.1473L307.482 84.4245Z" fill="#DFE1EC"/>
<path d="M348.628 34.7357L388.013 43.7705L347.271 54.6717L309.246 43.5336L348.628 34.7357Z" fill="#CC2024"/>
<path d="M375.699 47.0932L339.15 36.7343L328.791 39.0797L366.709 49.4386L375.699 47.0932Z" fill="#FFD778"/>
<path d="M329.768 49.2432L371.79 40.057L361.627 37.5161L321.364 46.8978L329.768 49.2432Z" fill="#DFB249"/>
<path d="M311.117 50.3435L347.54 61.1088V100.425L311.117 83.791V50.3435Z" fill="url(#paint24_linear_1794_4825)"/>
<path d="M386.087 50.9506L347.54 61.1186V100.425L386.087 84.1409V50.9506Z" fill="url(#paint25_linear_1794_4825)"/>
<path d="M323.561 54.5929L332.06 57.1728V93.4437L323.561 89.6681V54.5929Z" fill="#FFDE8E"/>
<path d="M364.328 56.425L373.339 54.2894V89.6633L364.233 93.4437L364.328 56.425Z" fill="#FFD778"/>
<path fill-rule="evenodd" clip-rule="evenodd" d="M347.843 61.2704L347.843 100.425L347.236 100.425L347.236 61.2704L347.843 61.2704Z" fill="#FF5C62"/>
<path fill-rule="evenodd" clip-rule="evenodd" d="M311.117 50.3435L347.625 61.1186L347.625 61.7952L311.117 50.9506L311.117 50.3435Z" fill="#FF5C62" style="mix-blend-mode:lighten"/>
<path fill-rule="evenodd" clip-rule="evenodd" d="M386.087 51.5576L347.54 61.7256L347.54 61.1186L386.087 50.9506L386.087 51.5576Z" fill="#FF4D52" style="mix-blend-mode:lighten"/>
<path d="M309.246 43.3796L347.428 54.6071V66.5142L309.246 53.1522V43.3796Z" fill="url(#paint26_linear_1794_4825)"/>
<path d="M309.246 43.3796L347.428 54.6071V66.5142L309.246 53.1522V43.3796Z" fill="white" fill-opacity="0.1"/>
<path d="M388.013 43.7705L347.554 54.6071V66.5142L388.013 53.934V43.7705Z" fill="url(#paint27_linear_1794_4825)"/>
<path d="M388.013 43.7705L347.554 54.6071V66.5142L388.013 53.934V43.7705Z" fill="white" fill-opacity="0.1"/>
<path fill-rule="evenodd" clip-rule="evenodd" d="M347.945 54.3249L347.945 66.8338L347.163 66.8338L347.163 54.3249L347.945 54.3249Z" fill="#FF666C"/>
<path fill-rule="evenodd" clip-rule="evenodd" d="M309.246 43.3797L347.359 54.325L347.157 55.0804L309.246 44.1351L309.246 43.3797Z" fill="#FF666C"/>
<path d="M321.168 46.8978L329.798 49.2432V60.3839L321.364 57.4522L321.168 46.8978Z" fill="#FFEAB8"/>
<path fill-rule="evenodd" clip-rule="evenodd" d="M388.013 44.3569L347.394 55.4031L347.163 54.6559L388.013 43.7705L388.013 44.3569Z" fill="#FF666C"/>
<path d="M366.709 49.4386L375.814 47.0932V57.843L366.709 60.5256V49.4386Z" fill="#FFDE8E"/>
<g filter="url(#filter6_f_1794_4825)">
<ellipse cx="339.06" cy="43.5238" rx="2.12465" ry="1.97289" fill="white"/>
</g>
<path d="M375.445 34.2381C374.276 29.2992 367.898 24.6239 360.645 26.3754C354.586 28.9162 353.022 36.9297 349.398 39.4758C357.713 38.8843 354.703 43.6344 362.123 42.9621C374.021 41.8747 376.614 39.177 375.445 34.2381Z" fill="#FFDE8E"/>
<path d="M374.787 32.2867C376.28 34.541 376.612 39.7338 370.44 41.4355C366.748 42.453 361.621 43.5494 359.448 42.6635C360.059 40.4478 360.956 37.5891 363.968 34.9752C367.933 31.5367 373.294 30.0324 374.787 32.2867Z" fill="#FFCE5B"/>
<path d="M344.423 38.8842C344.475 34.9596 351.127 31.4753 354.52 33.259C358.047 35.1121 360.801 39.5184 359.886 41.9893C358.971 44.4601 356.774 44.7895 353.863 45.3661C350.951 45.9426 348.921 46.7168 347.956 45.3661C346.991 44.0154 341.3 37.8712 341.3 37.8712L344.423 38.8842Z" fill="#FFD470"/>
<path d="M355.653 35.4308C353.048 32.2991 351.85 32.8408 351.85 32.8408C351.85 32.8408 354.453 32.4505 357.127 35.1862C358.796 36.8937 359.662 38.3489 360.044 40.9022C360.426 43.4556 357.527 44.3594 357.909 44.177C357.909 44.177 356.15 44.9588 349.92 46.1913C349.92 46.1913 361.572 42.5436 355.653 35.4308Z" fill="#CEAB94" fill-opacity="0.34" style="mix-blend-mode:multiply"/>
<path d="M323.118 38.6888C324.331 33.7279 327.809 31.8149 335.823 32.6298C347.354 33.8025 352.836 44.9385 350.428 46.0975C345.216 48.6154 340.4 52.1506 332.904 50.283C325.408 48.4153 321.906 43.6497 323.118 38.6888Z" fill="#FFDE8E"/>
<path d="M331.914 42.7933C328.704 50.2748 333.282 51.1977 338.95 50.8068C343.434 50.4163 347.824 47.527 350.286 46.1159C348.722 43.966 346.377 41.816 344.618 40.6433C340.22 37.7115 333.581 38.9055 331.914 42.7933Z" fill="#FFCE5B"/>
<path d="M335.496 39.5342C333.039 40.1623 332.084 42.0989 331.914 42.9887C332.71 42.8317 334.609 42.3921 335.837 41.8896C337.065 41.3871 339.988 39.9006 341.295 39.2202C340.386 39.0631 337.952 38.9061 335.496 39.5342Z" fill="#CC2024"/>
<path fill-rule="evenodd" clip-rule="evenodd" d="M341.295 39.2202C340.428 39.0704 338.174 38.9207 335.837 39.4519L339.341 40.2195C340.102 39.8364 340.81 39.4727 341.295 39.2202Z" fill="#FFE6AA"/>
<path d="M339.145 33.2317C342.768 34.7096 346.377 39.6816 346.377 42.027C348.332 43.3952 349.552 45.3974 350.286 46.1315C351.068 45.9361 350.872 45.7406 351.068 45.3497C351.597 42.2006 346.768 37.3972 344.227 35.5771C342.808 34.5604 339.628 33.4711 339.145 33.2317Z" fill="#CEAB94" fill-opacity="0.34" style="mix-blend-mode:multiply"/>
<path d="M367.681 32.4343C371.982 31.1115 373.76 31.1979 374.494 31.9386C375.584 33.039 376.067 35.1662 375.382 37.4946C375.049 38.6265 373.838 39.9638 373.226 40.1931C372.929 40.2284 373.908 40.828 373.069 37.283C372.23 33.7379 368.835 32.9634 367.681 32.4343Z" fill="#CEAB94" fill-opacity="0.34" style="mix-blend-mode:multiply"/>
<path d="M307.482 170.244L347.745 187.639L397.976 170.244L361.036 156.562L315.887 164.967L307.482 170.244Z" fill="#DFE1EC"/>
<path d="M348.628 120.555L388.013 129.59L347.271 140.491L309.246 129.353L348.628 120.555Z" fill="#CC2024"/>
<path d="M375.699 132.913L339.15 122.554L328.791 124.899L366.709 135.258L375.699 132.913Z" fill="#FFD778"/>
<path d="M329.768 135.063L371.79 125.877L361.627 123.336L321.364 132.717L329.768 135.063Z" fill="#DFB249"/>
<path d="M311.117 136.163L347.54 146.928V186.244L311.117 169.611V136.163Z" fill="url(#paint28_linear_1794_4825)"/>
<path d="M386.087 136.77L347.54 146.938V186.244L386.087 169.961V136.77Z" fill="url(#paint29_linear_1794_4825)"/>
<path d="M323.561 140.412L332.06 142.992V179.263L323.561 175.488V140.412Z" fill="#FFDE8E"/>
<path d="M364.328 142.245L373.339 140.109V175.483L364.233 179.263L364.328 142.245Z" fill="#FFD778"/>
<path fill-rule="evenodd" clip-rule="evenodd" d="M347.843 147.09L347.843 186.244L347.236 186.244L347.236 147.09L347.843 147.09Z" fill="#FF5C62"/>
<path fill-rule="evenodd" clip-rule="evenodd" d="M311.117 136.163L347.625 146.938L347.625 147.615L311.117 136.77L311.117 136.163Z" fill="#FF5C62" style="mix-blend-mode:lighten"/>
<path fill-rule="evenodd" clip-rule="evenodd" d="M386.087 137.377L347.54 147.545L347.54 146.938L386.087 136.77L386.087 137.377Z" fill="#FF4D52" style="mix-blend-mode:lighten"/>
<path d="M309.246 129.199L347.428 140.427V152.334L309.246 138.972V129.199Z" fill="url(#paint30_linear_1794_4825)"/>
<path d="M309.246 129.199L347.428 140.427V152.334L309.246 138.972V129.199Z" fill="white" fill-opacity="0.1"/>
<path d="M388.013 129.59L347.554 140.427V152.334L388.013 139.754V129.59Z" fill="url(#paint31_linear_1794_4825)"/>
<path d="M388.013 129.59L347.554 140.427V152.334L388.013 139.754V129.59Z" fill="white" fill-opacity="0.1"/>
<path fill-rule="evenodd" clip-rule="evenodd" d="M347.945 140.145L347.945 152.653L347.163 152.653L347.163 140.145L347.945 140.145Z" fill="#FF666C"/>
<path fill-rule="evenodd" clip-rule="evenodd" d="M309.246 129.199L347.359 140.145L347.157 140.9L309.246 129.955L309.246 129.199Z" fill="#FF666C"/>
<path d="M321.168 132.717L329.798 135.063V146.204L321.364 143.272L321.168 132.717Z" fill="#FFEAB8"/>
<path fill-rule="evenodd" clip-rule="evenodd" d="M388.013 130.176L347.394 141.223L347.163 140.476L388.013 129.59L388.013 130.176Z" fill="#FF666C"/>
<path d="M366.709 135.258L375.814 132.913V143.663L366.709 146.345V135.258Z" fill="#FFDE8E"/>
<g filter="url(#filter7_f_1794_4825)">
<ellipse cx="339.06" cy="129.343" rx="2.12465" ry="1.97289" fill="white"/>
</g>
<path d="M375.445 120.058C374.276 115.119 367.898 110.444 360.645 112.195C354.586 114.736 353.022 122.749 349.398 125.295C357.713 124.704 354.703 129.454 362.123 128.782C374.021 127.694 376.614 124.997 375.445 120.058Z" fill="#FFDE8E"/>
<path d="M374.787 118.106C376.28 120.361 376.612 125.553 370.44 127.255C366.748 128.273 361.621 129.369 359.448 128.483C360.059 126.267 360.956 123.409 363.968 120.795C367.933 117.356 373.294 115.852 374.787 118.106Z" fill="#FFCE5B"/>
<path d="M344.423 124.704C344.475 120.779 351.127 117.295 354.52 119.079C358.047 120.932 360.801 125.338 359.886 127.809C358.971 130.28 356.774 130.609 353.863 131.186C350.951 131.762 348.921 132.536 347.956 131.186C346.991 129.835 341.3 123.691 341.3 123.691L344.423 124.704Z" fill="#FFD470"/>
<path d="M355.653 121.25C353.048 118.119 351.85 118.66 351.85 118.66C351.85 118.66 354.453 118.27 357.127 121.006C358.796 122.713 359.662 124.168 360.044 126.722C360.426 129.275 357.527 130.179 357.909 129.997C357.909 129.997 356.15 130.778 349.92 132.011C349.92 132.011 361.572 128.363 355.653 121.25Z" fill="#CEAB94" fill-opacity="0.34" style="mix-blend-mode:multiply"/>
<path d="M323.118 124.508C324.331 119.547 327.809 117.634 335.823 118.449C347.354 119.622 352.836 130.758 350.428 131.917C345.216 134.435 340.4 137.97 332.904 136.103C325.408 134.235 321.906 129.469 323.118 124.508Z" fill="#FFDE8E"/>
<path d="M331.914 128.613C328.704 136.094 333.282 137.017 338.95 136.626C343.434 136.236 347.824 133.347 350.286 131.936C348.722 129.786 346.377 127.636 344.618 126.463C340.22 123.531 333.581 124.725 331.914 128.613Z" fill="#FFCE5B"/>
<path d="M335.496 125.354C333.039 125.982 332.084 127.919 331.914 128.808C332.71 128.651 334.609 128.212 335.837 127.709C337.065 127.207 339.988 125.72 341.295 125.04C340.386 124.883 337.952 124.726 335.496 125.354Z" fill="#CC2024"/>
<path fill-rule="evenodd" clip-rule="evenodd" d="M341.295 125.04C340.428 124.89 338.174 124.74 335.837 125.271L339.341 126.039C340.102 125.656 340.81 125.292 341.295 125.04Z" fill="#FFE6AA"/>
<path d="M339.145 119.051C342.768 120.529 346.377 125.501 346.377 127.847C348.332 129.215 349.552 131.217 350.286 131.951C351.068 131.756 350.872 131.56 351.068 131.169C351.597 128.02 346.768 123.217 344.227 121.397C342.808 120.38 339.628 119.291 339.145 119.051Z" fill="#CEAB94" fill-opacity="0.34" style="mix-blend-mode:multiply"/>
<path d="M367.681 118.254C371.982 116.931 373.76 117.017 374.494 117.758C375.584 118.859 376.067 120.986 375.382 123.314C375.049 124.446 373.838 125.783 373.226 126.013C372.929 126.048 373.908 126.648 373.069 123.103C372.23 119.557 368.835 118.783 367.681 118.254Z" fill="#CEAB94" fill-opacity="0.34" style="mix-blend-mode:multiply"/>
<path d="M405.976 84.4245L446.239 101.82L496.47 84.4245L459.53 70.7429L414.381 79.1473L405.976 84.4245Z" fill="#DFE1EC"/>
<path d="M447.122 34.7357L486.507 43.7705L445.765 54.6717L407.74 43.5336L447.122 34.7357Z" fill="#CC2024"/>
<path d="M474.193 47.0932L437.644 36.7343L427.285 39.0797L465.203 49.4386L474.193 47.0932Z" fill="#FFD778"/>
<path d="M428.262 49.2432L470.284 40.057L460.121 37.5161L419.858 46.8978L428.262 49.2432Z" fill="#DFB249"/>
<path d="M409.611 50.3435L446.034 61.1088V100.425L409.611 83.791V50.3435Z" fill="url(#paint32_linear_1794_4825)"/>
<path d="M484.581 50.9506L446.034 61.1186V100.425L484.581 84.1409V50.9506Z" fill="url(#paint33_linear_1794_4825)"/>
<path d="M422.056 54.5929L430.554 57.1728V93.4437L422.056 89.6681V54.5929Z" fill="#FFDE8E"/>
<path d="M462.822 56.425L471.833 54.2894V89.6633L462.728 93.4437L462.822 56.425Z" fill="#FFD778"/>
<path fill-rule="evenodd" clip-rule="evenodd" d="M446.337 61.2704L446.337 100.425L445.73 100.425L445.73 61.2704L446.337 61.2704Z" fill="#FF5C62"/>
<path fill-rule="evenodd" clip-rule="evenodd" d="M409.611 50.3435L446.119 61.1186L446.119 61.7952L409.611 50.9506L409.611 50.3435Z" fill="#FF5C62" style="mix-blend-mode:lighten"/>
<path fill-rule="evenodd" clip-rule="evenodd" d="M484.581 51.5576L446.034 61.7256L446.034 61.1186L484.581 50.9506L484.581 51.5576Z" fill="#FF4D52" style="mix-blend-mode:lighten"/>
<path d="M407.74 43.3796L445.922 54.6071V66.5142L407.74 53.1522V43.3796Z" fill="url(#paint34_linear_1794_4825)"/>
<path d="M407.74 43.3796L445.922 54.6071V66.5142L407.74 53.1522V43.3796Z" fill="white" fill-opacity="0.1"/>
<path d="M486.507 43.7705L446.048 54.6071V66.5142L486.507 53.934V43.7705Z" fill="url(#paint35_linear_1794_4825)"/>
<path d="M486.507 43.7705L446.048 54.6071V66.5142L486.507 53.934V43.7705Z" fill="white" fill-opacity="0.1"/>
<path fill-rule="evenodd" clip-rule="evenodd" d="M446.439 54.3249L446.439 66.8338L445.658 66.8338L445.658 54.3249L446.439 54.3249Z" fill="#FF666C"/>
<path fill-rule="evenodd" clip-rule="evenodd" d="M407.74 43.3797L445.853 54.325L445.652 55.0804L407.74 44.1351L407.74 43.3797Z" fill="#FF666C"/>
<path d="M419.663 46.8978L428.292 49.2432V60.3839L419.858 57.4522L419.663 46.8978Z" fill="#FFEAB8"/>
<path fill-rule="evenodd" clip-rule="evenodd" d="M486.507 44.3569L445.888 55.4031L445.658 54.6559L486.507 43.7705L486.507 44.3569Z" fill="#FF666C"/>
<path d="M465.203 49.4386L474.308 47.0932V57.843L465.203 60.5256V49.4386Z" fill="#FFDE8E"/>
<g filter="url(#filter8_f_1794_4825)">
<ellipse cx="437.554" cy="43.5238" rx="2.12465" ry="1.97289" fill="white"/>
</g>
<path d="M473.939 34.2381C472.77 29.2992 466.393 24.6239 459.139 26.3754C453.08 28.9162 451.517 36.9297 447.892 39.4758C456.207 38.8843 453.197 43.6344 460.617 42.9621C472.515 41.8747 475.108 39.177 473.939 34.2381Z" fill="#FFDE8E"/>
<path d="M473.281 32.2867C474.775 34.541 475.107 39.7338 468.934 41.4355C465.243 42.453 460.116 43.5494 457.942 42.6635C458.553 40.4478 459.45 37.5891 462.462 34.9752C466.427 31.5367 471.788 30.0324 473.281 32.2867Z" fill="#FFCE5B"/>
<path d="M442.917 38.8842C442.969 34.9596 449.621 31.4753 453.014 33.259C456.542 35.1121 459.295 39.5184 458.38 41.9893C457.465 44.4601 455.269 44.7895 452.357 45.3661C449.445 45.9426 447.415 46.7168 446.45 45.3661C445.485 44.0154 439.794 37.8712 439.794 37.8712L442.917 38.8842Z" fill="#FFD470"/>
<path d="M454.148 35.4308C451.542 32.2991 450.344 32.8408 450.344 32.8408C450.344 32.8408 452.947 32.4505 455.621 35.1862C457.29 36.8937 458.156 38.3489 458.538 40.9022C458.92 43.4556 456.021 44.3594 456.403 44.177C456.403 44.177 454.644 44.9588 448.414 46.1913C448.414 46.1913 460.066 42.5436 454.148 35.4308Z" fill="#CEAB94" fill-opacity="0.34" style="mix-blend-mode:multiply"/>
<path d="M421.613 38.6888C422.825 33.7279 426.303 31.8149 434.317 32.6298C445.849 33.8025 451.33 44.9385 448.922 46.0975C443.71 48.6154 438.894 52.1506 431.398 50.283C423.902 48.4153 420.4 43.6497 421.613 38.6888Z" fill="#FFDE8E"/>
<path d="M430.408 42.7933C427.198 50.2748 431.776 51.1977 437.444 50.8068C441.929 50.4163 446.318 47.527 448.78 46.1159C447.217 43.966 444.871 41.816 443.112 40.6433C438.715 37.7115 432.076 38.9055 430.408 42.7933Z" fill="#FFCE5B"/>
<path d="M433.99 39.5342C431.534 40.1623 430.578 42.0989 430.408 42.9887C431.204 42.8317 433.103 42.3921 434.331 41.8896C435.559 41.3871 438.482 39.9006 439.79 39.2202C438.88 39.0631 436.446 38.9061 433.99 39.5342Z" fill="#CC2024"/>
<path fill-rule="evenodd" clip-rule="evenodd" d="M439.79 39.2202C438.922 39.0704 436.669 38.9207 434.331 39.4519L437.835 40.2195C438.596 39.8364 439.304 39.4727 439.79 39.2202Z" fill="#FFE6AA"/>
<path d="M437.64 33.2317C441.262 34.7096 444.871 39.6816 444.871 42.027C446.826 43.3952 448.046 45.3974 448.78 46.1315C449.562 45.9361 449.367 45.7406 449.562 45.3497C450.091 42.2006 445.262 37.3972 442.721 35.5771C441.302 34.5604 438.122 33.4711 437.64 33.2317Z" fill="#CEAB94" fill-opacity="0.34" style="mix-blend-mode:multiply"/>
<path d="M466.176 32.4343C470.476 31.1115 472.254 31.1979 472.988 31.9386C474.079 33.039 474.561 35.1662 473.876 37.4946C473.543 38.6265 472.332 39.9638 471.72 40.1931C471.423 40.2284 472.402 40.828 471.563 37.283C470.724 33.7379 467.329 32.9634 466.176 32.4343Z" fill="#CEAB94" fill-opacity="0.34" style="mix-blend-mode:multiply"/>
<path d="M405.976 170.244L446.239 187.639L496.47 170.244L459.53 156.562L414.381 164.967L405.976 170.244Z" fill="#DFE1EC"/>
<path d="M447.122 120.555L486.507 129.59L445.765 140.491L407.74 129.353L447.122 120.555Z" fill="#CC2024"/>
<path d="M474.193 132.913L437.644 122.554L427.285 124.899L465.203 135.258L474.193 132.913Z" fill="#FFD778"/>
<path d="M428.262 135.063L470.284 125.877L460.121 123.336L419.858 132.717L428.262 135.063Z" fill="#DFB249"/>
<path d="M409.611 136.163L446.034 146.928V186.244L409.611 169.611V136.163Z" fill="url(#paint36_linear_1794_4825)"/>
<path d="M484.581 136.77L446.034 146.938V186.244L484.581 169.961V136.77Z" fill="url(#paint37_linear_1794_4825)"/>
<path d="M422.056 140.412L430.554 142.992V179.263L422.056 175.488V140.412Z" fill="#FFDE8E"/>
<path d="M462.822 142.245L471.833 140.109V175.483L462.728 179.263L462.822 142.245Z" fill="#FFD778"/>
<path fill-rule="evenodd" clip-rule="evenodd" d="M446.337 147.09L446.337 186.244L445.73 186.244L445.73 147.09L446.337 147.09Z" fill="#FF5C62"/>
<path fill-rule="evenodd" clip-rule="evenodd" d="M409.611 136.163L446.119 146.938L446.119 147.615L409.611 136.77L409.611 136.163Z" fill="#FF5C62" style="mix-blend-mode:lighten"/>
<path fill-rule="evenodd" clip-rule="evenodd" d="M484.581 137.377L446.034 147.545L446.034 146.938L484.581 136.77L484.581 137.377Z" fill="#FF4D52" style="mix-blend-mode:lighten"/>
<path d="M407.74 129.199L445.922 140.427V152.334L407.74 138.972V129.199Z" fill="url(#paint38_linear_1794_4825)"/>
<path d="M407.74 129.199L445.922 140.427V152.334L407.74 138.972V129.199Z" fill="white" fill-opacity="0.1"/>
<path d="M486.507 129.59L446.048 140.427V152.334L486.507 139.754V129.59Z" fill="url(#paint39_linear_1794_4825)"/>
<path d="M486.507 129.59L446.048 140.427V152.334L486.507 139.754V129.59Z" fill="white" fill-opacity="0.1"/>
<path fill-rule="evenodd" clip-rule="evenodd" d="M446.439 140.145L446.439 152.653L445.658 152.653L445.658 140.145L446.439 140.145Z" fill="#FF666C"/>
<path fill-rule="evenodd" clip-rule="evenodd" d="M407.74 129.199L445.853 140.145L445.652 140.9L407.74 129.955L407.74 129.199Z" fill="#FF666C"/>
<path d="M419.663 132.717L428.292 135.063V146.204L419.858 143.272L419.663 132.717Z" fill="#FFEAB8"/>
<path fill-rule="evenodd" clip-rule="evenodd" d="M486.507 130.176L445.888 141.223L445.658 140.476L486.507 129.59L486.507 130.176Z" fill="#FF666C"/>
<path d="M465.203 135.258L474.308 132.913V143.663L465.203 146.345V135.258Z" fill="#FFDE8E"/>
<g filter="url(#filter9_f_1794_4825)">
<ellipse cx="437.554" cy="129.343" rx="2.12465" ry="1.97289" fill="white"/>
</g>
<path d="M473.939 120.058C472.77 115.119 466.393 110.444 459.139 112.195C453.08 114.736 451.517 122.749 447.892 125.295C456.207 124.704 453.197 129.454 460.617 128.782C472.515 127.694 475.108 124.997 473.939 120.058Z" fill="#FFDE8E"/>
<path d="M473.281 118.106C474.775 120.361 475.107 125.553 468.934 127.255C465.243 128.273 460.116 129.369 457.942 128.483C458.553 126.267 459.45 123.409 462.462 120.795C466.427 117.356 471.788 115.852 473.281 118.106Z" fill="#FFCE5B"/>
<path d="M442.917 124.704C442.969 120.779 449.621 117.295 453.014 119.079C456.542 120.932 459.295 125.338 458.38 127.809C457.465 130.28 455.269 130.609 452.357 131.186C449.445 131.762 447.415 132.536 446.45 131.186C445.485 129.835 439.794 123.691 439.794 123.691L442.917 124.704Z" fill="#FFD470"/>
<path d="M454.148 121.25C451.542 118.119 450.344 118.66 450.344 118.66C450.344 118.66 452.947 118.27 455.621 121.006C457.29 122.713 458.156 124.168 458.538 126.722C458.92 129.275 456.021 130.179 456.403 129.997C456.403 129.997 454.644 130.778 448.414 132.011C448.414 132.011 460.066 128.363 454.148 121.25Z" fill="#CEAB94" fill-opacity="0.34" style="mix-blend-mode:multiply"/>
<path d="M421.613 124.508C422.825 119.547 426.303 117.634 434.317 118.449C445.849 119.622 451.33 130.758 448.922 131.917C443.71 134.435 438.894 137.97 431.398 136.103C423.902 134.235 420.4 129.469 421.613 124.508Z" fill="#FFDE8E"/>
<path d="M430.408 128.613C427.198 136.094 431.776 137.017 437.444 136.626C441.929 136.236 446.318 133.347 448.78 131.936C447.217 129.786 444.871 127.636 443.112 126.463C438.715 123.531 432.076 124.725 430.408 128.613Z" fill="#FFCE5B"/>
<path d="M433.99 125.354C431.534 125.982 430.578 127.919 430.408 128.808C431.204 128.651 433.103 128.212 434.331 127.709C435.559 127.207 438.482 125.72 439.79 125.04C438.88 124.883 436.446 124.726 433.99 125.354Z" fill="#CC2024"/>
<path fill-rule="evenodd" clip-rule="evenodd" d="M439.79 125.04C438.922 124.89 436.669 124.74 434.331 125.271L437.835 126.039C438.596 125.656 439.304 125.292 439.79 125.04Z" fill="#FFE6AA"/>
<path d="M437.64 119.051C441.262 120.529 444.871 125.501 444.871 127.847C446.826 129.215 448.046 131.217 448.78 131.951C449.562 131.756 449.367 131.56 449.562 131.169C450.091 128.02 445.262 123.217 442.721 121.397C441.302 120.38 438.122 119.291 437.64 119.051Z" fill="#CEAB94" fill-opacity="0.34" style="mix-blend-mode:multiply"/>
<path d="M466.176 118.254C470.476 116.931 472.254 117.017 472.988 117.758C474.079 118.859 474.561 120.986 473.876 123.314C473.543 124.446 472.332 125.783 471.72 126.013C471.423 126.048 472.402 126.648 471.563 123.103C470.724 119.557 467.329 118.783 466.176 118.254Z" fill="#CEAB94" fill-opacity="0.34" style="mix-blend-mode:multiply"/>
<path d="M446 11C446 8.79086 447.791 7 450 7L587.201 7C588.075 7 588.529 8.0423 587.933 8.68173L569 29L587.933 49.3183C588.529 49.9577 588.075 51 587.201 51H450C447.791 51 446 49.2091 446 47V11Z" fill="#76DA5D"/>
<path d="M463.308 39V21.388L465.688 23.684H459.668V19.4H468.852V39H463.308ZM488.6 39.392C486.92 39.392 485.427 38.9907 484.12 38.188C482.832 37.3853 481.815 36.228 481.068 34.716C480.321 33.204 479.948 31.3653 479.948 29.2C479.948 27.0347 480.321 25.196 481.068 23.684C481.815 22.172 482.832 21.0147 484.12 20.212C485.427 19.4093 486.92 19.008 488.6 19.008C490.261 19.008 491.736 19.4093 493.024 20.212C494.331 21.0147 495.357 22.172 496.104 23.684C496.851 25.196 497.224 27.0347 497.224 29.2C497.224 31.3653 496.851 33.204 496.104 34.716C495.357 36.228 494.331 37.3853 493.024 38.188C491.736 38.9907 490.261 39.392 488.6 39.392ZM488.6 34.856C489.197 34.856 489.72 34.6693 490.168 34.296C490.635 33.9227 490.999 33.3253 491.26 32.504C491.521 31.664 491.652 30.5627 491.652 29.2C491.652 27.8187 491.521 26.7173 491.26 25.896C490.999 25.0747 490.635 24.4773 490.168 24.104C489.72 23.7307 489.197 23.544 488.6 23.544C488.003 23.544 487.471 23.7307 487.004 24.104C486.556 24.4773 486.192 25.0747 485.912 25.896C485.651 26.7173 485.52 27.8187 485.52 29.2C485.52 30.5627 485.651 31.664 485.912 32.504C486.192 33.3253 486.556 33.9227 487.004 34.296C487.471 34.6693 488.003 34.856 488.6 34.856ZM507.768 39.392C506.088 39.392 504.595 38.9907 503.288 38.188C502 37.3853 500.983 36.228 500.236 34.716C499.489 33.204 499.116 31.3653 499.116 29.2C499.116 27.0347 499.489 25.196 500.236 23.684C500.983 22.172 502 21.0147 503.288 20.212C504.595 19.4093 506.088 19.008 507.768 19.008C509.429 19.008 510.904 19.4093 512.192 20.212C513.499 21.0147 514.525 22.172 515.272 23.684C516.019 25.196 516.392 27.0347 516.392 29.2C516.392 31.3653 516.019 33.204 515.272 34.716C514.525 36.228 513.499 37.3853 512.192 38.188C510.904 38.9907 509.429 39.392 507.768 39.392ZM507.768 34.856C508.365 34.856 508.888 34.6693 509.336 34.296C509.803 33.9227 510.167 33.3253 510.428 32.504C510.689 31.664 510.82 30.5627 510.82 29.2C510.82 27.8187 510.689 26.7173 510.428 25.896C510.167 25.0747 509.803 24.4773 509.336 24.104C508.888 23.7307 508.365 23.544 507.768 23.544C507.171 23.544 506.639 23.7307 506.172 24.104C505.724 24.4773 505.36 25.0747 505.08 25.896C504.819 26.7173 504.688 27.8187 504.688 29.2C504.688 30.5627 504.819 31.664 505.08 32.504C505.36 33.3253 505.724 33.9227 506.172 34.296C506.639 34.6693 507.171 34.856 507.768 34.856ZM526.936 39.392C525.256 39.392 523.763 38.9907 522.456 38.188C521.168 37.3853 520.151 36.228 519.404 34.716C518.657 33.204 518.284 31.3653 518.284 29.2C518.284 27.0347 518.657 25.196 519.404 23.684C520.151 22.172 521.168 21.0147 522.456 20.212C523.763 19.4093 525.256 19.008 526.936 19.008C528.597 19.008 530.072 19.4093 531.36 20.212C532.667 21.0147 533.693 22.172 534.44 23.684C535.187 25.196 535.56 27.0347 535.56 29.2C535.56 31.3653 535.187 33.204 534.44 34.716C533.693 36.228 532.667 37.3853 531.36 38.188C530.072 38.9907 528.597 39.392 526.936 39.392ZM526.936 34.856C527.533 34.856 528.056 34.6693 528.504 34.296C528.971 33.9227 529.335 33.3253 529.596 32.504C529.857 31.664 529.988 30.5627 529.988 29.2C529.988 27.8187 529.857 26.7173 529.596 25.896C529.335 25.0747 528.971 24.4773 528.504 24.104C528.056 23.7307 527.533 23.544 526.936 23.544C526.339 23.544 525.807 23.7307 525.34 24.104C524.892 24.4773 524.528 25.0747 524.248 25.896C523.987 26.7173 523.856 27.8187 523.856 29.2C523.856 30.5627 523.987 31.664 524.248 32.504C524.528 33.3253 524.892 33.9227 525.34 34.296C525.807 34.6693 526.339 34.856 526.936 34.856Z" fill="#303133"/>
<path d="M560.791 33.82C560.791 35.2573 560.24 36.48 559.139 37.488C558.037 38.4773 556.423 39.028 554.295 39.14V42.36H552.895V39.168C551.532 39.0933 550.244 38.832 549.031 38.384C547.836 37.9173 546.893 37.3293 546.203 36.62L547.015 35.024C547.668 35.6587 548.517 36.1907 549.563 36.62C550.627 37.0493 551.737 37.3013 552.895 37.376V30.012C551.607 29.6947 550.533 29.3587 549.675 29.004C548.816 28.6307 548.097 28.0987 547.519 27.408C546.959 26.6987 546.679 25.7653 546.679 24.608C546.679 23.1707 547.201 21.9667 548.247 20.996C549.292 20.0067 550.841 19.428 552.895 19.26V16.04H554.295V19.232C555.359 19.2693 556.385 19.4467 557.375 19.764C558.383 20.0627 559.251 20.464 559.979 20.968L559.279 22.62C558.513 22.1347 557.701 21.752 556.843 21.472C555.984 21.192 555.135 21.0333 554.295 20.996V28.416C555.676 28.752 556.805 29.0973 557.683 29.452C558.56 29.788 559.297 30.3107 559.895 31.02C560.492 31.7293 560.791 32.6627 560.791 33.82ZM548.723 24.552C548.723 25.5227 549.077 26.26 549.787 26.764C550.515 27.268 551.551 27.6973 552.895 28.052V21.052C551.513 21.164 550.468 21.5467 549.759 22.2C549.068 22.8347 548.723 23.6187 548.723 24.552ZM554.295 37.376C555.769 37.264 556.88 36.9 557.627 36.284C558.373 35.668 558.747 34.884 558.747 33.932C558.747 32.924 558.364 32.168 557.599 31.664C556.833 31.16 555.732 30.7307 554.295 30.376V37.376Z" fill="#303133"/>
<defs>
<filter id="filter0_f_1794_4825" x="21.4528" y="21.5509" width="44.2493" height="43.9458" filterUnits="userSpaceOnUse" color-interpolation-filters="sRGB">
<feFlood flood-opacity="0" result="BackgroundImageFix"/>
<feBlend mode="normal" in="SourceGraphic" in2="BackgroundImageFix" result="shape"/>
<feGaussianBlur stdDeviation="10" result="effect1_foregroundBlur_1794_4825"/>
</filter>
<filter id="filter1_f_1794_4825" x="21.4528" y="107.371" width="44.2493" height="43.9458" filterUnits="userSpaceOnUse" color-interpolation-filters="sRGB">
<feFlood flood-opacity="0" result="BackgroundImageFix"/>
<feBlend mode="normal" in="SourceGraphic" in2="BackgroundImageFix" result="shape"/>
<feGaussianBlur stdDeviation="10" result="effect1_foregroundBlur_1794_4825"/>
</filter>
<filter id="filter2_f_1794_4825" x="119.947" y="21.5509" width="44.2493" height="43.9458" filterUnits="userSpaceOnUse" color-interpolation-filters="sRGB">
<feFlood flood-opacity="0" result="BackgroundImageFix"/>
<feBlend mode="normal" in="SourceGraphic" in2="BackgroundImageFix" result="shape"/>
<feGaussianBlur stdDeviation="10" result="effect1_foregroundBlur_1794_4825"/>
</filter>
<filter id="filter3_f_1794_4825" x="119.947" y="107.371" width="44.2493" height="43.9458" filterUnits="userSpaceOnUse" color-interpolation-filters="sRGB">
<feFlood flood-opacity="0" result="BackgroundImageFix"/>
<feBlend mode="normal" in="SourceGraphic" in2="BackgroundImageFix" result="shape"/>
<feGaussianBlur stdDeviation="10" result="effect1_foregroundBlur_1794_4825"/>
</filter>
<filter id="filter4_f_1794_4825" x="218.441" y="21.5509" width="44.2493" height="43.9458" filterUnits="userSpaceOnUse" color-interpolation-filters="sRGB">
<feFlood flood-opacity="0" result="BackgroundImageFix"/>
<feBlend mode="normal" in="SourceGraphic" in2="BackgroundImageFix" result="shape"/>
<feGaussianBlur stdDeviation="10" result="effect1_foregroundBlur_1794_4825"/>
</filter>
<filter id="filter5_f_1794_4825" x="218.441" y="107.371" width="44.2493" height="43.9458" filterUnits="userSpaceOnUse" color-interpolation-filters="sRGB">
<feFlood flood-opacity="0" result="BackgroundImageFix"/>
<feBlend mode="normal" in="SourceGraphic" in2="BackgroundImageFix" result="shape"/>
<feGaussianBlur stdDeviation="10" result="effect1_foregroundBlur_1794_4825"/>
</filter>
<filter id="filter6_f_1794_4825" x="316.935" y="21.5509" width="44.2493" height="43.9458" filterUnits="userSpaceOnUse" color-interpolation-filters="sRGB">
<feFlood flood-opacity="0" result="BackgroundImageFix"/>
<feBlend mode="normal" in="SourceGraphic" in2="BackgroundImageFix" result="shape"/>
<feGaussianBlur stdDeviation="10" result="effect1_foregroundBlur_1794_4825"/>
</filter>
<filter id="filter7_f_1794_4825" x="316.935" y="107.371" width="44.2493" height="43.9458" filterUnits="userSpaceOnUse" color-interpolation-filters="sRGB">
<feFlood flood-opacity="0" result="BackgroundImageFix"/>
<feBlend mode="normal" in="SourceGraphic" in2="BackgroundImageFix" result="shape"/>
<feGaussianBlur stdDeviation="10" result="effect1_foregroundBlur_1794_4825"/>
</filter>
<filter id="filter8_f_1794_4825" x="415.429" y="21.5509" width="44.2493" height="43.9458" filterUnits="userSpaceOnUse" color-interpolation-filters="sRGB">
<feFlood flood-opacity="0" result="BackgroundImageFix"/>
<feBlend mode="normal" in="SourceGraphic" in2="BackgroundImageFix" result="shape"/>
<feGaussianBlur stdDeviation="10" result="effect1_foregroundBlur_1794_4825"/>
</filter>
<filter id="filter9_f_1794_4825" x="415.429" y="107.371" width="44.2493" height="43.9458" filterUnits="userSpaceOnUse" color-interpolation-filters="sRGB">
<feFlood flood-opacity="0" result="BackgroundImageFix"/>
<feBlend mode="normal" in="SourceGraphic" in2="BackgroundImageFix" result="shape"/>
<feGaussianBlur stdDeviation="10" result="effect1_foregroundBlur_1794_4825"/>
</filter>
<linearGradient id="paint0_linear_1794_4825" x1="52.0649" y1="70.5431" x2="18.8201" y2="59.5942" gradientUnits="userSpaceOnUse">
<stop stop-color="#FB3C42"/>
<stop offset="1" stop-color="#D62F33"/>
</linearGradient>
<linearGradient id="paint1_linear_1794_4825" x1="87.1014" y1="55.6128" x2="56.4445" y2="96.2233" gradientUnits="userSpaceOnUse">
<stop stop-color="#E22E34"/>
<stop offset="1" stop-color="#BF2E31"/>
</linearGradient>
<linearGradient id="paint2_linear_1794_4825" x1="49.8027" y1="63.5792" x2="16.5579" y2="52.6303" gradientUnits="userSpaceOnUse">
<stop stop-color="#FB3C42"/>
<stop offset="1" stop-color="#D62F33"/>
</linearGradient>
<linearGradient id="paint3_linear_1794_4825" x1="54.2147" y1="63.5792" x2="90.3807" y2="47.2887" gradientUnits="userSpaceOnUse">
<stop stop-color="#CD2F33"/>
<stop offset="1" stop-color="#E22F35"/>
</linearGradient>
<linearGradient id="paint4_linear_1794_4825" x1="52.0649" y1="156.363" x2="18.8201" y2="145.414" gradientUnits="userSpaceOnUse">
<stop stop-color="#FB3C42"/>
<stop offset="1" stop-color="#D62F33"/>
</linearGradient>
<linearGradient id="paint5_linear_1794_4825" x1="87.1014" y1="141.432" x2="56.4445" y2="182.043" gradientUnits="userSpaceOnUse">
<stop stop-color="#E22E34"/>
<stop offset="1" stop-color="#BF2E31"/>
</linearGradient>
<linearGradient id="paint6_linear_1794_4825" x1="49.8027" y1="149.399" x2="16.5579" y2="138.45" gradientUnits="userSpaceOnUse">
<stop stop-color="#FB3C42"/>
<stop offset="1" stop-color="#D62F33"/>
</linearGradient>
<linearGradient id="paint7_linear_1794_4825" x1="54.2147" y1="149.399" x2="90.3807" y2="133.108" gradientUnits="userSpaceOnUse">
<stop stop-color="#CD2F33"/>
<stop offset="1" stop-color="#E22F35"/>
</linearGradient>
<linearGradient id="paint8_linear_1794_4825" x1="150.559" y1="70.5431" x2="117.314" y2="59.5942" gradientUnits="userSpaceOnUse">
<stop stop-color="#FB3C42"/>
<stop offset="1" stop-color="#D62F33"/>
</linearGradient>
<linearGradient id="paint9_linear_1794_4825" x1="185.595" y1="55.6128" x2="154.938" y2="96.2233" gradientUnits="userSpaceOnUse">
<stop stop-color="#E22E34"/>
<stop offset="1" stop-color="#BF2E31"/>
</linearGradient>
<linearGradient id="paint10_linear_1794_4825" x1="148.297" y1="63.5792" x2="115.052" y2="52.6303" gradientUnits="userSpaceOnUse">
<stop stop-color="#FB3C42"/>
<stop offset="1" stop-color="#D62F33"/>
</linearGradient>
<linearGradient id="paint11_linear_1794_4825" x1="152.709" y1="63.5792" x2="188.875" y2="47.2887" gradientUnits="userSpaceOnUse">
<stop stop-color="#CD2F33"/>
<stop offset="1" stop-color="#E22F35"/>
</linearGradient>
<linearGradient id="paint12_linear_1794_4825" x1="150.559" y1="156.363" x2="117.314" y2="145.414" gradientUnits="userSpaceOnUse">
<stop stop-color="#FB3C42"/>
<stop offset="1" stop-color="#D62F33"/>
</linearGradient>
<linearGradient id="paint13_linear_1794_4825" x1="185.595" y1="141.432" x2="154.938" y2="182.043" gradientUnits="userSpaceOnUse">
<stop stop-color="#E22E34"/>
<stop offset="1" stop-color="#BF2E31"/>
</linearGradient>
<linearGradient id="paint14_linear_1794_4825" x1="148.297" y1="149.399" x2="115.052" y2="138.45" gradientUnits="userSpaceOnUse">
<stop stop-color="#FB3C42"/>
<stop offset="1" stop-color="#D62F33"/>
</linearGradient>
<linearGradient id="paint15_linear_1794_4825" x1="152.709" y1="149.399" x2="188.875" y2="133.108" gradientUnits="userSpaceOnUse">
<stop stop-color="#CD2F33"/>
<stop offset="1" stop-color="#E22F35"/>
</linearGradient>
<linearGradient id="paint16_linear_1794_4825" x1="249.053" y1="70.5431" x2="215.808" y2="59.5942" gradientUnits="userSpaceOnUse">
<stop stop-color="#FB3C42"/>
<stop offset="1" stop-color="#D62F33"/>
</linearGradient>
<linearGradient id="paint17_linear_1794_4825" x1="284.09" y1="55.6128" x2="253.433" y2="96.2233" gradientUnits="userSpaceOnUse">
<stop stop-color="#E22E34"/>
<stop offset="1" stop-color="#BF2E31"/>
</linearGradient>
<linearGradient id="paint18_linear_1794_4825" x1="246.791" y1="63.5792" x2="213.546" y2="52.6303" gradientUnits="userSpaceOnUse">
<stop stop-color="#FB3C42"/>
<stop offset="1" stop-color="#D62F33"/>
</linearGradient>
<linearGradient id="paint19_linear_1794_4825" x1="251.203" y1="63.5792" x2="287.369" y2="47.2887" gradientUnits="userSpaceOnUse">
<stop stop-color="#CD2F33"/>
<stop offset="1" stop-color="#E22F35"/>
</linearGradient>
<linearGradient id="paint20_linear_1794_4825" x1="249.053" y1="156.363" x2="215.808" y2="145.414" gradientUnits="userSpaceOnUse">
<stop stop-color="#FB3C42"/>
<stop offset="1" stop-color="#D62F33"/>
</linearGradient>
<linearGradient id="paint21_linear_1794_4825" x1="284.09" y1="141.432" x2="253.433" y2="182.043" gradientUnits="userSpaceOnUse">
<stop stop-color="#E22E34"/>
<stop offset="1" stop-color="#BF2E31"/>
</linearGradient>
<linearGradient id="paint22_linear_1794_4825" x1="246.791" y1="149.399" x2="213.546" y2="138.45" gradientUnits="userSpaceOnUse">
<stop stop-color="#FB3C42"/>
<stop offset="1" stop-color="#D62F33"/>
</linearGradient>
<linearGradient id="paint23_linear_1794_4825" x1="251.203" y1="149.399" x2="287.369" y2="133.108" gradientUnits="userSpaceOnUse">
<stop stop-color="#CD2F33"/>
<stop offset="1" stop-color="#E22F35"/>
</linearGradient>
<linearGradient id="paint24_linear_1794_4825" x1="347.547" y1="70.5431" x2="314.302" y2="59.5942" gradientUnits="userSpaceOnUse">
<stop stop-color="#FB3C42"/>
<stop offset="1" stop-color="#D62F33"/>
</linearGradient>
<linearGradient id="paint25_linear_1794_4825" x1="382.584" y1="55.6128" x2="351.927" y2="96.2233" gradientUnits="userSpaceOnUse">
<stop stop-color="#E22E34"/>
<stop offset="1" stop-color="#BF2E31"/>
</linearGradient>
<linearGradient id="paint26_linear_1794_4825" x1="345.285" y1="63.5792" x2="312.04" y2="52.6303" gradientUnits="userSpaceOnUse">
<stop stop-color="#FB3C42"/>
<stop offset="1" stop-color="#D62F33"/>
</linearGradient>
<linearGradient id="paint27_linear_1794_4825" x1="349.697" y1="63.5792" x2="385.863" y2="47.2887" gradientUnits="userSpaceOnUse">
<stop stop-color="#CD2F33"/>
<stop offset="1" stop-color="#E22F35"/>
</linearGradient>
<linearGradient id="paint28_linear_1794_4825" x1="347.547" y1="156.363" x2="314.302" y2="145.414" gradientUnits="userSpaceOnUse">
<stop stop-color="#FB3C42"/>
<stop offset="1" stop-color="#D62F33"/>
</linearGradient>
<linearGradient id="paint29_linear_1794_4825" x1="382.584" y1="141.432" x2="351.927" y2="182.043" gradientUnits="userSpaceOnUse">
<stop stop-color="#E22E34"/>
<stop offset="1" stop-color="#BF2E31"/>
</linearGradient>
<linearGradient id="paint30_linear_1794_4825" x1="345.285" y1="149.399" x2="312.04" y2="138.45" gradientUnits="userSpaceOnUse">
<stop stop-color="#FB3C42"/>
<stop offset="1" stop-color="#D62F33"/>
</linearGradient>
<linearGradient id="paint31_linear_1794_4825" x1="349.697" y1="149.399" x2="385.863" y2="133.108" gradientUnits="userSpaceOnUse">
<stop stop-color="#CD2F33"/>
<stop offset="1" stop-color="#E22F35"/>
</linearGradient>
<linearGradient id="paint32_linear_1794_4825" x1="446.041" y1="70.5431" x2="412.796" y2="59.5942" gradientUnits="userSpaceOnUse">
<stop stop-color="#FB3C42"/>
<stop offset="1" stop-color="#D62F33"/>
</linearGradient>
<linearGradient id="paint33_linear_1794_4825" x1="481.078" y1="55.6128" x2="450.421" y2="96.2233" gradientUnits="userSpaceOnUse">
<stop stop-color="#E22E34"/>
<stop offset="1" stop-color="#BF2E31"/>
</linearGradient>
<linearGradient id="paint34_linear_1794_4825" x1="443.779" y1="63.5792" x2="410.534" y2="52.6303" gradientUnits="userSpaceOnUse">
<stop stop-color="#FB3C42"/>
<stop offset="1" stop-color="#D62F33"/>
</linearGradient>
<linearGradient id="paint35_linear_1794_4825" x1="448.191" y1="63.5792" x2="484.357" y2="47.2887" gradientUnits="userSpaceOnUse">
<stop stop-color="#CD2F33"/>
<stop offset="1" stop-color="#E22F35"/>
</linearGradient>
<linearGradient id="paint36_linear_1794_4825" x1="446.041" y1="156.363" x2="412.796" y2="145.414" gradientUnits="userSpaceOnUse">
<stop stop-color="#FB3C42"/>
<stop offset="1" stop-color="#D62F33"/>
</linearGradient>
<linearGradient id="paint37_linear_1794_4825" x1="481.078" y1="141.432" x2="450.421" y2="182.043" gradientUnits="userSpaceOnUse">
<stop stop-color="#E22E34"/>
<stop offset="1" stop-color="#BF2E31"/>
</linearGradient>
<linearGradient id="paint38_linear_1794_4825" x1="443.779" y1="149.399" x2="410.534" y2="138.45" gradientUnits="userSpaceOnUse">
<stop stop-color="#FB3C42"/>
<stop offset="1" stop-color="#D62F33"/>
</linearGradient>
<linearGradient id="paint39_linear_1794_4825" x1="448.191" y1="149.399" x2="484.357" y2="133.108" gradientUnits="userSpaceOnUse">
<stop stop-color="#CD2F33"/>
<stop offset="1" stop-color="#E22F35"/>
</linearGradient>
</defs>
</svg>
