<svg width="360" height="210" viewBox="0 0 360 210" fill="none" xmlns="http://www.w3.org/2000/svg">
<path d="M10 156.46L113 200.96L241.5 156.46L147 121.46L31.5 142.96L10 156.46Z" fill="#DFE1EC"/>
<path d="M115.259 29.3474L216.012 52.4601L111.787 80.3474L14.5117 51.854L115.259 29.3474Z" fill="#CC2024"/>
<path d="M184.512 60.9602L91.0117 34.4602L64.5117 40.4602L161.512 66.9602L184.512 60.9602Z" fill="#9EEA73"/>
<path d="M67.0117 66.4602L174.512 42.9602L148.512 36.4602L45.5117 60.4602L67.0117 66.4602Z" fill="#74C744"/>
<path d="M19.2988 69.2751L112.474 96.8147V197.392L19.2988 154.84V69.2751Z" fill="url(#paint0_linear_1794_4821)"/>
<path d="M211.085 70.8281L112.474 96.8396V197.392L211.085 155.735V70.8281Z" fill="url(#paint1_linear_1794_4821)"/>
<path d="M51.1338 80.1458L72.8748 86.7457V179.533L51.1338 169.874V80.1458Z" fill="#B0FA84"/>
<path d="M155.423 84.8325L178.474 79.3694V169.862L155.18 179.533L155.423 84.8325Z" fill="#9EEA73"/>
<path fill-rule="evenodd" clip-rule="evenodd" d="M113.251 97.228L113.251 197.392L111.698 197.392L111.698 97.228L113.251 97.228Z" fill="#FF5C62"/>
<path fill-rule="evenodd" clip-rule="evenodd" d="M19.2988 69.2751L112.692 96.8396L112.692 98.5705L19.2988 70.8281L19.2988 69.2751Z" fill="#FF5C62" style="mix-blend-mode:lighten"/>
<path fill-rule="evenodd" clip-rule="evenodd" d="M211.085 72.3811L112.474 98.3926L112.474 96.8396L211.085 70.8281L211.085 72.3811Z" fill="#FF4D52" style="mix-blend-mode:lighten"/>
<path d="M14.5117 51.4602L112.187 80.182V110.642L14.5117 76.4602V51.4602Z" fill="url(#paint2_linear_1794_4821)"/>
<path d="M14.5117 51.4602L112.187 80.182V110.642L14.5117 76.4602V51.4602Z" fill="white" fill-opacity="0.1"/>
<path d="M216.012 52.4602L112.512 80.182V110.642L216.012 78.4602V52.4602Z" fill="url(#paint3_linear_1794_4821)"/>
<path d="M216.012 52.4602L112.512 80.182V110.642L216.012 78.4602V52.4602Z" fill="white" fill-opacity="0.1"/>
<path fill-rule="evenodd" clip-rule="evenodd" d="M113.512 79.4602L113.512 111.46L111.512 111.46L111.512 79.4602L113.512 79.4602Z" fill="#FF666C"/>
<path fill-rule="evenodd" clip-rule="evenodd" d="M14.5118 51.4603L112.012 79.4603L111.496 81.3928L14.5119 53.3927L14.5118 51.4603Z" fill="#FF666C"/>
<path d="M45.0117 60.4602L67.0876 66.4602V94.9602L45.5117 87.4602L45.0117 60.4602Z" fill="#C3FFA0"/>
<path fill-rule="evenodd" clip-rule="evenodd" d="M216.012 53.9602L112.1 82.2184L111.512 80.307L216.012 52.4602L216.012 53.9602Z" fill="#FF666C"/>
<path d="M161.512 66.9602L184.806 60.9602V88.4602L161.512 95.3227V66.9602Z" fill="#B0F688"/>
<g filter="url(#filter0_f_1794_4821)">
<ellipse cx="90.7807" cy="51.8291" rx="5.43524" ry="5.04701" fill="white"/>
</g>
<path d="M183.86 28.0745C180.87 15.44 164.555 3.47976 146 7.96024C130.5 14.4602 126.5 34.9602 117.228 41.4735C138.5 39.9602 130.799 52.112 149.781 50.392C180.218 47.6103 186.851 40.7091 183.86 28.0745Z" fill="#9EEA73"/>
<path d="M182.178 23.0824C185.998 28.8493 186.847 42.1334 171.057 46.4867C161.613 49.0896 148.498 51.8946 142.937 49.6282C144.5 43.9601 146.796 36.6471 154.5 29.9602C164.644 21.164 178.358 17.3155 182.178 23.0824Z" fill="#7BC753"/>
<path d="M104.5 39.9602C104.634 29.9204 121.651 21.0067 130.331 25.5699C139.355 30.3105 146.399 41.5826 144.058 47.9035C141.717 54.2243 136.098 55.0671 128.649 56.5419C121.2 58.0168 116.007 59.9973 113.538 56.5419C111.069 53.0865 96.5117 37.3688 96.5117 37.3688L104.5 39.9602Z" fill="#86D65C"/>
<path d="M134.179 30.9331C127.513 22.9215 121.963 23.4681 121.963 23.4681C121.963 23.4681 130.27 23.9346 137.111 30.9331C141.381 35.3011 144.433 38.398 145.41 44.9299C146.387 51.4618 139.972 53.8504 140.949 53.3839C140.949 53.3839 136.126 57.0604 119.512 58.4602C119.512 58.4602 149.319 49.1289 134.179 30.9331Z" fill="#6BB247"/>
<path d="M50 39.4602C53.1012 26.7693 62 21.8755 82.5 23.9602C112 26.9602 126.022 55.4481 119.862 58.4129C106.529 64.8543 94.2092 73.8979 75.0327 69.1201C55.8563 64.3424 46.8989 52.1511 50 39.4602Z" fill="#9EEA73"/>
<path d="M72.5 49.9602C64.2897 69.0994 76 71.4602 90.5 70.4602C101.972 69.4613 113.202 62.0701 119.5 58.4602C115.5 52.9602 109.5 47.4602 105 44.4602C93.75 36.9602 76.7665 40.0145 72.5 49.9602Z" fill="#7BC753"/>
<path d="M81.6636 41.6229C75.38 43.2297 72.9364 48.1839 72.5 50.4602C74.5364 50.0585 79.3945 48.9338 82.5364 47.6484C85.6782 46.3629 93.1545 42.5602 96.5 40.8195C94.1727 40.4178 87.9473 40.0161 81.6636 41.6229Z" fill="#CC2024"/>
<path fill-rule="evenodd" clip-rule="evenodd" d="M96.5 40.8195C94.2806 40.4364 88.5158 40.0533 82.5364 41.4123L91.5 43.376C93.4472 42.3959 95.2582 41.4656 96.5 40.8195Z" fill="#BFFE9C"/>
<path d="M92 25.9602C101.267 29.7408 110.5 42 111.5 50C115.5 54 117.5 55.5 119.5 58.5C127 56.5 112.223 34.7202 105 31.4602C100.929 29.6228 93.2337 26.5727 92 25.9602Z" fill="#74BA51"/>
<path d="M164 23.4601C175.001 20.0762 179.549 20.2971 181.428 22.192C184.218 25.007 185.452 30.4489 183.7 36.4052C182.849 39.3008 179.75 42.7219 178.185 43.3084C177.425 43.3987 179.929 44.9327 177.782 35.8638C175.636 26.7948 166.951 24.8137 164 23.4601Z" fill="#6BB347"/>
<path d="M167.5 22C159.5 24 154.298 28.9057 152 32.5C159.194 29.8637 167 25.5 167.5 22Z" fill="white"/>
<path d="M196 11C196 8.79086 197.791 7 200 7H350.701C351.575 7 352.029 8.0423 351.433 8.68173L332.5 29L351.433 49.3183C352.029 49.9577 351.575 51 350.701 51H200C197.791 51 196 49.2091 196 47V11Z" fill="#FFD83A"/>
<path d="M212.304 39.0001V21.3881L214.684 23.6841H208.664V19.4001H217.848V39.0001H212.304Z" fill="#303133"/>
<path d="M227.656 39.3921C226.312 39.3921 224.958 39.2241 223.596 38.8881C222.233 38.5521 221.057 38.0761 220.068 37.4601L222.056 33.2881C222.858 33.8107 223.726 34.2121 224.66 34.4921C225.612 34.7721 226.554 34.9121 227.488 34.9121C228.421 34.9121 229.177 34.7347 229.756 34.3801C230.334 34.0067 230.624 33.4934 230.624 32.8401C230.624 32.4481 230.512 32.1027 230.288 31.8041C230.064 31.4867 229.681 31.2534 229.14 31.1041C228.598 30.9361 227.824 30.8521 226.816 30.8521H221.496L222.476 19.4001H234.964V23.6841H224.436L227.264 21.2481L226.62 28.9761L223.792 26.5401H228.132C230.073 26.5401 231.632 26.8201 232.808 27.3801C233.984 27.9214 234.842 28.6587 235.384 29.5921C235.925 30.5067 236.196 31.5427 236.196 32.7001C236.196 33.8574 235.888 34.9494 235.272 35.9761C234.674 36.9841 233.75 37.8054 232.5 38.4401C231.249 39.0747 229.634 39.3921 227.656 39.3921Z" fill="#303133"/>
<path d="M254.604 39.3921C252.924 39.3921 251.431 38.9907 250.124 38.1881C248.836 37.3854 247.819 36.2281 247.072 34.7161C246.325 33.2041 245.952 31.3654 245.952 29.2001C245.952 27.0347 246.325 25.1961 247.072 23.6841C247.819 22.1721 248.836 21.0147 250.124 20.2121C251.431 19.4094 252.924 19.0081 254.604 19.0081C256.265 19.0081 257.74 19.4094 259.028 20.2121C260.335 21.0147 261.361 22.1721 262.108 23.6841C262.855 25.1961 263.228 27.0347 263.228 29.2001C263.228 31.3654 262.855 33.2041 262.108 34.7161C261.361 36.2281 260.335 37.3854 259.028 38.1881C257.74 38.9907 256.265 39.3921 254.604 39.3921ZM254.604 34.8561C255.201 34.8561 255.724 34.6694 256.172 34.2961C256.639 33.9227 257.003 33.3254 257.264 32.5041C257.525 31.6641 257.656 30.5627 257.656 29.2001C257.656 27.8187 257.525 26.7174 257.264 25.8961C257.003 25.0747 256.639 24.4774 256.172 24.1041C255.724 23.7307 255.201 23.5441 254.604 23.5441C254.007 23.5441 253.475 23.7307 253.008 24.1041C252.56 24.4774 252.196 25.0747 251.916 25.8961C251.655 26.7174 251.524 27.8187 251.524 29.2001C251.524 30.5627 251.655 31.6641 251.916 32.5041C252.196 33.3254 252.56 33.9227 253.008 34.2961C253.475 34.6694 254.007 34.8561 254.604 34.8561Z" fill="#303133"/>
<path d="M273.772 39.3921C272.092 39.3921 270.599 38.9907 269.292 38.1881C268.004 37.3854 266.987 36.2281 266.24 34.7161C265.493 33.2041 265.12 31.3654 265.12 29.2001C265.12 27.0347 265.493 25.1961 266.24 23.6841C266.987 22.1721 268.004 21.0147 269.292 20.2121C270.599 19.4094 272.092 19.0081 273.772 19.0081C275.433 19.0081 276.908 19.4094 278.196 20.2121C279.503 21.0147 280.529 22.1721 281.276 23.6841C282.023 25.1961 282.396 27.0347 282.396 29.2001C282.396 31.3654 282.023 33.2041 281.276 34.7161C280.529 36.2281 279.503 37.3854 278.196 38.1881C276.908 38.9907 275.433 39.3921 273.772 39.3921ZM273.772 34.8561C274.369 34.8561 274.892 34.6694 275.34 34.2961C275.807 33.9227 276.171 33.3254 276.432 32.5041C276.693 31.6641 276.824 30.5627 276.824 29.2001C276.824 27.8187 276.693 26.7174 276.432 25.8961C276.171 25.0747 275.807 24.4774 275.34 24.1041C274.892 23.7307 274.369 23.5441 273.772 23.5441C273.175 23.5441 272.643 23.7307 272.176 24.1041C271.728 24.4774 271.364 25.0747 271.084 25.8961C270.823 26.7174 270.692 27.8187 270.692 29.2001C270.692 30.5627 270.823 31.6641 271.084 32.5041C271.364 33.3254 271.728 33.9227 272.176 34.2961C272.643 34.6694 273.175 34.8561 273.772 34.8561Z" fill="#303133"/>
<path d="M292.94 39.3921C291.26 39.3921 289.767 38.9907 288.46 38.1881C287.172 37.3854 286.155 36.2281 285.408 34.7161C284.661 33.2041 284.288 31.3654 284.288 29.2001C284.288 27.0347 284.661 25.1961 285.408 23.6841C286.155 22.1721 287.172 21.0147 288.46 20.2121C289.767 19.4094 291.26 19.0081 292.94 19.0081C294.601 19.0081 296.076 19.4094 297.364 20.2121C298.671 21.0147 299.697 22.1721 300.444 23.6841C301.191 25.1961 301.564 27.0347 301.564 29.2001C301.564 31.3654 301.191 33.2041 300.444 34.7161C299.697 36.2281 298.671 37.3854 297.364 38.1881C296.076 38.9907 294.601 39.3921 292.94 39.3921ZM292.94 34.8561C293.537 34.8561 294.06 34.6694 294.508 34.2961C294.975 33.9227 295.339 33.3254 295.6 32.5041C295.861 31.6641 295.992 30.5627 295.992 29.2001C295.992 27.8187 295.861 26.7174 295.6 25.8961C295.339 25.0747 294.975 24.4774 294.508 24.1041C294.06 23.7307 293.537 23.5441 292.94 23.5441C292.343 23.5441 291.811 23.7307 291.344 24.1041C290.896 24.4774 290.532 25.0747 290.252 25.8961C289.991 26.7174 289.86 27.8187 289.86 29.2001C289.86 30.5627 289.991 31.6641 290.252 32.5041C290.532 33.3254 290.896 33.9227 291.344 34.2961C291.811 34.6694 292.343 34.8561 292.94 34.8561Z" fill="#303133"/>
<path d="M326.291 33.82C326.291 35.2574 325.74 36.48 324.639 37.488C323.537 38.4774 321.923 39.028 319.795 39.14V42.36H318.395V39.168C317.032 39.0934 315.744 38.832 314.531 38.384C313.336 37.9174 312.393 37.3294 311.703 36.62L312.515 35.024C313.168 35.6587 314.017 36.1907 315.063 36.62C316.127 37.0494 317.237 37.3014 318.395 37.376V30.012C317.107 29.6947 316.033 29.3587 315.175 29.004C314.316 28.6307 313.597 28.0987 313.019 27.408C312.459 26.6987 312.179 25.7654 312.179 24.608C312.179 23.1707 312.701 21.9667 313.747 20.996C314.792 20.0067 316.341 19.428 318.395 19.26V16.04H319.795V19.232C320.859 19.2694 321.885 19.4467 322.875 19.764C323.883 20.0627 324.751 20.464 325.479 20.968L324.779 22.62C324.013 22.1347 323.201 21.752 322.343 21.472C321.484 21.192 320.635 21.0334 319.795 20.996V28.416C321.176 28.752 322.305 29.0974 323.183 29.452C324.06 29.788 324.797 30.3107 325.395 31.02C325.992 31.7294 326.291 32.6627 326.291 33.82ZM314.223 24.552C314.223 25.5227 314.577 26.26 315.287 26.764C316.015 27.268 317.051 27.6974 318.395 28.052V21.052C317.013 21.164 315.968 21.5467 315.259 22.2C314.568 22.8347 314.223 23.6187 314.223 24.552ZM319.795 37.376C321.269 37.264 322.38 36.9 323.127 36.284C323.873 35.668 324.247 34.884 324.247 33.932C324.247 32.924 323.864 32.168 323.099 31.664C322.333 31.16 321.232 30.7307 319.795 30.376V37.376Z" fill="#303133"/>
<defs>
<filter id="filter0_f_1794_4821" x="65.3455" y="26.782" width="50.8705" height="50.094" filterUnits="userSpaceOnUse" color-interpolation-filters="sRGB">
<feFlood flood-opacity="0" result="BackgroundImageFix"/>
<feBlend mode="normal" in="SourceGraphic" in2="BackgroundImageFix" result="shape"/>
<feGaussianBlur stdDeviation="10" result="effect1_foregroundBlur_1794_4821"/>
</filter>
<linearGradient id="paint0_linear_1794_4821" x1="112.493" y1="120.949" x2="27.447" y2="92.94" gradientUnits="userSpaceOnUse">
<stop stop-color="#FB3C42"/>
<stop offset="1" stop-color="#D62F33"/>
</linearGradient>
<linearGradient id="paint1_linear_1794_4821" x1="202.123" y1="82.7549" x2="123.697" y2="186.644" gradientUnits="userSpaceOnUse">
<stop stop-color="#E22E34"/>
<stop offset="1" stop-color="#BF2E31"/>
</linearGradient>
<linearGradient id="paint2_linear_1794_4821" x1="106.706" y1="103.134" x2="21.6599" y2="75.1251" gradientUnits="userSpaceOnUse">
<stop stop-color="#FB3C42"/>
<stop offset="1" stop-color="#D62F33"/>
</linearGradient>
<linearGradient id="paint3_linear_1794_4821" x1="117.993" y1="103.134" x2="210.512" y2="61.4602" gradientUnits="userSpaceOnUse">
<stop stop-color="#CD2F33"/>
<stop offset="1" stop-color="#E22F35"/>
</linearGradient>
</defs>
</svg>
