<svg width="300" height="218" viewBox="0 0 300 218" fill="none" xmlns="http://www.w3.org/2000/svg">
<path d="M73.1704 72.7611L99.1933 84.004L131.659 72.7611L107.783 63.9183L78.6024 69.3503L73.1704 72.7611Z" fill="#DFE1EC"/>
<path d="M99.764 40.646L125.219 46.4854L98.8868 53.5311L74.3103 46.3323L99.764 40.646Z" fill="#CC2024"/>
<path d="M117.261 48.633L93.638 41.9377L86.9427 43.4536L111.45 50.1489L117.261 48.633Z" fill="#FFD778"/>
<path d="M87.5744 50.0226L114.734 44.0853L108.165 42.4431L82.1425 48.5067L87.5744 50.0226Z" fill="#DFB249"/>
<path d="M75.5197 50.7338L99.0604 57.6916V83.1023L75.5197 72.3516V50.7338Z" fill="url(#paint0_linear_1837_16431)"/>
<path d="M123.974 51.1262L99.0604 57.698V83.1024L123.974 72.5779V51.1262Z" fill="url(#paint1_linear_1837_16431)"/>
<path d="M83.5629 53.4802L89.0557 55.1477V78.5904L83.5629 76.1501V53.4802Z" fill="#FFDE8E"/>
<path d="M109.911 54.6643L115.735 53.2841V76.147L109.85 78.5904L109.911 54.6643Z" fill="#FFD778"/>
<path fill-rule="evenodd" clip-rule="evenodd" d="M99.2566 57.796L99.2566 83.1023L98.8643 83.1023L98.8643 57.796L99.2566 57.796Z" fill="#FF5C62"/>
<path fill-rule="evenodd" clip-rule="evenodd" d="M75.5197 50.7338L99.1153 57.6979L99.1153 58.1352L75.5197 51.1261L75.5197 50.7338Z" fill="#FF5C62" style="mix-blend-mode:lighten"/>
<path fill-rule="evenodd" clip-rule="evenodd" d="M123.974 51.5186L99.0604 58.0904L99.0604 57.698L123.974 51.1262L123.974 51.5186Z" fill="#FF4D52" style="mix-blend-mode:lighten"/>
<path d="M74.3103 46.2328L98.988 53.4893V61.1852L74.3103 52.549V46.2328Z" fill="url(#paint2_linear_1837_16431)"/>
<path d="M74.3103 46.2328L98.988 53.4893V61.1852L74.3103 52.549V46.2328Z" fill="white" fill-opacity="0.1"/>
<path d="M125.219 46.4855L99.07 53.4894V61.1852L125.219 53.0544V46.4855Z" fill="url(#paint3_linear_1837_16431)"/>
<path d="M125.219 46.4855L99.07 53.4894V61.1852L125.219 53.0544V46.4855Z" fill="white" fill-opacity="0.1"/>
<path fill-rule="evenodd" clip-rule="evenodd" d="M99.3226 53.307L99.3226 61.3918L98.8173 61.3918L98.8173 53.307L99.3226 53.307Z" fill="#FF666C"/>
<path fill-rule="evenodd" clip-rule="evenodd" d="M74.3104 46.2329L98.9438 53.3071L98.8135 53.7953L74.3105 46.7211L74.3104 46.2329Z" fill="#FF666C"/>
<path d="M82.0162 48.5067L87.5937 50.0226V57.2231L82.1426 55.3282L82.0162 48.5067Z" fill="#FFEAB8"/>
<path fill-rule="evenodd" clip-rule="evenodd" d="M125.219 46.8646L98.9659 54.004L98.8172 53.521L125.219 46.4856L125.219 46.8646Z" fill="#FF666C"/>
<path d="M111.45 50.1489L117.335 48.6331V55.5809L111.45 57.3147V50.1489Z" fill="#FFDE8E"/>
<g filter="url(#filter0_f_1837_16431)">
<ellipse cx="93.5798" cy="46.326" rx="1.37321" ry="1.27512" fill="white"/>
</g>
<path d="M117.096 40.3245C116.341 37.1323 112.219 34.1106 107.531 35.2426C103.615 36.8848 102.604 42.0641 100.262 43.7097C105.636 43.3274 103.69 46.3975 108.486 45.963C116.176 45.2602 117.852 43.5166 117.096 40.3245Z" fill="#FFDE8E"/>
<path d="M116.671 39.0632C117.636 40.5202 117.851 43.8765 113.862 44.9763C111.476 45.6339 108.162 46.3426 106.757 45.77C107.152 44.338 107.732 42.4903 109.678 40.8009C112.241 38.5785 115.706 37.6062 116.671 39.0632Z" fill="#FFCE5B"/>
<path d="M97.0458 43.3273C97.0798 40.7907 101.379 38.5387 103.572 39.6916C105.852 40.8893 107.632 43.7372 107.04 45.3342C106.449 46.9311 105.029 47.144 103.147 47.5167C101.265 47.8893 99.9531 48.3897 99.3293 47.5167C98.7056 46.6437 95.0276 42.6726 95.0276 42.6726L97.0458 43.3273Z" fill="#FFD470"/>
<path d="M104.305 41.0953C102.62 39.0712 101.846 39.4213 101.846 39.4213C101.846 39.4213 103.529 39.1691 105.257 40.9372C106.336 42.0408 106.895 42.9813 107.142 44.6316C107.389 46.2819 105.515 46.866 105.762 46.7482C105.762 46.7482 104.625 47.2535 100.599 48.05C100.599 48.05 108.13 45.6925 104.305 41.0953Z" fill="#CEAB94" fill-opacity="0.34" style="mix-blend-mode:multiply"/>
<path d="M83.2763 43.201C84.0598 39.9946 86.3081 38.7582 91.4874 39.2849C98.9406 40.0429 102.483 47.2403 100.927 47.9894C97.5585 49.6168 94.4458 51.9017 89.6008 50.6946C84.7559 49.4875 82.4928 46.4073 83.2763 43.201Z" fill="#FFDE8E"/>
<path d="M88.9612 45.8538C86.8868 50.6893 89.8454 51.2858 93.5089 51.0331C96.4072 50.7807 99.2444 48.9134 100.836 48.0013C99.8251 46.6117 98.3092 45.2222 97.1723 44.4642C94.33 42.5694 90.0391 43.341 88.9612 45.8538Z" fill="#FFCE5B"/>
<path d="M91.2762 43.7475C89.6887 44.1534 89.0713 45.4051 88.9611 45.9802C89.4755 45.8787 90.703 45.5946 91.4967 45.2698C92.2905 44.9451 94.1794 43.9843 95.0246 43.5445C94.4367 43.443 92.8638 43.3415 91.2762 43.7475Z" fill="#CC2024"/>
<path fill-rule="evenodd" clip-rule="evenodd" d="M95.0246 43.5445C94.4639 43.4477 93.0075 43.3509 91.4967 43.6943L93.7614 44.1904C94.2534 43.9428 94.7109 43.7078 95.0246 43.5445Z" fill="#FFE6AA"/>
<path d="M93.635 39.674C95.9762 40.6291 98.309 43.8427 98.309 45.3586C99.5722 46.2428 100.361 47.5369 100.835 48.0114C101.341 47.8851 101.214 47.7587 101.341 47.5061C101.682 45.4707 98.5616 42.3662 96.9194 41.1898C96.002 40.5327 93.9467 39.8287 93.635 39.674Z" fill="#CEAB94" fill-opacity="0.34" style="mix-blend-mode:multiply"/>
<path d="M112.079 39.1586C114.858 38.3036 116.007 38.3595 116.482 38.8382C117.187 39.5494 117.499 40.9243 117.056 42.4292C116.841 43.1607 116.058 44.0251 115.662 44.1733C115.47 44.1961 116.103 44.5836 115.561 42.2924C115.018 40.0011 112.824 39.5006 112.079 39.1586Z" fill="#CEAB94" fill-opacity="0.34" style="mix-blend-mode:multiply"/>
<path d="M73.1704 132.531L99.1933 143.774L131.659 132.531L107.783 123.688L78.6024 129.12L73.1704 132.531Z" fill="#DFE1EC"/>
<path d="M99.764 100.416L125.219 106.255L98.8868 113.301L74.3103 106.102L99.764 100.416Z" fill="#CC2024"/>
<path d="M117.261 108.403L93.638 101.708L86.9427 103.223L111.45 109.919L117.261 108.403Z" fill="#FFD778"/>
<path d="M87.5744 109.792L114.734 103.855L108.165 102.213L82.1425 108.276L87.5744 109.792Z" fill="#DFB249"/>
<path d="M75.5197 110.504L99.0604 117.461V142.872L75.5197 132.121V110.504Z" fill="url(#paint4_linear_1837_16431)"/>
<path d="M123.974 110.896L99.0604 117.468V142.872L123.974 132.348V110.896Z" fill="url(#paint5_linear_1837_16431)"/>
<path d="M83.5629 113.25L89.0557 114.917V138.36L83.5629 135.92V113.25Z" fill="#FFDE8E"/>
<path d="M109.911 114.434L115.735 113.054V135.917L109.85 138.36L109.911 114.434Z" fill="#FFD778"/>
<path fill-rule="evenodd" clip-rule="evenodd" d="M99.2566 117.566L99.2566 142.872L98.8643 142.872L98.8643 117.566L99.2566 117.566Z" fill="#FF5C62"/>
<path fill-rule="evenodd" clip-rule="evenodd" d="M75.5197 110.504L99.1153 117.468L99.1153 117.905L75.5197 110.896L75.5197 110.504Z" fill="#FF5C62" style="mix-blend-mode:lighten"/>
<path fill-rule="evenodd" clip-rule="evenodd" d="M123.974 111.288L99.0604 117.86L99.0604 117.468L123.974 110.896L123.974 111.288Z" fill="#FF4D52" style="mix-blend-mode:lighten"/>
<path d="M74.3103 106.003L98.988 113.259V120.955L74.3103 112.319V106.003Z" fill="url(#paint6_linear_1837_16431)"/>
<path d="M74.3103 106.003L98.988 113.259V120.955L74.3103 112.319V106.003Z" fill="white" fill-opacity="0.1"/>
<path d="M125.219 106.255L99.07 113.259V120.955L125.219 112.824V106.255Z" fill="url(#paint7_linear_1837_16431)"/>
<path d="M125.219 106.255L99.07 113.259V120.955L125.219 112.824V106.255Z" fill="white" fill-opacity="0.1"/>
<path fill-rule="evenodd" clip-rule="evenodd" d="M99.3226 113.077L99.3226 121.162L98.8173 121.162L98.8173 113.077L99.3226 113.077Z" fill="#FF666C"/>
<path fill-rule="evenodd" clip-rule="evenodd" d="M74.3104 106.003L98.9438 113.077L98.8135 113.565L74.3105 106.491L74.3104 106.003Z" fill="#FF666C"/>
<path d="M82.0162 108.276L87.5937 109.792V116.993L82.1426 115.098L82.0162 108.276Z" fill="#FFEAB8"/>
<path fill-rule="evenodd" clip-rule="evenodd" d="M125.219 106.634L98.9659 113.774L98.8172 113.291L125.219 106.255L125.219 106.634Z" fill="#FF666C"/>
<path d="M111.45 109.919L117.335 108.403V115.351L111.45 117.084V109.919Z" fill="#FFDE8E"/>
<g filter="url(#filter1_f_1837_16431)">
<ellipse cx="93.5798" cy="106.096" rx="1.37321" ry="1.27512" fill="white"/>
</g>
<path d="M117.096 100.094C116.341 96.9021 112.219 93.8804 107.531 95.0124C103.615 96.6546 102.604 101.834 100.262 103.479C105.636 103.097 103.69 106.167 108.486 105.733C116.176 105.03 117.852 103.286 117.096 100.094Z" fill="#FFDE8E"/>
<path d="M116.671 98.833C117.636 100.29 117.851 103.646 113.862 104.746C111.476 105.404 108.162 106.112 106.757 105.54C107.152 104.108 107.732 102.26 109.678 100.571C112.241 98.3483 115.706 97.376 116.671 98.833Z" fill="#FFCE5B"/>
<path d="M97.0458 103.097C97.0798 100.561 101.379 98.3085 103.572 99.4614C105.852 100.659 107.632 103.507 107.04 105.104C106.449 106.701 105.029 106.914 103.147 107.286C101.265 107.659 99.9531 108.159 99.3293 107.286C98.7056 106.413 95.0276 102.442 95.0276 102.442L97.0458 103.097Z" fill="#FFD470"/>
<path d="M104.305 100.865C102.62 98.841 101.846 99.1911 101.846 99.1911C101.846 99.1911 103.529 98.9389 105.257 100.707C106.336 101.811 106.895 102.751 107.142 104.401C107.389 106.052 105.515 106.636 105.762 106.518C105.762 106.518 104.625 107.023 100.599 107.82C100.599 107.82 108.13 105.462 104.305 100.865Z" fill="#CEAB94" fill-opacity="0.34" style="mix-blend-mode:multiply"/>
<path d="M83.2763 102.971C84.0598 99.7644 86.3081 98.528 91.4874 99.0547C98.9406 99.8127 102.483 107.01 100.927 107.759C97.5585 109.387 94.4458 111.671 89.6008 110.464C84.7559 109.257 82.4928 106.177 83.2763 102.971Z" fill="#FFDE8E"/>
<path d="M88.9612 105.624C86.8868 110.459 89.8454 111.056 93.5089 110.803C96.4072 110.551 99.2444 108.683 100.836 107.771C99.8251 106.382 98.3092 104.992 97.1723 104.234C94.33 102.339 90.0391 103.111 88.9612 105.624Z" fill="#FFCE5B"/>
<path d="M91.2762 103.517C89.6887 103.923 89.0713 105.175 88.9611 105.75C89.4755 105.649 90.703 105.364 91.4967 105.04C92.2905 104.715 94.1794 103.754 95.0246 103.314C94.4367 103.213 92.8638 103.111 91.2762 103.517Z" fill="#CC2024"/>
<path fill-rule="evenodd" clip-rule="evenodd" d="M95.0246 103.314C94.4639 103.217 93.0075 103.121 91.4967 103.464L93.7614 103.96C94.2534 103.713 94.7109 103.478 95.0246 103.314Z" fill="#FFE6AA"/>
<path d="M93.635 99.4437C95.9762 100.399 98.309 103.612 98.309 105.128C99.5722 106.013 100.361 107.307 100.835 107.781C101.341 107.655 101.214 107.529 101.341 107.276C101.682 105.24 98.5616 102.136 96.9194 100.96C96.002 100.302 93.9467 99.5985 93.635 99.4437Z" fill="#CEAB94" fill-opacity="0.34" style="mix-blend-mode:multiply"/>
<path d="M112.079 98.9284C114.858 98.0734 116.007 98.1292 116.482 98.608C117.187 99.3192 117.499 100.694 117.056 102.199C116.841 102.931 116.058 103.795 115.662 103.943C115.47 103.966 116.103 104.353 115.561 102.062C115.018 99.7709 112.824 99.2703 112.079 98.9284Z" fill="#CEAB94" fill-opacity="0.34" style="mix-blend-mode:multiply"/>
<path d="M11 72.7611L37.0229 84.004L69.4883 72.7611L45.613 63.9183L16.432 69.3503L11 72.7611Z" fill="#DFE1EC"/>
<path d="M37.5936 40.646L63.0488 46.4854L36.7164 53.5311L12.1399 46.3323L37.5936 40.646Z" fill="#CC2024"/>
<path d="M55.0903 48.633L31.4675 41.9377L24.7723 43.4536L49.2793 50.1489L55.0903 48.633Z" fill="#FFD778"/>
<path d="M25.404 50.0226L52.5638 44.0853L45.9949 42.4431L19.972 48.5067L25.404 50.0226Z" fill="#DFB249"/>
<path d="M13.3495 50.7338L36.8902 57.6916V83.1023L13.3495 72.3516V50.7338Z" fill="url(#paint8_linear_1837_16431)"/>
<path d="M61.804 51.1262L36.89 57.698V83.1024L61.804 72.5779V51.1262Z" fill="url(#paint9_linear_1837_16431)"/>
<path d="M21.3925 53.4802L26.8853 55.1477V78.5904L21.3925 76.1501V53.4802Z" fill="#FFDE8E"/>
<path d="M47.7409 54.6643L53.5648 53.2841V76.147L47.6796 78.5904L47.7409 54.6643Z" fill="#FFD778"/>
<path fill-rule="evenodd" clip-rule="evenodd" d="M37.0864 57.796L37.0864 83.1023L36.6941 83.1023L36.6941 57.796L37.0864 57.796Z" fill="#FF5C62"/>
<path fill-rule="evenodd" clip-rule="evenodd" d="M13.3495 50.7338L36.9452 57.6979L36.9452 58.1352L13.3495 51.1261L13.3495 50.7338Z" fill="#FF5C62" style="mix-blend-mode:lighten"/>
<path fill-rule="evenodd" clip-rule="evenodd" d="M61.804 51.5186L36.89 58.0904L36.89 57.698L61.804 51.1262L61.804 51.5186Z" fill="#FF4D52" style="mix-blend-mode:lighten"/>
<path d="M12.1399 46.2328L36.8176 53.4893V61.1852L12.1399 52.549V46.2328Z" fill="url(#paint10_linear_1837_16431)"/>
<path d="M12.1399 46.2328L36.8176 53.4893V61.1852L12.1399 52.549V46.2328Z" fill="white" fill-opacity="0.1"/>
<path d="M63.0487 46.4855L36.8995 53.4894V61.1852L63.0487 53.0544V46.4855Z" fill="url(#paint11_linear_1837_16431)"/>
<path d="M63.0487 46.4855L36.8995 53.4894V61.1852L63.0487 53.0544V46.4855Z" fill="white" fill-opacity="0.1"/>
<path fill-rule="evenodd" clip-rule="evenodd" d="M37.1521 53.307L37.1521 61.3918L36.6469 61.3918L36.6469 53.307L37.1521 53.307Z" fill="#FF666C"/>
<path fill-rule="evenodd" clip-rule="evenodd" d="M12.14 46.2329L36.7733 53.3071L36.6431 53.7953L12.14 46.7211L12.14 46.2329Z" fill="#FF666C"/>
<path d="M19.8458 48.5067L25.4233 50.0226V57.2231L19.9721 55.3282L19.8458 48.5067Z" fill="#FFEAB8"/>
<path fill-rule="evenodd" clip-rule="evenodd" d="M63.0486 46.8646L36.7955 54.004L36.6468 53.521L63.0487 46.4856L63.0486 46.8646Z" fill="#FF666C"/>
<path d="M49.2793 50.1489L55.1645 48.6331V55.5809L49.2793 57.3147V50.1489Z" fill="#FFDE8E"/>
<g filter="url(#filter2_f_1837_16431)">
<ellipse cx="31.4095" cy="46.326" rx="1.37321" ry="1.27512" fill="white"/>
</g>
<path d="M54.926 40.3245C54.1704 37.1323 50.0486 34.1106 45.3606 35.2426C41.4446 36.8848 40.434 42.0641 38.0915 43.7097C43.4657 43.3274 41.52 46.3975 46.316 45.963C54.0059 45.2602 55.6816 43.5166 54.926 40.3245Z" fill="#FFDE8E"/>
<path d="M54.501 39.0632C55.4661 40.5202 55.6806 43.8765 51.6914 44.9763C49.3053 45.6339 45.9917 46.3426 44.5868 45.77C44.9816 44.338 45.5618 42.4903 47.5081 40.8009C50.0711 38.5785 53.5358 37.6062 54.501 39.0632Z" fill="#FFCE5B"/>
<path d="M34.8754 43.3273C34.9094 40.7907 39.2086 38.5387 41.4015 39.6916C43.6814 40.8893 45.4613 43.7372 44.8698 45.3342C44.2783 46.9311 42.8587 47.144 40.9767 47.5167C39.0947 47.8893 37.7827 48.3897 37.1589 47.5167C36.5352 46.6437 32.8572 42.6726 32.8572 42.6726L34.8754 43.3273Z" fill="#FFD470"/>
<path d="M42.1343 41.0953C40.4501 39.0712 39.6759 39.4213 39.6759 39.4213C39.6759 39.4213 41.3583 39.1691 43.0867 40.9372C44.1654 42.0408 44.7249 42.9813 44.9718 44.6316C45.2187 46.2819 43.3451 46.866 43.592 46.7482C43.592 46.7482 42.455 47.2535 38.4286 48.05C38.4286 48.05 45.9593 45.6925 42.1343 41.0953Z" fill="#CEAB94" fill-opacity="0.34" style="mix-blend-mode:multiply"/>
<path d="M21.1063 43.201C21.8898 39.9946 24.1381 38.7582 29.3174 39.2849C36.7705 40.0429 40.3133 47.2403 38.7569 47.9894C35.3884 49.6168 32.2757 51.9017 27.4308 50.6946C22.5859 49.4875 20.3228 46.4073 21.1063 43.201Z" fill="#FFDE8E"/>
<path d="M26.7906 45.8538C24.7163 50.6893 27.6749 51.2858 31.3383 51.0331C34.2367 50.7807 37.0739 48.9134 38.6652 48.0013C37.6546 46.6117 36.1387 45.2222 35.0017 44.4642C32.1594 42.5694 27.8686 43.341 26.7906 45.8538Z" fill="#FFCE5B"/>
<path d="M29.106 43.7475C27.5184 44.1534 26.901 45.4051 26.7908 45.9802C27.3053 45.8787 28.5327 45.5946 29.3265 45.2698C30.1202 44.9451 32.0091 43.9843 32.8544 43.5445C32.2664 43.443 30.6935 43.3415 29.106 43.7475Z" fill="#CC2024"/>
<path fill-rule="evenodd" clip-rule="evenodd" d="M32.8544 43.5445C32.2936 43.4477 30.8372 43.3509 29.3265 43.6943L31.5911 44.1904C32.0831 43.9428 32.5406 43.7078 32.8544 43.5445Z" fill="#FFE6AA"/>
<path d="M31.4647 39.674C33.8059 40.6291 36.1387 43.8427 36.1387 45.3586C37.402 46.2428 38.1907 47.5369 38.6652 48.0114C39.1705 47.8851 39.0442 47.7587 39.1705 47.5061C39.5122 45.4707 36.3914 42.3662 34.7491 41.1898C33.8317 40.5327 31.7764 39.8287 31.4647 39.674Z" fill="#CEAB94" fill-opacity="0.34" style="mix-blend-mode:multiply"/>
<path d="M49.9083 39.1586C52.6876 38.3036 53.8369 38.3595 54.3114 38.8382C55.0163 39.5494 55.3282 40.9243 54.8856 42.4292C54.6704 43.1607 53.8875 44.0251 53.4921 44.1733C53.3 44.1961 53.9327 44.5836 53.3904 42.2924C52.8481 40.0011 50.654 39.5006 49.9083 39.1586Z" fill="#CEAB94" fill-opacity="0.34" style="mix-blend-mode:multiply"/>
<path d="M11 132.531L37.0229 143.774L69.4883 132.531L45.613 123.688L16.432 129.12L11 132.531Z" fill="#DFE1EC"/>
<path d="M37.5936 100.416L63.0488 106.255L36.7164 113.301L12.1399 106.102L37.5936 100.416Z" fill="#CC2024"/>
<path d="M55.0903 108.403L31.4675 101.708L24.7723 103.223L49.2793 109.919L55.0903 108.403Z" fill="#FFD778"/>
<path d="M25.404 109.792L52.5638 103.855L45.9949 102.213L19.972 108.276L25.404 109.792Z" fill="#DFB249"/>
<path d="M13.3495 110.504L36.8902 117.461V142.872L13.3495 132.121V110.504Z" fill="url(#paint12_linear_1837_16431)"/>
<path d="M61.804 110.896L36.89 117.468V142.872L61.804 132.348V110.896Z" fill="url(#paint13_linear_1837_16431)"/>
<path d="M21.3925 113.25L26.8853 114.917V138.36L21.3925 135.92V113.25Z" fill="#FFDE8E"/>
<path d="M47.7409 114.434L53.5648 113.054V135.917L47.6796 138.36L47.7409 114.434Z" fill="#FFD778"/>
<path fill-rule="evenodd" clip-rule="evenodd" d="M37.0864 117.566L37.0864 142.872L36.6941 142.872L36.6941 117.566L37.0864 117.566Z" fill="#FF5C62"/>
<path fill-rule="evenodd" clip-rule="evenodd" d="M13.3495 110.504L36.9452 117.468L36.9452 117.905L13.3495 110.896L13.3495 110.504Z" fill="#FF5C62" style="mix-blend-mode:lighten"/>
<path fill-rule="evenodd" clip-rule="evenodd" d="M61.804 111.288L36.89 117.86L36.89 117.468L61.804 110.896L61.804 111.288Z" fill="#FF4D52" style="mix-blend-mode:lighten"/>
<path d="M12.1399 106.003L36.8176 113.259V120.955L12.1399 112.319V106.003Z" fill="url(#paint14_linear_1837_16431)"/>
<path d="M12.1399 106.003L36.8176 113.259V120.955L12.1399 112.319V106.003Z" fill="white" fill-opacity="0.1"/>
<path d="M63.0487 106.255L36.8995 113.259V120.955L63.0487 112.824V106.255Z" fill="url(#paint15_linear_1837_16431)"/>
<path d="M63.0487 106.255L36.8995 113.259V120.955L63.0487 112.824V106.255Z" fill="white" fill-opacity="0.1"/>
<path fill-rule="evenodd" clip-rule="evenodd" d="M37.1521 113.077L37.1521 121.162L36.6469 121.162L36.6469 113.077L37.1521 113.077Z" fill="#FF666C"/>
<path fill-rule="evenodd" clip-rule="evenodd" d="M12.14 106.003L36.7733 113.077L36.6431 113.565L12.14 106.491L12.14 106.003Z" fill="#FF666C"/>
<path d="M19.8458 108.276L25.4233 109.792V116.993L19.9721 115.098L19.8458 108.276Z" fill="#FFEAB8"/>
<path fill-rule="evenodd" clip-rule="evenodd" d="M63.0486 106.634L36.7955 113.774L36.6468 113.291L63.0487 106.255L63.0486 106.634Z" fill="#FF666C"/>
<path d="M49.2793 109.919L55.1645 108.403V115.351L49.2793 117.084V109.919Z" fill="#FFDE8E"/>
<g filter="url(#filter3_f_1837_16431)">
<ellipse cx="31.4095" cy="106.096" rx="1.37321" ry="1.27512" fill="white"/>
</g>
<path d="M54.926 100.094C54.1704 96.9021 50.0486 93.8804 45.3606 95.0124C41.4446 96.6546 40.434 101.834 38.0915 103.479C43.4657 103.097 41.52 106.167 46.316 105.733C54.0059 105.03 55.6816 103.286 54.926 100.094Z" fill="#FFDE8E"/>
<path d="M54.501 98.833C55.4661 100.29 55.6806 103.646 51.6914 104.746C49.3053 105.404 45.9917 106.112 44.5868 105.54C44.9816 104.108 45.5618 102.26 47.5081 100.571C50.0711 98.3483 53.5358 97.376 54.501 98.833Z" fill="#FFCE5B"/>
<path d="M34.8754 103.097C34.9094 100.561 39.2086 98.3085 41.4015 99.4614C43.6814 100.659 45.4613 103.507 44.8698 105.104C44.2783 106.701 42.8587 106.914 40.9767 107.286C39.0947 107.659 37.7827 108.159 37.1589 107.286C36.5352 106.413 32.8572 102.442 32.8572 102.442L34.8754 103.097Z" fill="#FFD470"/>
<path d="M42.1343 100.865C40.4501 98.841 39.6759 99.1911 39.6759 99.1911C39.6759 99.1911 41.3583 98.9389 43.0867 100.707C44.1654 101.811 44.7249 102.751 44.9718 104.401C45.2187 106.052 43.3451 106.636 43.592 106.518C43.592 106.518 42.455 107.023 38.4286 107.82C38.4286 107.82 45.9593 105.462 42.1343 100.865Z" fill="#CEAB94" fill-opacity="0.34" style="mix-blend-mode:multiply"/>
<path d="M21.1063 102.971C21.8898 99.7644 24.1381 98.528 29.3174 99.0547C36.7705 99.8127 40.3133 107.01 38.7569 107.759C35.3884 109.387 32.2757 111.671 27.4308 110.464C22.5859 109.257 20.3228 106.177 21.1063 102.971Z" fill="#FFDE8E"/>
<path d="M26.7906 105.624C24.7163 110.459 27.6749 111.056 31.3383 110.803C34.2367 110.551 37.0739 108.683 38.6652 107.771C37.6546 106.382 36.1387 104.992 35.0017 104.234C32.1594 102.339 27.8686 103.111 26.7906 105.624Z" fill="#FFCE5B"/>
<path d="M29.106 103.517C27.5184 103.923 26.901 105.175 26.7908 105.75C27.3053 105.649 28.5327 105.364 29.3265 105.04C30.1202 104.715 32.0091 103.754 32.8544 103.314C32.2664 103.213 30.6935 103.111 29.106 103.517Z" fill="#CC2024"/>
<path fill-rule="evenodd" clip-rule="evenodd" d="M32.8544 103.314C32.2936 103.217 30.8372 103.121 29.3265 103.464L31.5911 103.96C32.0831 103.713 32.5406 103.478 32.8544 103.314Z" fill="#FFE6AA"/>
<path d="M31.4647 99.4437C33.8059 100.399 36.1387 103.612 36.1387 105.128C37.402 106.013 38.1907 107.307 38.6652 107.781C39.1705 107.655 39.0442 107.529 39.1705 107.276C39.5122 105.24 36.3914 102.136 34.7491 100.96C33.8317 100.302 31.7764 99.5985 31.4647 99.4437Z" fill="#CEAB94" fill-opacity="0.34" style="mix-blend-mode:multiply"/>
<path d="M49.9083 98.9284C52.6876 98.0734 53.8369 98.1292 54.3114 98.608C55.0163 99.3192 55.3282 100.694 54.8856 102.199C54.6704 102.931 53.8875 103.795 53.4921 103.943C53.3 103.966 53.9327 104.353 53.3904 102.062C52.8481 99.7709 50.654 99.2703 49.9083 98.9284Z" fill="#CEAB94" fill-opacity="0.34" style="mix-blend-mode:multiply"/>
<path d="M135.341 72.7611L161.364 84.004L193.829 72.7611L169.954 63.9183L140.773 69.3503L135.341 72.7611Z" fill="#DFE1EC"/>
<path d="M161.935 40.646L187.39 46.4854L161.057 53.5311L136.481 46.3323L161.935 40.646Z" fill="#CC2024"/>
<path d="M179.431 48.633L155.809 41.9377L149.114 43.4536L173.621 50.1489L179.431 48.633Z" fill="#FFD778"/>
<path d="M149.745 50.0226L176.905 44.0853L170.336 42.4431L144.313 48.5067L149.745 50.0226Z" fill="#DFB249"/>
<path d="M137.691 50.7338L161.231 57.6916V83.1023L137.691 72.3516V50.7338Z" fill="url(#paint16_linear_1837_16431)"/>
<path d="M186.145 51.1262L161.231 57.698V83.1024L186.145 72.5779V51.1262Z" fill="url(#paint17_linear_1837_16431)"/>
<path d="M145.734 53.4802L151.226 55.1477V78.5904L145.734 76.1501V53.4802Z" fill="#FFDE8E"/>
<path d="M172.082 54.6643L177.906 53.2841V76.147L172.021 78.5904L172.082 54.6643Z" fill="#FFD778"/>
<path fill-rule="evenodd" clip-rule="evenodd" d="M161.427 57.796L161.427 83.1023L161.035 83.1023L161.035 57.796L161.427 57.796Z" fill="#FF5C62"/>
<path fill-rule="evenodd" clip-rule="evenodd" d="M137.691 50.7338L161.286 57.6979L161.286 58.1352L137.691 51.1261L137.691 50.7338Z" fill="#FF5C62" style="mix-blend-mode:lighten"/>
<path fill-rule="evenodd" clip-rule="evenodd" d="M186.145 51.5186L161.231 58.0904L161.231 57.698L186.145 51.1262L186.145 51.5186Z" fill="#FF4D52" style="mix-blend-mode:lighten"/>
<path d="M136.481 46.2328L161.159 53.4893V61.1852L136.481 52.549V46.2328Z" fill="url(#paint18_linear_1837_16431)"/>
<path d="M136.481 46.2328L161.159 53.4893V61.1852L136.481 52.549V46.2328Z" fill="white" fill-opacity="0.1"/>
<path d="M187.39 46.4855L161.241 53.4894V61.1852L187.39 53.0544V46.4855Z" fill="url(#paint19_linear_1837_16431)"/>
<path d="M187.39 46.4855L161.241 53.4894V61.1852L187.39 53.0544V46.4855Z" fill="white" fill-opacity="0.1"/>
<path fill-rule="evenodd" clip-rule="evenodd" d="M161.493 53.307L161.493 61.3918L160.988 61.3918L160.988 53.307L161.493 53.307Z" fill="#FF666C"/>
<path fill-rule="evenodd" clip-rule="evenodd" d="M136.481 46.2329L161.114 53.3071L160.984 53.7953L136.481 46.7211L136.481 46.2329Z" fill="#FF666C"/>
<path d="M144.187 48.5067L149.764 50.0226V57.2231L144.313 55.3282L144.187 48.5067Z" fill="#FFEAB8"/>
<path fill-rule="evenodd" clip-rule="evenodd" d="M187.39 46.8646L161.137 54.004L160.988 53.521L187.39 46.4856L187.39 46.8646Z" fill="#FF666C"/>
<path d="M173.62 50.1489L179.506 48.6331V55.5809L173.62 57.3147V50.1489Z" fill="#FFDE8E"/>
<g filter="url(#filter4_f_1837_16431)">
<ellipse cx="155.75" cy="46.326" rx="1.37321" ry="1.27512" fill="white"/>
</g>
<path d="M179.267 40.3245C178.511 37.1323 174.389 34.1106 169.701 35.2426C165.785 36.8848 164.775 42.0641 162.432 43.7097C167.806 43.3274 165.861 46.3975 170.657 45.963C178.347 45.2602 180.022 43.5166 179.267 40.3245Z" fill="#FFDE8E"/>
<path d="M178.842 39.0632C179.807 40.5202 180.021 43.8765 176.032 44.9763C173.646 45.6339 170.332 46.3426 168.928 45.77C169.322 44.338 169.902 42.4903 171.849 40.8009C174.412 38.5785 177.877 37.6062 178.842 39.0632Z" fill="#FFCE5B"/>
<path d="M159.216 43.3273C159.25 40.7907 163.55 38.5387 165.742 39.6916C168.022 40.8893 169.802 43.7372 169.211 45.3342C168.619 46.9311 167.2 47.144 165.318 47.5167C163.436 47.8893 162.124 48.3897 161.5 47.5167C160.876 46.6437 157.198 42.6726 157.198 42.6726L159.216 43.3273Z" fill="#FFD470"/>
<path d="M166.475 41.0953C164.791 39.0712 164.017 39.4213 164.017 39.4213C164.017 39.4213 165.699 39.1691 167.428 40.9372C168.506 42.0408 169.066 42.9813 169.313 44.6316C169.56 46.2819 167.686 46.866 167.933 46.7482C167.933 46.7482 166.796 47.2535 162.77 48.05C162.77 48.05 170.3 45.6925 166.475 41.0953Z" fill="#CEAB94" fill-opacity="0.34" style="mix-blend-mode:multiply"/>
<path d="M145.447 43.201C146.23 39.9946 148.479 38.7582 153.658 39.2849C161.111 40.0429 164.654 47.2403 163.098 47.9894C159.729 49.6168 156.616 51.9017 151.771 50.6946C146.927 49.4875 144.663 46.4073 145.447 43.201Z" fill="#FFDE8E"/>
<path d="M151.132 45.8538C149.057 50.6893 152.016 51.2858 155.679 51.0331C158.578 50.7807 161.415 48.9134 163.006 48.0013C161.996 46.6117 160.48 45.2222 159.343 44.4642C156.5 42.5694 152.209 43.341 151.132 45.8538Z" fill="#FFCE5B"/>
<path d="M153.447 43.7475C151.859 44.1534 151.242 45.4051 151.132 45.9802C151.646 45.8787 152.873 45.5946 153.667 45.2698C154.461 44.9451 156.35 43.9843 157.195 43.5445C156.607 43.443 155.034 43.3415 153.447 43.7475Z" fill="#CC2024"/>
<path fill-rule="evenodd" clip-rule="evenodd" d="M157.195 43.5445C156.634 43.4477 155.178 43.3509 153.667 43.6943L155.932 44.1904C156.424 43.9428 156.881 43.7078 157.195 43.5445Z" fill="#FFE6AA"/>
<path d="M155.806 39.674C158.147 40.6291 160.48 43.8427 160.48 45.3586C161.743 46.2428 162.532 47.5369 163.006 48.0114C163.511 47.8851 163.385 47.7587 163.511 47.5061C163.853 45.4707 160.732 42.3662 159.09 41.1898C158.173 40.5327 156.117 39.8287 155.806 39.674Z" fill="#CEAB94" fill-opacity="0.34" style="mix-blend-mode:multiply"/>
<path d="M174.249 39.1586C177.028 38.3036 178.178 38.3595 178.652 38.8382C179.357 39.5494 179.669 40.9243 179.226 42.4292C179.011 43.1607 178.228 44.0251 177.833 44.1733C177.641 44.1961 178.273 44.5836 177.731 42.2924C177.189 40.0011 174.995 39.5006 174.249 39.1586Z" fill="#CEAB94" fill-opacity="0.34" style="mix-blend-mode:multiply"/>
<path d="M135.341 132.531L161.364 143.774L193.829 132.531L169.954 123.688L140.773 129.12L135.341 132.531Z" fill="#DFE1EC"/>
<path d="M161.935 100.416L187.39 106.255L161.057 113.301L136.481 106.102L161.935 100.416Z" fill="#CC2024"/>
<path d="M179.431 108.403L155.809 101.708L149.114 103.223L173.621 109.919L179.431 108.403Z" fill="#FFD778"/>
<path d="M149.745 109.792L176.905 103.855L170.336 102.213L144.313 108.276L149.745 109.792Z" fill="#DFB249"/>
<path d="M137.691 110.504L161.231 117.461V142.872L137.691 132.121V110.504Z" fill="url(#paint20_linear_1837_16431)"/>
<path d="M186.145 110.896L161.231 117.468V142.872L186.145 132.348V110.896Z" fill="url(#paint21_linear_1837_16431)"/>
<path d="M145.734 113.25L151.226 114.917V138.36L145.734 135.92V113.25Z" fill="#FFDE8E"/>
<path d="M172.082 114.434L177.906 113.054V135.917L172.021 138.36L172.082 114.434Z" fill="#FFD778"/>
<path fill-rule="evenodd" clip-rule="evenodd" d="M161.427 117.566L161.427 142.872L161.035 142.872L161.035 117.566L161.427 117.566Z" fill="#FF5C62"/>
<path fill-rule="evenodd" clip-rule="evenodd" d="M137.691 110.504L161.286 117.468L161.286 117.905L137.691 110.896L137.691 110.504Z" fill="#FF5C62" style="mix-blend-mode:lighten"/>
<path fill-rule="evenodd" clip-rule="evenodd" d="M186.145 111.288L161.231 117.86L161.231 117.468L186.145 110.896L186.145 111.288Z" fill="#FF4D52" style="mix-blend-mode:lighten"/>
<path d="M136.481 106.003L161.159 113.259V120.955L136.481 112.319V106.003Z" fill="url(#paint22_linear_1837_16431)"/>
<path d="M136.481 106.003L161.159 113.259V120.955L136.481 112.319V106.003Z" fill="white" fill-opacity="0.1"/>
<path d="M187.39 106.255L161.241 113.259V120.955L187.39 112.824V106.255Z" fill="url(#paint23_linear_1837_16431)"/>
<path d="M187.39 106.255L161.241 113.259V120.955L187.39 112.824V106.255Z" fill="white" fill-opacity="0.1"/>
<path fill-rule="evenodd" clip-rule="evenodd" d="M161.493 113.077L161.493 121.162L160.988 121.162L160.988 113.077L161.493 113.077Z" fill="#FF666C"/>
<path fill-rule="evenodd" clip-rule="evenodd" d="M136.481 106.003L161.114 113.077L160.984 113.565L136.481 106.491L136.481 106.003Z" fill="#FF666C"/>
<path d="M144.187 108.276L149.764 109.792V116.993L144.313 115.098L144.187 108.276Z" fill="#FFEAB8"/>
<path fill-rule="evenodd" clip-rule="evenodd" d="M187.39 106.634L161.137 113.774L160.988 113.291L187.39 106.255L187.39 106.634Z" fill="#FF666C"/>
<path d="M173.62 109.919L179.506 108.403V115.351L173.62 117.084V109.919Z" fill="#FFDE8E"/>
<g filter="url(#filter5_f_1837_16431)">
<ellipse cx="155.75" cy="106.096" rx="1.37321" ry="1.27512" fill="white"/>
</g>
<path d="M179.267 100.094C178.511 96.9021 174.389 93.8804 169.701 95.0124C165.785 96.6546 164.775 101.834 162.432 103.479C167.806 103.097 165.861 106.167 170.657 105.733C178.347 105.03 180.022 103.286 179.267 100.094Z" fill="#FFDE8E"/>
<path d="M178.842 98.833C179.807 100.29 180.021 103.646 176.032 104.746C173.646 105.404 170.332 106.112 168.928 105.54C169.322 104.108 169.902 102.26 171.849 100.571C174.412 98.3483 177.877 97.376 178.842 98.833Z" fill="#FFCE5B"/>
<path d="M159.216 103.097C159.25 100.561 163.55 98.3085 165.742 99.4614C168.022 100.659 169.802 103.507 169.211 105.104C168.619 106.701 167.2 106.914 165.318 107.286C163.436 107.659 162.124 108.159 161.5 107.286C160.876 106.413 157.198 102.442 157.198 102.442L159.216 103.097Z" fill="#FFD470"/>
<path d="M166.475 100.865C164.791 98.841 164.017 99.1911 164.017 99.1911C164.017 99.1911 165.699 98.9389 167.428 100.707C168.506 101.811 169.066 102.751 169.313 104.401C169.56 106.052 167.686 106.636 167.933 106.518C167.933 106.518 166.796 107.023 162.77 107.82C162.77 107.82 170.3 105.462 166.475 100.865Z" fill="#CEAB94" fill-opacity="0.34" style="mix-blend-mode:multiply"/>
<path d="M145.447 102.971C146.23 99.7644 148.479 98.528 153.658 99.0547C161.111 99.8127 164.654 107.01 163.098 107.759C159.729 109.387 156.616 111.671 151.771 110.464C146.927 109.257 144.663 106.177 145.447 102.971Z" fill="#FFDE8E"/>
<path d="M151.132 105.624C149.057 110.459 152.016 111.056 155.679 110.803C158.578 110.551 161.415 108.683 163.006 107.771C161.996 106.382 160.48 104.992 159.343 104.234C156.5 102.339 152.209 103.111 151.132 105.624Z" fill="#FFCE5B"/>
<path d="M153.447 103.517C151.859 103.923 151.242 105.175 151.132 105.75C151.646 105.649 152.873 105.364 153.667 105.04C154.461 104.715 156.35 103.754 157.195 103.314C156.607 103.213 155.034 103.111 153.447 103.517Z" fill="#CC2024"/>
<path fill-rule="evenodd" clip-rule="evenodd" d="M157.195 103.314C156.634 103.217 155.178 103.121 153.667 103.464L155.932 103.96C156.424 103.713 156.881 103.478 157.195 103.314Z" fill="#FFE6AA"/>
<path d="M155.806 99.4437C158.147 100.399 160.48 103.612 160.48 105.128C161.743 106.013 162.532 107.307 163.006 107.781C163.511 107.655 163.385 107.529 163.511 107.276C163.853 105.24 160.732 102.136 159.09 100.96C158.173 100.302 156.117 99.5985 155.806 99.4437Z" fill="#CEAB94" fill-opacity="0.34" style="mix-blend-mode:multiply"/>
<path d="M174.249 98.9284C177.028 98.0734 178.178 98.1292 178.652 98.608C179.357 99.3192 179.669 100.694 179.226 102.199C179.011 102.931 178.228 103.795 177.833 103.943C177.641 103.966 178.273 104.353 177.731 102.062C177.189 99.7709 174.995 99.2703 174.249 98.9284Z" fill="#CEAB94" fill-opacity="0.34" style="mix-blend-mode:multiply"/>
<path d="M72 192.531L98.0229 203.774L130.488 192.531L106.613 183.688L77.432 189.12L72 192.531Z" fill="#DFE1EC"/>
<path d="M98.5936 160.416L124.049 166.255L97.7164 173.301L73.1399 166.102L98.5936 160.416Z" fill="#CC2024"/>
<path d="M116.09 168.403L92.4677 161.708L85.7725 163.223L110.279 169.919L116.09 168.403Z" fill="#FFD778"/>
<path d="M86.4039 169.792L113.564 163.855L106.995 162.213L80.9719 168.276L86.4039 169.792Z" fill="#DFB249"/>
<path d="M74.3495 170.504L97.8902 177.461V202.872L74.3495 192.121V170.504Z" fill="url(#paint24_linear_1837_16431)"/>
<path d="M122.804 170.896L97.89 177.468V202.872L122.804 192.348V170.896Z" fill="url(#paint25_linear_1837_16431)"/>
<path d="M82.3925 173.25L87.8853 174.917V198.36L82.3925 195.92V173.25Z" fill="#FFDE8E"/>
<path d="M108.741 174.434L114.565 173.054V195.917L108.68 198.36L108.741 174.434Z" fill="#FFD778"/>
<path fill-rule="evenodd" clip-rule="evenodd" d="M98.0862 177.566L98.0862 202.872L97.6938 202.872L97.6938 177.566L98.0862 177.566Z" fill="#FF5C62"/>
<path fill-rule="evenodd" clip-rule="evenodd" d="M74.3495 170.504L97.9452 177.468L97.9452 177.905L74.3495 170.896L74.3495 170.504Z" fill="#FF5C62" style="mix-blend-mode:lighten"/>
<path fill-rule="evenodd" clip-rule="evenodd" d="M122.804 171.288L97.89 177.86L97.89 177.468L122.804 170.896L122.804 171.288Z" fill="#FF4D52" style="mix-blend-mode:lighten"/>
<path d="M73.1399 166.003L97.8176 173.259V180.955L73.1399 172.319V166.003Z" fill="url(#paint26_linear_1837_16431)"/>
<path d="M73.1399 166.003L97.8176 173.259V180.955L73.1399 172.319V166.003Z" fill="white" fill-opacity="0.1"/>
<path d="M124.049 166.255L97.8996 173.259V180.955L124.049 172.824V166.255Z" fill="url(#paint27_linear_1837_16431)"/>
<path d="M124.049 166.255L97.8996 173.259V180.955L124.049 172.824V166.255Z" fill="white" fill-opacity="0.1"/>
<path fill-rule="evenodd" clip-rule="evenodd" d="M98.1521 173.077L98.1521 181.162L97.6469 181.162L97.6469 173.077L98.1521 173.077Z" fill="#FF666C"/>
<path fill-rule="evenodd" clip-rule="evenodd" d="M73.1399 166.003L97.7732 173.077L97.643 173.565L73.1399 166.491L73.1399 166.003Z" fill="#FF666C"/>
<path d="M80.8457 168.276L86.4232 169.792V176.993L80.972 175.098L80.8457 168.276Z" fill="#FFEAB8"/>
<path fill-rule="evenodd" clip-rule="evenodd" d="M124.049 166.634L97.7955 173.774L97.6468 173.291L124.049 166.255L124.049 166.634Z" fill="#FF666C"/>
<path d="M110.279 169.919L116.165 168.403V175.351L110.279 177.084V169.919Z" fill="#FFDE8E"/>
<g filter="url(#filter6_f_1837_16431)">
<ellipse cx="92.4091" cy="166.096" rx="1.37321" ry="1.27512" fill="white"/>
</g>
<path d="M115.926 160.094C115.17 156.902 111.048 153.88 106.36 155.012C102.444 156.655 101.434 161.834 99.0911 163.479C104.465 163.097 102.52 166.167 107.316 165.733C115.006 165.03 116.681 163.286 115.926 160.094Z" fill="#FFDE8E"/>
<path d="M115.501 158.833C116.466 160.29 116.68 163.646 112.691 164.746C110.305 165.404 106.991 166.112 105.586 165.54C105.981 164.108 106.561 162.26 108.508 160.571C111.071 158.348 114.535 157.376 115.501 158.833Z" fill="#FFCE5B"/>
<path d="M95.8753 163.097C95.9092 160.561 100.208 158.308 102.401 159.461C104.681 160.659 106.461 163.507 105.87 165.104C105.278 166.701 103.859 166.914 101.977 167.286C100.095 167.659 98.7826 168.159 98.1588 167.286C97.5351 166.413 93.8571 162.442 93.8571 162.442L95.8753 163.097Z" fill="#FFD470"/>
<path d="M103.134 160.865C101.45 158.841 100.676 159.191 100.676 159.191C100.676 159.191 102.358 158.939 104.087 160.707C105.165 161.811 105.725 162.751 105.972 164.401C106.219 166.052 104.345 166.636 104.592 166.518C104.592 166.518 103.455 167.023 99.4285 167.82C99.4285 167.82 106.959 165.462 103.134 160.865Z" fill="#CEAB94" fill-opacity="0.34" style="mix-blend-mode:multiply"/>
<path d="M82.1059 162.971C82.8894 159.764 85.1377 158.528 90.317 159.055C97.7702 159.813 101.313 167.01 99.7566 167.759C96.388 169.387 93.2753 171.671 88.4304 170.464C83.5855 169.257 81.3224 166.177 82.1059 162.971Z" fill="#FFDE8E"/>
<path d="M87.7905 165.624C85.7162 170.459 88.6748 171.056 92.3382 170.803C95.2366 170.551 98.0738 168.683 99.665 167.771C98.6544 166.382 97.1385 164.992 96.0016 164.234C93.1593 162.339 88.8684 163.111 87.7905 165.624Z" fill="#FFCE5B"/>
<path d="M90.1057 163.517C88.5182 163.923 87.9008 165.175 87.7905 165.75C88.305 165.649 89.5324 165.364 90.3262 165.04C91.12 164.715 93.0089 163.754 93.8541 163.314C93.2661 163.213 91.6933 163.111 90.1057 163.517Z" fill="#CC2024"/>
<path fill-rule="evenodd" clip-rule="evenodd" d="M93.8541 163.314C93.2934 163.217 91.8369 163.121 90.3262 163.464L92.5909 163.96C93.0828 163.713 93.5404 163.478 93.8541 163.314Z" fill="#FFE6AA"/>
<path d="M92.4646 159.444C94.8058 160.399 97.1386 163.612 97.1386 165.128C98.4018 166.013 99.1906 167.307 99.6651 167.781C100.17 167.655 100.044 167.529 100.17 167.276C100.512 165.24 97.3912 162.136 95.749 160.96C94.8316 160.302 92.7763 159.598 92.4646 159.444Z" fill="#CEAB94" fill-opacity="0.34" style="mix-blend-mode:multiply"/>
<path d="M110.908 158.928C113.687 158.073 114.836 158.129 115.311 158.608C116.016 159.319 116.328 160.694 115.885 162.199C115.67 162.931 114.887 163.795 114.492 163.943C114.3 163.966 114.932 164.353 114.39 162.062C113.848 159.771 111.654 159.27 110.908 158.928Z" fill="#CEAB94" fill-opacity="0.34" style="mix-blend-mode:multiply"/>
<path d="M197.512 72.7611L223.534 84.004L256 72.7611L232.125 63.9183L202.944 69.3503L197.512 72.7611Z" fill="#DFE1EC"/>
<path d="M224.105 40.646L249.56 46.4854L223.228 53.5311L198.651 46.3323L224.105 40.646Z" fill="#CC2024"/>
<path d="M241.602 48.633L217.979 41.9377L211.284 43.4536L235.791 50.1489L241.602 48.633Z" fill="#FFD778"/>
<path d="M211.915 50.0226L239.075 44.0853L232.506 42.4431L206.484 48.5067L211.915 50.0226Z" fill="#DFB249"/>
<path d="M199.861 50.7338L223.402 57.6916V83.1023L199.861 72.3516V50.7338Z" fill="url(#paint28_linear_1837_16431)"/>
<path d="M248.316 51.1262L223.402 57.698V83.1024L248.316 72.5779V51.1262Z" fill="url(#paint29_linear_1837_16431)"/>
<path d="M207.904 53.4802L213.397 55.1477V78.5904L207.904 76.1501V53.4802Z" fill="#FFDE8E"/>
<path d="M234.252 54.6643L240.076 53.2841V76.147L234.191 78.5904L234.252 54.6643Z" fill="#FFD778"/>
<path fill-rule="evenodd" clip-rule="evenodd" d="M223.598 57.796L223.598 83.1023L223.205 83.1023L223.205 57.796L223.598 57.796Z" fill="#FF5C62"/>
<path fill-rule="evenodd" clip-rule="evenodd" d="M199.861 50.7338L223.457 57.6979L223.457 58.1352L199.861 51.1261L199.861 50.7338Z" fill="#FF5C62" style="mix-blend-mode:lighten"/>
<path fill-rule="evenodd" clip-rule="evenodd" d="M248.316 51.5186L223.402 58.0904L223.402 57.698L248.316 51.1262L248.316 51.5186Z" fill="#FF4D52" style="mix-blend-mode:lighten"/>
<path d="M198.651 46.2329L223.329 53.4895V61.1853L198.651 52.5491V46.2329Z" fill="url(#paint30_linear_1837_16431)"/>
<path d="M198.651 46.2329L223.329 53.4895V61.1853L198.651 52.5491V46.2329Z" fill="white" fill-opacity="0.1"/>
<path d="M249.56 46.4855L223.411 53.4894V61.1852L249.56 53.0544V46.4855Z" fill="url(#paint31_linear_1837_16431)"/>
<path d="M249.56 46.4855L223.411 53.4894V61.1852L249.56 53.0544V46.4855Z" fill="white" fill-opacity="0.1"/>
<path fill-rule="evenodd" clip-rule="evenodd" d="M223.664 53.307L223.664 61.3918L223.158 61.3918L223.158 53.307L223.664 53.307Z" fill="#FF666C"/>
<path fill-rule="evenodd" clip-rule="evenodd" d="M198.652 46.2329L223.285 53.3071L223.155 53.7953L198.652 46.7211L198.652 46.2329Z" fill="#FF666C"/>
<path d="M206.357 48.5067L211.935 50.0226V57.2231L206.484 55.3282L206.357 48.5067Z" fill="#FFEAB8"/>
<path fill-rule="evenodd" clip-rule="evenodd" d="M249.56 46.8646L223.307 54.004L223.158 53.521L249.56 46.4856L249.56 46.8646Z" fill="#FF666C"/>
<path d="M235.791 50.1489L241.676 48.6331V55.5809L235.791 57.3147V50.1489Z" fill="#FFDE8E"/>
<g filter="url(#filter7_f_1837_16431)">
<ellipse cx="217.921" cy="46.326" rx="1.37321" ry="1.27512" fill="white"/>
</g>
<path d="M241.437 40.3245C240.682 37.1323 236.56 34.1106 231.872 35.2426C227.956 36.8848 226.945 42.0641 224.603 43.7097C229.977 43.3274 228.031 46.3975 232.827 45.963C240.517 45.2602 242.193 43.5166 241.437 40.3245Z" fill="#FFDE8E"/>
<path d="M241.012 39.0632C241.977 40.5202 242.192 43.8765 238.203 44.9763C235.817 45.6339 232.503 46.3426 231.098 45.77C231.493 44.338 232.073 42.4903 234.019 40.8009C236.582 38.5785 240.047 37.6062 241.012 39.0632Z" fill="#FFCE5B"/>
<path d="M221.387 43.3273C221.421 40.7907 225.72 38.5387 227.913 39.6916C230.193 40.8893 231.973 43.7372 231.381 45.3342C230.79 46.9311 229.37 47.144 227.488 47.5167C225.606 47.8893 224.294 48.3897 223.67 47.5167C223.047 46.6437 219.369 42.6726 219.369 42.6726L221.387 43.3273Z" fill="#FFD470"/>
<path d="M228.646 41.0953C226.962 39.0712 226.187 39.4213 226.187 39.4213C226.187 39.4213 227.87 39.1691 229.598 40.9372C230.677 42.0408 231.236 42.9813 231.483 44.6316C231.73 46.2819 229.857 46.866 230.103 46.7482C230.103 46.7482 228.967 47.2535 224.94 48.05C224.94 48.05 232.471 45.6925 228.646 41.0953Z" fill="#CEAB94" fill-opacity="0.34" style="mix-blend-mode:multiply"/>
<path d="M207.618 43.201C208.401 39.9946 210.649 38.7582 215.829 39.2849C223.282 40.0429 226.825 47.2403 225.268 47.9894C221.9 49.6168 218.787 51.9017 213.942 50.6946C209.097 49.4875 206.834 46.4073 207.618 43.201Z" fill="#FFDE8E"/>
<path d="M213.302 45.8538C211.228 50.6893 214.186 51.2858 217.85 51.0331C220.748 50.7807 223.585 48.9134 225.177 48.0013C224.166 46.6117 222.65 45.2222 221.513 44.4642C218.671 42.5694 214.38 43.341 213.302 45.8538Z" fill="#FFCE5B"/>
<path d="M215.617 43.7475C214.03 44.1534 213.412 45.4051 213.302 45.9802C213.817 45.8787 215.044 45.5946 215.838 45.2698C216.632 44.9451 218.521 43.9843 219.366 43.5445C218.778 43.443 217.205 43.3415 215.617 43.7475Z" fill="#CC2024"/>
<path fill-rule="evenodd" clip-rule="evenodd" d="M219.366 43.5445C218.805 43.4477 217.349 43.3509 215.838 43.6943L218.103 44.1904C218.595 43.9428 219.052 43.7078 219.366 43.5445Z" fill="#FFE6AA"/>
<path d="M217.976 39.674C220.318 40.6291 222.65 43.8427 222.65 45.3586C223.914 46.2428 224.702 47.5369 225.177 48.0114C225.682 47.8851 225.556 47.7587 225.682 47.5061C226.024 45.4707 222.903 42.3662 221.261 41.1898C220.343 40.5327 218.288 39.8287 217.976 39.674Z" fill="#CEAB94" fill-opacity="0.34" style="mix-blend-mode:multiply"/>
<path d="M236.42 39.1586C239.199 38.3036 240.348 38.3595 240.823 38.8382C241.528 39.5494 241.84 40.9243 241.397 42.4292C241.182 43.1607 240.399 44.0251 240.003 44.1733C239.811 44.1961 240.444 44.5836 239.902 42.2924C239.359 40.0011 237.165 39.5006 236.42 39.1586Z" fill="#CEAB94" fill-opacity="0.34" style="mix-blend-mode:multiply"/>
<path d="M197.512 132.531L223.534 143.774L256 132.531L232.125 123.688L202.944 129.12L197.512 132.531Z" fill="#DFE1EC"/>
<path d="M224.105 100.416L249.56 106.255L223.228 113.301L198.651 106.102L224.105 100.416Z" fill="#CC2024"/>
<path d="M241.602 108.403L217.979 101.708L211.284 103.223L235.791 109.919L241.602 108.403Z" fill="#FFD778"/>
<path d="M211.915 109.792L239.075 103.855L232.506 102.213L206.484 108.276L211.915 109.792Z" fill="#DFB249"/>
<path d="M199.861 110.504L223.402 117.461V142.872L199.861 132.121V110.504Z" fill="url(#paint32_linear_1837_16431)"/>
<path d="M248.316 110.896L223.402 117.468V142.872L248.316 132.348V110.896Z" fill="url(#paint33_linear_1837_16431)"/>
<path d="M207.904 113.25L213.397 114.917V138.36L207.904 135.92V113.25Z" fill="#FFDE8E"/>
<path d="M234.252 114.434L240.076 113.054V135.917L234.191 138.36L234.252 114.434Z" fill="#FFD778"/>
<path fill-rule="evenodd" clip-rule="evenodd" d="M223.598 117.566L223.598 142.872L223.205 142.872L223.205 117.566L223.598 117.566Z" fill="#FF5C62"/>
<path fill-rule="evenodd" clip-rule="evenodd" d="M199.861 110.504L223.457 117.468L223.457 117.905L199.861 110.896L199.861 110.504Z" fill="#FF5C62" style="mix-blend-mode:lighten"/>
<path fill-rule="evenodd" clip-rule="evenodd" d="M248.316 111.288L223.402 117.86L223.402 117.468L248.316 110.896L248.316 111.288Z" fill="#FF4D52" style="mix-blend-mode:lighten"/>
<path d="M198.651 106.003L223.329 113.259V120.955L198.651 112.319V106.003Z" fill="url(#paint34_linear_1837_16431)"/>
<path d="M198.651 106.003L223.329 113.259V120.955L198.651 112.319V106.003Z" fill="white" fill-opacity="0.1"/>
<path d="M249.56 106.255L223.411 113.259V120.955L249.56 112.824V106.255Z" fill="url(#paint35_linear_1837_16431)"/>
<path d="M249.56 106.255L223.411 113.259V120.955L249.56 112.824V106.255Z" fill="white" fill-opacity="0.1"/>
<path fill-rule="evenodd" clip-rule="evenodd" d="M223.664 113.077L223.664 121.162L223.158 121.162L223.158 113.077L223.664 113.077Z" fill="#FF666C"/>
<path fill-rule="evenodd" clip-rule="evenodd" d="M198.652 106.003L223.285 113.077L223.155 113.565L198.652 106.491L198.652 106.003Z" fill="#FF666C"/>
<path d="M206.357 108.276L211.935 109.792V116.993L206.484 115.098L206.357 108.276Z" fill="#FFEAB8"/>
<path fill-rule="evenodd" clip-rule="evenodd" d="M249.56 106.634L223.307 113.774L223.158 113.291L249.56 106.255L249.56 106.634Z" fill="#FF666C"/>
<path d="M235.791 109.919L241.676 108.403V115.351L235.791 117.084V109.919Z" fill="#FFDE8E"/>
<g filter="url(#filter8_f_1837_16431)">
<ellipse cx="217.921" cy="106.096" rx="1.37321" ry="1.27512" fill="white"/>
</g>
<path d="M241.437 100.094C240.682 96.9021 236.56 93.8804 231.872 95.0124C227.956 96.6546 226.945 101.834 224.603 103.479C229.977 103.097 228.031 106.167 232.827 105.733C240.517 105.03 242.193 103.286 241.437 100.094Z" fill="#FFDE8E"/>
<path d="M241.012 98.833C241.977 100.29 242.192 103.646 238.203 104.746C235.817 105.404 232.503 106.112 231.098 105.54C231.493 104.108 232.073 102.26 234.019 100.571C236.582 98.3483 240.047 97.376 241.012 98.833Z" fill="#FFCE5B"/>
<path d="M221.387 103.097C221.421 100.561 225.72 98.3085 227.913 99.4614C230.193 100.659 231.973 103.507 231.381 105.104C230.79 106.701 229.37 106.914 227.488 107.286C225.606 107.659 224.294 108.159 223.67 107.286C223.047 106.413 219.369 102.442 219.369 102.442L221.387 103.097Z" fill="#FFD470"/>
<path d="M228.646 100.865C226.962 98.841 226.187 99.1911 226.187 99.1911C226.187 99.1911 227.87 98.9389 229.598 100.707C230.677 101.811 231.236 102.751 231.483 104.401C231.73 106.052 229.857 106.636 230.103 106.518C230.103 106.518 228.967 107.023 224.94 107.82C224.94 107.82 232.471 105.462 228.646 100.865Z" fill="#CEAB94" fill-opacity="0.34" style="mix-blend-mode:multiply"/>
<path d="M207.618 102.971C208.401 99.7644 210.649 98.528 215.829 99.0547C223.282 99.8127 226.825 107.01 225.268 107.759C221.9 109.387 218.787 111.671 213.942 110.464C209.097 109.257 206.834 106.177 207.618 102.971Z" fill="#FFDE8E"/>
<path d="M213.302 105.624C211.228 110.459 214.186 111.056 217.85 110.803C220.748 110.551 223.585 108.683 225.177 107.771C224.166 106.382 222.65 104.992 221.513 104.234C218.671 102.339 214.38 103.111 213.302 105.624Z" fill="#FFCE5B"/>
<path d="M215.617 103.517C214.03 103.923 213.412 105.175 213.302 105.75C213.817 105.649 215.044 105.364 215.838 105.04C216.632 104.715 218.521 103.754 219.366 103.314C218.778 103.213 217.205 103.111 215.617 103.517Z" fill="#CC2024"/>
<path fill-rule="evenodd" clip-rule="evenodd" d="M219.366 103.314C218.805 103.217 217.349 103.121 215.838 103.464L218.103 103.96C218.595 103.713 219.052 103.478 219.366 103.314Z" fill="#FFE6AA"/>
<path d="M217.976 99.4437C220.318 100.399 222.65 103.612 222.65 105.128C223.914 106.013 224.702 107.307 225.177 107.781C225.682 107.655 225.556 107.529 225.682 107.276C226.024 105.24 222.903 102.136 221.261 100.96C220.343 100.302 218.288 99.5985 217.976 99.4437Z" fill="#CEAB94" fill-opacity="0.34" style="mix-blend-mode:multiply"/>
<path d="M236.42 98.9284C239.199 98.0734 240.348 98.1292 240.823 98.608C241.528 99.3192 241.84 100.694 241.397 102.199C241.182 102.931 240.399 103.795 240.003 103.943C239.811 103.966 240.444 104.353 239.902 102.062C239.359 99.7709 237.165 99.2703 236.42 98.9284Z" fill="#CEAB94" fill-opacity="0.34" style="mix-blend-mode:multiply"/>
<path d="M134.171 192.531L160.193 203.774L192.659 192.531L168.784 183.688L139.602 189.12L134.171 192.531Z" fill="#DFE1EC"/>
<path d="M160.764 160.416L186.219 166.255L159.887 173.301L135.31 166.102L160.764 160.416Z" fill="#CC2024"/>
<path d="M178.261 168.403L154.638 161.708L147.943 163.223L172.45 169.919L178.261 168.403Z" fill="#FFD778"/>
<path d="M148.574 169.792L175.734 163.855L169.165 162.213L143.142 168.276L148.574 169.792Z" fill="#DFB249"/>
<path d="M136.52 170.504L160.061 177.461V202.872L136.52 192.121V170.504Z" fill="url(#paint36_linear_1837_16431)"/>
<path d="M184.975 170.896L160.061 177.468V202.872L184.975 192.348V170.896Z" fill="url(#paint37_linear_1837_16431)"/>
<path d="M144.563 173.25L150.056 174.917V198.36L144.563 195.92V173.25Z" fill="#FFDE8E"/>
<path d="M170.911 174.434L176.735 173.054V195.917L170.85 198.36L170.911 174.434Z" fill="#FFD778"/>
<path fill-rule="evenodd" clip-rule="evenodd" d="M160.257 177.566L160.257 202.872L159.864 202.872L159.864 177.566L160.257 177.566Z" fill="#FF5C62"/>
<path fill-rule="evenodd" clip-rule="evenodd" d="M136.52 170.504L160.116 177.468L160.116 177.905L136.52 170.896L136.52 170.504Z" fill="#FF5C62" style="mix-blend-mode:lighten"/>
<path fill-rule="evenodd" clip-rule="evenodd" d="M184.975 171.288L160.061 177.86L160.061 177.468L184.975 170.896L184.975 171.288Z" fill="#FF4D52" style="mix-blend-mode:lighten"/>
<path d="M135.31 166.003L159.988 173.259V180.955L135.31 172.319V166.003Z" fill="url(#paint38_linear_1837_16431)"/>
<path d="M135.31 166.003L159.988 173.259V180.955L135.31 172.319V166.003Z" fill="white" fill-opacity="0.1"/>
<path d="M186.219 166.255L160.07 173.259V180.955L186.219 172.824V166.255Z" fill="url(#paint39_linear_1837_16431)"/>
<path d="M186.219 166.255L160.07 173.259V180.955L186.219 172.824V166.255Z" fill="white" fill-opacity="0.1"/>
<path fill-rule="evenodd" clip-rule="evenodd" d="M160.323 173.077L160.323 181.162L159.817 181.162L159.817 173.077L160.323 173.077Z" fill="#FF666C"/>
<path fill-rule="evenodd" clip-rule="evenodd" d="M135.31 166.003L159.944 173.077L159.814 173.565L135.31 166.491L135.31 166.003Z" fill="#FF666C"/>
<path d="M143.016 168.276L148.594 169.792V176.993L143.143 175.098L143.016 168.276Z" fill="#FFEAB8"/>
<path fill-rule="evenodd" clip-rule="evenodd" d="M186.219 166.634L159.966 173.774L159.817 173.291L186.219 166.255L186.219 166.634Z" fill="#FF666C"/>
<path d="M172.45 169.919L178.335 168.403V175.351L172.45 177.084V169.919Z" fill="#FFDE8E"/>
<g filter="url(#filter9_f_1837_16431)">
<ellipse cx="154.58" cy="166.096" rx="1.37321" ry="1.27512" fill="white"/>
</g>
<path d="M178.096 160.094C177.341 156.902 173.219 153.88 168.531 155.012C164.615 156.655 163.604 161.834 161.262 163.479C166.636 163.097 164.69 166.167 169.486 165.733C177.176 165.03 178.852 163.286 178.096 160.094Z" fill="#FFDE8E"/>
<path d="M177.671 158.833C178.636 160.29 178.851 163.646 174.862 164.746C172.476 165.404 169.162 166.112 167.757 165.54C168.152 164.108 168.732 162.26 170.678 160.571C173.241 158.348 176.706 157.376 177.671 158.833Z" fill="#FFCE5B"/>
<path d="M158.046 163.097C158.08 160.561 162.379 158.308 164.572 159.461C166.852 160.659 168.632 163.507 168.04 165.104C167.449 166.701 166.029 166.914 164.147 167.286C162.265 167.659 160.953 168.159 160.329 167.286C159.706 166.413 156.028 162.442 156.028 162.442L158.046 163.097Z" fill="#FFD470"/>
<path d="M165.305 160.865C163.62 158.841 162.846 159.191 162.846 159.191C162.846 159.191 164.529 158.939 166.257 160.707C167.336 161.811 167.895 162.751 168.142 164.401C168.389 166.052 166.516 166.636 166.762 166.518C166.762 166.518 165.625 167.023 161.599 167.82C161.599 167.82 169.13 165.462 165.305 160.865Z" fill="#CEAB94" fill-opacity="0.34" style="mix-blend-mode:multiply"/>
<path d="M144.276 162.971C145.06 159.764 147.308 158.528 152.488 159.055C159.941 159.813 163.483 167.01 161.927 167.759C158.559 169.387 155.446 171.671 150.601 170.464C145.756 169.257 143.493 166.177 144.276 162.971Z" fill="#FFDE8E"/>
<path d="M149.961 165.624C147.887 170.459 150.845 171.056 154.509 170.803C157.407 170.551 160.244 168.683 161.836 167.771C160.825 166.382 159.309 164.992 158.172 164.234C155.33 162.339 151.039 163.111 149.961 165.624Z" fill="#FFCE5B"/>
<path d="M152.276 163.517C150.689 163.923 150.071 165.175 149.961 165.75C150.476 165.649 151.703 165.364 152.497 165.04C153.291 164.715 155.18 163.754 156.025 163.314C155.437 163.213 153.864 163.111 152.276 163.517Z" fill="#CC2024"/>
<path fill-rule="evenodd" clip-rule="evenodd" d="M156.025 163.314C155.464 163.217 154.008 163.121 152.497 163.464L154.762 163.96C155.253 163.713 155.711 163.478 156.025 163.314Z" fill="#FFE6AA"/>
<path d="M154.635 159.444C156.976 160.399 159.309 163.612 159.309 165.128C160.572 166.013 161.361 167.307 161.836 167.781C162.341 167.655 162.215 167.529 162.341 167.276C162.683 165.24 159.562 162.136 157.92 160.96C157.002 160.302 154.947 159.598 154.635 159.444Z" fill="#CEAB94" fill-opacity="0.34" style="mix-blend-mode:multiply"/>
<path d="M173.079 158.928C175.858 158.073 177.007 158.129 177.482 158.608C178.187 159.319 178.499 160.694 178.056 162.199C177.841 162.931 177.058 163.795 176.662 163.943C176.47 163.966 177.103 164.353 176.561 162.062C176.018 159.771 173.824 159.27 173.079 158.928Z" fill="#CEAB94" fill-opacity="0.34" style="mix-blend-mode:multiply"/>
<path d="M171 14C171 11.7909 172.791 10 175 10H291.535C292.409 10 292.862 11.0423 292.266 11.6817L276.75 28.3333L292.266 44.9849C292.862 45.6244 292.409 46.6667 291.535 46.6667H175C172.791 46.6667 171 44.8758 171 42.6667V14Z" fill="#76DA5D"/>
<path d="M187.118 37.6731V22.9849L189.156 24.8997H184V21.3269H191.866V37.6731H187.118Z" fill="#303133"/>
<path d="M208.78 38C207.341 38 206.062 37.6653 204.943 36.9959C203.84 36.3265 202.968 35.3613 202.329 34.1003C201.689 32.8393 201.369 31.3059 201.369 29.5C201.369 27.6941 201.689 26.1607 202.329 24.8997C202.968 23.6387 203.84 22.6735 204.943 22.0041C206.062 21.3347 207.341 21 208.78 21C210.203 21 211.466 21.3347 212.569 22.0041C213.688 22.6735 214.567 23.6387 215.207 24.8997C215.846 26.1607 216.166 27.6941 216.166 29.5C216.166 31.3059 215.846 32.8393 215.207 34.1003C214.567 35.3613 213.688 36.3265 212.569 36.9959C211.466 37.6653 210.203 38 208.78 38ZM208.78 34.217C209.291 34.217 209.739 34.0614 210.123 33.75C210.522 33.4386 210.834 32.9405 211.058 32.2555C211.282 31.5549 211.394 30.6364 211.394 29.5C211.394 28.348 211.282 27.4295 211.058 26.7445C210.834 26.0595 210.522 25.5614 210.123 25.25C209.739 24.9386 209.291 24.783 208.78 24.783C208.268 24.783 207.813 24.9386 207.413 25.25C207.029 25.5614 206.717 26.0595 206.478 26.7445C206.254 27.4295 206.142 28.348 206.142 29.5C206.142 30.6364 206.254 31.5549 206.478 32.2555C206.717 32.9405 207.029 33.4386 207.413 33.75C207.813 34.0614 208.268 34.217 208.78 34.217Z" fill="#303133"/>
<path d="M225.197 38C223.758 38 222.479 37.6653 221.36 36.9959C220.257 36.3265 219.385 35.3613 218.746 34.1003C218.106 32.8393 217.786 31.3059 217.786 29.5C217.786 27.6941 218.106 26.1607 218.746 24.8997C219.385 23.6387 220.257 22.6735 221.36 22.0041C222.479 21.3347 223.758 21 225.197 21C226.62 21 227.883 21.3347 228.986 22.0041C230.105 22.6735 230.984 23.6387 231.624 24.8997C232.263 26.1607 232.583 27.6941 232.583 29.5C232.583 31.3059 232.263 32.8393 231.624 34.1003C230.984 35.3613 230.105 36.3265 228.986 36.9959C227.883 37.6653 226.62 38 225.197 38ZM225.197 34.217C225.708 34.217 226.156 34.0614 226.54 33.75C226.939 33.4386 227.251 32.9405 227.475 32.2555C227.699 31.5549 227.811 30.6364 227.811 29.5C227.811 28.348 227.699 27.4295 227.475 26.7445C227.251 26.0595 226.939 25.5614 226.54 25.25C226.156 24.9386 225.708 24.783 225.197 24.783C224.685 24.783 224.229 24.9386 223.83 25.25C223.446 25.5614 223.134 26.0595 222.895 26.7445C222.671 27.4295 222.559 28.348 222.559 29.5C222.559 30.6364 222.671 31.5549 222.895 32.2555C223.134 32.9405 223.446 33.4386 223.83 33.75C224.229 34.0614 224.685 34.217 225.197 34.217Z" fill="#303133"/>
<path d="M241.614 38C240.175 38 238.896 37.6653 237.777 36.9959C236.674 36.3265 235.802 35.3613 235.163 34.1003C234.523 32.8393 234.203 31.3059 234.203 29.5C234.203 27.6941 234.523 26.1607 235.163 24.8997C235.802 23.6387 236.674 22.6735 237.777 22.0041C238.896 21.3347 240.175 21 241.614 21C243.037 21 244.3 21.3347 245.403 22.0041C246.522 22.6735 247.401 23.6387 248.041 24.8997C248.68 26.1607 249 27.6941 249 29.5C249 31.3059 248.68 32.8393 248.041 34.1003C247.401 35.3613 246.522 36.3265 245.403 36.9959C244.3 37.6653 243.037 38 241.614 38ZM241.614 34.217C242.125 34.217 242.573 34.0614 242.957 33.75C243.356 33.4386 243.668 32.9405 243.892 32.2555C244.116 31.5549 244.228 30.6364 244.228 29.5C244.228 28.348 244.116 27.4295 243.892 26.7445C243.668 26.0595 243.356 25.5614 242.957 25.25C242.573 24.9386 242.125 24.783 241.614 24.783C241.102 24.783 240.646 24.9386 240.247 25.25C239.863 25.5614 239.551 26.0595 239.312 26.7445C239.088 27.4295 238.976 28.348 238.976 29.5C238.976 30.6364 239.088 31.5549 239.312 32.2555C239.551 32.9405 239.863 33.4386 240.247 33.75C240.646 34.0614 241.102 34.217 241.614 34.217Z" fill="#303133"/>
<path d="M270 32.8617C270 34.0631 269.547 35.0851 268.641 35.9277C267.735 36.7546 266.407 37.2149 264.656 37.3085V40H263.505V37.3319C262.384 37.2695 261.324 37.0511 260.326 36.6766C259.344 36.2865 258.568 35.795 258 35.2021L258.668 33.8681C259.205 34.3986 259.904 34.8433 260.764 35.2021C261.639 35.561 262.553 35.7716 263.505 35.834V29.6787C262.445 29.4135 261.562 29.1326 260.856 28.8362C260.15 28.5241 259.559 28.0794 259.083 27.5021C258.622 26.9092 258.392 26.1291 258.392 25.1617C258.392 23.9603 258.821 22.9539 259.681 22.1426C260.541 21.3156 261.816 20.8319 263.505 20.6915V18H264.656V20.6681C265.532 20.6993 266.376 20.8475 267.19 21.1128C268.019 21.3624 268.733 21.6979 269.332 22.1191L268.756 23.5C268.127 23.0943 267.459 22.7745 266.752 22.5404C266.046 22.3064 265.347 22.1738 264.656 22.1426V28.3447C265.793 28.6255 266.722 28.9142 267.443 29.2106C268.165 29.4915 268.772 29.9284 269.263 30.5213C269.754 31.1142 270 31.8943 270 32.8617ZM260.073 25.1149C260.073 25.9262 260.365 26.5426 260.948 26.9638C261.547 27.3851 262.399 27.744 263.505 28.0404V22.1894C262.369 22.283 261.509 22.6028 260.925 23.1489C260.357 23.6794 260.073 24.3348 260.073 25.1149ZM264.656 35.834C265.869 35.7404 266.783 35.4362 267.397 34.9213C268.012 34.4064 268.319 33.7511 268.319 32.9553C268.319 32.1128 268.004 31.4809 267.374 31.0596C266.745 30.6383 265.839 30.2794 264.656 29.983V35.834Z" fill="#303133"/>
<defs>
<filter id="filter0_f_1837_16431" x="72.2065" y="25.0509" width="42.7465" height="42.5503" filterUnits="userSpaceOnUse" color-interpolation-filters="sRGB">
<feFlood flood-opacity="0" result="BackgroundImageFix"/>
<feBlend mode="normal" in="SourceGraphic" in2="BackgroundImageFix" result="shape"/>
<feGaussianBlur stdDeviation="10" result="effect1_foregroundBlur_1837_16431"/>
</filter>
<filter id="filter1_f_1837_16431" x="72.2065" y="84.8207" width="42.7465" height="42.5503" filterUnits="userSpaceOnUse" color-interpolation-filters="sRGB">
<feFlood flood-opacity="0" result="BackgroundImageFix"/>
<feBlend mode="normal" in="SourceGraphic" in2="BackgroundImageFix" result="shape"/>
<feGaussianBlur stdDeviation="10" result="effect1_foregroundBlur_1837_16431"/>
</filter>
<filter id="filter2_f_1837_16431" x="10.0363" y="25.0509" width="42.7465" height="42.5503" filterUnits="userSpaceOnUse" color-interpolation-filters="sRGB">
<feFlood flood-opacity="0" result="BackgroundImageFix"/>
<feBlend mode="normal" in="SourceGraphic" in2="BackgroundImageFix" result="shape"/>
<feGaussianBlur stdDeviation="10" result="effect1_foregroundBlur_1837_16431"/>
</filter>
<filter id="filter3_f_1837_16431" x="10.0363" y="84.8207" width="42.7465" height="42.5503" filterUnits="userSpaceOnUse" color-interpolation-filters="sRGB">
<feFlood flood-opacity="0" result="BackgroundImageFix"/>
<feBlend mode="normal" in="SourceGraphic" in2="BackgroundImageFix" result="shape"/>
<feGaussianBlur stdDeviation="10" result="effect1_foregroundBlur_1837_16431"/>
</filter>
<filter id="filter4_f_1837_16431" x="134.377" y="25.0509" width="42.7465" height="42.5503" filterUnits="userSpaceOnUse" color-interpolation-filters="sRGB">
<feFlood flood-opacity="0" result="BackgroundImageFix"/>
<feBlend mode="normal" in="SourceGraphic" in2="BackgroundImageFix" result="shape"/>
<feGaussianBlur stdDeviation="10" result="effect1_foregroundBlur_1837_16431"/>
</filter>
<filter id="filter5_f_1837_16431" x="134.377" y="84.8207" width="42.7465" height="42.5503" filterUnits="userSpaceOnUse" color-interpolation-filters="sRGB">
<feFlood flood-opacity="0" result="BackgroundImageFix"/>
<feBlend mode="normal" in="SourceGraphic" in2="BackgroundImageFix" result="shape"/>
<feGaussianBlur stdDeviation="10" result="effect1_foregroundBlur_1837_16431"/>
</filter>
<filter id="filter6_f_1837_16431" x="71.0359" y="144.821" width="42.7465" height="42.5503" filterUnits="userSpaceOnUse" color-interpolation-filters="sRGB">
<feFlood flood-opacity="0" result="BackgroundImageFix"/>
<feBlend mode="normal" in="SourceGraphic" in2="BackgroundImageFix" result="shape"/>
<feGaussianBlur stdDeviation="10" result="effect1_foregroundBlur_1837_16431"/>
</filter>
<filter id="filter7_f_1837_16431" x="196.547" y="25.0509" width="42.7465" height="42.5503" filterUnits="userSpaceOnUse" color-interpolation-filters="sRGB">
<feFlood flood-opacity="0" result="BackgroundImageFix"/>
<feBlend mode="normal" in="SourceGraphic" in2="BackgroundImageFix" result="shape"/>
<feGaussianBlur stdDeviation="10" result="effect1_foregroundBlur_1837_16431"/>
</filter>
<filter id="filter8_f_1837_16431" x="196.547" y="84.8207" width="42.7465" height="42.5503" filterUnits="userSpaceOnUse" color-interpolation-filters="sRGB">
<feFlood flood-opacity="0" result="BackgroundImageFix"/>
<feBlend mode="normal" in="SourceGraphic" in2="BackgroundImageFix" result="shape"/>
<feGaussianBlur stdDeviation="10" result="effect1_foregroundBlur_1837_16431"/>
</filter>
<filter id="filter9_f_1837_16431" x="133.206" y="144.821" width="42.7465" height="42.5503" filterUnits="userSpaceOnUse" color-interpolation-filters="sRGB">
<feFlood flood-opacity="0" result="BackgroundImageFix"/>
<feBlend mode="normal" in="SourceGraphic" in2="BackgroundImageFix" result="shape"/>
<feGaussianBlur stdDeviation="10" result="effect1_foregroundBlur_1837_16431"/>
</filter>
<linearGradient id="paint0_linear_1837_16431" x1="99.0652" y1="63.7892" x2="77.5783" y2="56.7127" gradientUnits="userSpaceOnUse">
<stop stop-color="#FB3C42"/>
<stop offset="1" stop-color="#D62F33"/>
</linearGradient>
<linearGradient id="paint1_linear_1837_16431" x1="121.71" y1="54.1395" x2="101.896" y2="80.387" gradientUnits="userSpaceOnUse">
<stop stop-color="#E22E34"/>
<stop offset="1" stop-color="#BF2E31"/>
</linearGradient>
<linearGradient id="paint2_linear_1837_16431" x1="97.6032" y1="59.2882" x2="76.1163" y2="52.2117" gradientUnits="userSpaceOnUse">
<stop stop-color="#FB3C42"/>
<stop offset="1" stop-color="#D62F33"/>
</linearGradient>
<linearGradient id="paint3_linear_1837_16431" x1="100.455" y1="59.2883" x2="123.83" y2="48.7593" gradientUnits="userSpaceOnUse">
<stop stop-color="#CD2F33"/>
<stop offset="1" stop-color="#E22F35"/>
</linearGradient>
<linearGradient id="paint4_linear_1837_16431" x1="99.0652" y1="123.559" x2="77.5783" y2="116.482" gradientUnits="userSpaceOnUse">
<stop stop-color="#FB3C42"/>
<stop offset="1" stop-color="#D62F33"/>
</linearGradient>
<linearGradient id="paint5_linear_1837_16431" x1="121.71" y1="113.909" x2="101.896" y2="140.157" gradientUnits="userSpaceOnUse">
<stop stop-color="#E22E34"/>
<stop offset="1" stop-color="#BF2E31"/>
</linearGradient>
<linearGradient id="paint6_linear_1837_16431" x1="97.6032" y1="119.058" x2="76.1163" y2="111.981" gradientUnits="userSpaceOnUse">
<stop stop-color="#FB3C42"/>
<stop offset="1" stop-color="#D62F33"/>
</linearGradient>
<linearGradient id="paint7_linear_1837_16431" x1="100.455" y1="119.058" x2="123.83" y2="108.529" gradientUnits="userSpaceOnUse">
<stop stop-color="#CD2F33"/>
<stop offset="1" stop-color="#E22F35"/>
</linearGradient>
<linearGradient id="paint8_linear_1837_16431" x1="36.895" y1="63.7892" x2="15.4081" y2="56.7127" gradientUnits="userSpaceOnUse">
<stop stop-color="#FB3C42"/>
<stop offset="1" stop-color="#D62F33"/>
</linearGradient>
<linearGradient id="paint9_linear_1837_16431" x1="59.5397" y1="54.1395" x2="39.7254" y2="80.387" gradientUnits="userSpaceOnUse">
<stop stop-color="#E22E34"/>
<stop offset="1" stop-color="#BF2E31"/>
</linearGradient>
<linearGradient id="paint10_linear_1837_16431" x1="35.4328" y1="59.2882" x2="13.9459" y2="52.2117" gradientUnits="userSpaceOnUse">
<stop stop-color="#FB3C42"/>
<stop offset="1" stop-color="#D62F33"/>
</linearGradient>
<linearGradient id="paint11_linear_1837_16431" x1="38.2843" y1="59.2883" x2="61.6591" y2="48.7593" gradientUnits="userSpaceOnUse">
<stop stop-color="#CD2F33"/>
<stop offset="1" stop-color="#E22F35"/>
</linearGradient>
<linearGradient id="paint12_linear_1837_16431" x1="36.895" y1="123.559" x2="15.4081" y2="116.482" gradientUnits="userSpaceOnUse">
<stop stop-color="#FB3C42"/>
<stop offset="1" stop-color="#D62F33"/>
</linearGradient>
<linearGradient id="paint13_linear_1837_16431" x1="59.5397" y1="113.909" x2="39.7254" y2="140.157" gradientUnits="userSpaceOnUse">
<stop stop-color="#E22E34"/>
<stop offset="1" stop-color="#BF2E31"/>
</linearGradient>
<linearGradient id="paint14_linear_1837_16431" x1="35.4328" y1="119.058" x2="13.9459" y2="111.981" gradientUnits="userSpaceOnUse">
<stop stop-color="#FB3C42"/>
<stop offset="1" stop-color="#D62F33"/>
</linearGradient>
<linearGradient id="paint15_linear_1837_16431" x1="38.2843" y1="119.058" x2="61.6591" y2="108.529" gradientUnits="userSpaceOnUse">
<stop stop-color="#CD2F33"/>
<stop offset="1" stop-color="#E22F35"/>
</linearGradient>
<linearGradient id="paint16_linear_1837_16431" x1="161.236" y1="63.7892" x2="139.749" y2="56.7127" gradientUnits="userSpaceOnUse">
<stop stop-color="#FB3C42"/>
<stop offset="1" stop-color="#D62F33"/>
</linearGradient>
<linearGradient id="paint17_linear_1837_16431" x1="183.881" y1="54.1395" x2="164.066" y2="80.387" gradientUnits="userSpaceOnUse">
<stop stop-color="#E22E34"/>
<stop offset="1" stop-color="#BF2E31"/>
</linearGradient>
<linearGradient id="paint18_linear_1837_16431" x1="159.774" y1="59.2882" x2="138.287" y2="52.2117" gradientUnits="userSpaceOnUse">
<stop stop-color="#FB3C42"/>
<stop offset="1" stop-color="#D62F33"/>
</linearGradient>
<linearGradient id="paint19_linear_1837_16431" x1="162.625" y1="59.2883" x2="186" y2="48.7593" gradientUnits="userSpaceOnUse">
<stop stop-color="#CD2F33"/>
<stop offset="1" stop-color="#E22F35"/>
</linearGradient>
<linearGradient id="paint20_linear_1837_16431" x1="161.236" y1="123.559" x2="139.749" y2="116.482" gradientUnits="userSpaceOnUse">
<stop stop-color="#FB3C42"/>
<stop offset="1" stop-color="#D62F33"/>
</linearGradient>
<linearGradient id="paint21_linear_1837_16431" x1="183.881" y1="113.909" x2="164.066" y2="140.157" gradientUnits="userSpaceOnUse">
<stop stop-color="#E22E34"/>
<stop offset="1" stop-color="#BF2E31"/>
</linearGradient>
<linearGradient id="paint22_linear_1837_16431" x1="159.774" y1="119.058" x2="138.287" y2="111.981" gradientUnits="userSpaceOnUse">
<stop stop-color="#FB3C42"/>
<stop offset="1" stop-color="#D62F33"/>
</linearGradient>
<linearGradient id="paint23_linear_1837_16431" x1="162.625" y1="119.058" x2="186" y2="108.529" gradientUnits="userSpaceOnUse">
<stop stop-color="#CD2F33"/>
<stop offset="1" stop-color="#E22F35"/>
</linearGradient>
<linearGradient id="paint24_linear_1837_16431" x1="97.895" y1="183.559" x2="76.4081" y2="176.482" gradientUnits="userSpaceOnUse">
<stop stop-color="#FB3C42"/>
<stop offset="1" stop-color="#D62F33"/>
</linearGradient>
<linearGradient id="paint25_linear_1837_16431" x1="120.54" y1="173.909" x2="100.725" y2="200.157" gradientUnits="userSpaceOnUse">
<stop stop-color="#E22E34"/>
<stop offset="1" stop-color="#BF2E31"/>
</linearGradient>
<linearGradient id="paint26_linear_1837_16431" x1="96.4328" y1="179.058" x2="74.9459" y2="171.981" gradientUnits="userSpaceOnUse">
<stop stop-color="#FB3C42"/>
<stop offset="1" stop-color="#D62F33"/>
</linearGradient>
<linearGradient id="paint27_linear_1837_16431" x1="99.2844" y1="179.058" x2="122.659" y2="168.529" gradientUnits="userSpaceOnUse">
<stop stop-color="#CD2F33"/>
<stop offset="1" stop-color="#E22F35"/>
</linearGradient>
<linearGradient id="paint28_linear_1837_16431" x1="223.407" y1="63.7892" x2="201.92" y2="56.7127" gradientUnits="userSpaceOnUse">
<stop stop-color="#FB3C42"/>
<stop offset="1" stop-color="#D62F33"/>
</linearGradient>
<linearGradient id="paint29_linear_1837_16431" x1="246.051" y1="54.1395" x2="226.237" y2="80.387" gradientUnits="userSpaceOnUse">
<stop stop-color="#E22E34"/>
<stop offset="1" stop-color="#BF2E31"/>
</linearGradient>
<linearGradient id="paint30_linear_1837_16431" x1="221.944" y1="59.2884" x2="200.457" y2="52.2118" gradientUnits="userSpaceOnUse">
<stop stop-color="#FB3C42"/>
<stop offset="1" stop-color="#D62F33"/>
</linearGradient>
<linearGradient id="paint31_linear_1837_16431" x1="224.796" y1="59.2883" x2="248.171" y2="48.7593" gradientUnits="userSpaceOnUse">
<stop stop-color="#CD2F33"/>
<stop offset="1" stop-color="#E22F35"/>
</linearGradient>
<linearGradient id="paint32_linear_1837_16431" x1="223.407" y1="123.559" x2="201.92" y2="116.482" gradientUnits="userSpaceOnUse">
<stop stop-color="#FB3C42"/>
<stop offset="1" stop-color="#D62F33"/>
</linearGradient>
<linearGradient id="paint33_linear_1837_16431" x1="246.051" y1="113.909" x2="226.237" y2="140.157" gradientUnits="userSpaceOnUse">
<stop stop-color="#E22E34"/>
<stop offset="1" stop-color="#BF2E31"/>
</linearGradient>
<linearGradient id="paint34_linear_1837_16431" x1="221.944" y1="119.058" x2="200.457" y2="111.981" gradientUnits="userSpaceOnUse">
<stop stop-color="#FB3C42"/>
<stop offset="1" stop-color="#D62F33"/>
</linearGradient>
<linearGradient id="paint35_linear_1837_16431" x1="224.796" y1="119.058" x2="248.171" y2="108.529" gradientUnits="userSpaceOnUse">
<stop stop-color="#CD2F33"/>
<stop offset="1" stop-color="#E22F35"/>
</linearGradient>
<linearGradient id="paint36_linear_1837_16431" x1="160.066" y1="183.559" x2="138.579" y2="176.482" gradientUnits="userSpaceOnUse">
<stop stop-color="#FB3C42"/>
<stop offset="1" stop-color="#D62F33"/>
</linearGradient>
<linearGradient id="paint37_linear_1837_16431" x1="182.71" y1="173.909" x2="162.896" y2="200.157" gradientUnits="userSpaceOnUse">
<stop stop-color="#E22E34"/>
<stop offset="1" stop-color="#BF2E31"/>
</linearGradient>
<linearGradient id="paint38_linear_1837_16431" x1="158.603" y1="179.058" x2="137.116" y2="171.982" gradientUnits="userSpaceOnUse">
<stop stop-color="#FB3C42"/>
<stop offset="1" stop-color="#D62F33"/>
</linearGradient>
<linearGradient id="paint39_linear_1837_16431" x1="161.455" y1="179.058" x2="184.83" y2="168.529" gradientUnits="userSpaceOnUse">
<stop stop-color="#CD2F33"/>
<stop offset="1" stop-color="#E22F35"/>
</linearGradient>
</defs>
</svg>
